<?xml version="1.0" encoding="UTF-8"?>
<svg id="Laag_1" data-name="Laag 1" xmlns="http://www.w3.org/2000/svg" version="1.1" viewBox="0 0 800 800">
  <defs>
    <style>
      .cls-1 {
        fill: #9b8463;
      }

      .cls-1, .cls-2 {
        stroke-width: 0px;
      }

      .cls-2 {
        fill: #d4ccb9;
      }
    </style>
  </defs>
  <rect class="cls-1" width="800" height="800"/>
  <g>
    <path class="cls-1" d="M798.39,400c0,4.58,0,8.71-.46,13.29-.46,9.63-.92,19.25-1.83,28.42-.92,7.34-1.83,14.67-2.75,22.01-1.38,9.17-3.21,17.88-5.5,27.05-2.29,9.63-5.04,19.25-7.79,28.88-2.75,9.17-5.96,17.88-9.63,27.05-.92,2.29-1.83,4.58-2.75,6.88-4.13,10.09-8.71,19.71-13.75,29.34-3.67,6.88-7.34,13.75-11.46,20.63-5.04,8.71-11,17.42-16.96,25.67-5.04,7.34-10.54,14.21-16.05,21.09-6.88,8.71-14.67,17.42-22.46,25.21-4.58,5.04-9.63,9.63-14.21,14.21h0c-9.17,8.71-18.8,16.96-28.42,24.76-11.46,8.71-23.38,17.42-35.76,24.76-11,6.88-22.01,12.84-33.47,18.34-11.46,5.5-23.38,10.54-35.3,15.13h0c-12.38,4.58-25.21,8.71-38.51,12.38-16.96,4.58-33.93,7.79-51.35,10.09-16.5,2.29-33.01,3.21-49.97,3.21s-33.01-.92-48.6-2.75c-17.88-2.29-35.76-5.5-52.72-10.09-12.38-3.21-24.76-7.34-36.68-11.46-12.38-4.58-24.76-9.63-36.22-15.59h0c-12.38-5.96-23.84-12.38-35.3-19.71-11.92-7.34-23.38-15.13-34.38-23.84-10.09-7.79-19.71-16.05-28.88-24.3-5.5-5.04-10.54-10.54-16.05-15.59-7.34-7.79-14.67-16.05-21.55-24.76-5.5-6.88-10.54-13.75-15.59-20.63-5.96-8.71-11.92-17.42-16.96-26.59-4.13-6.42-7.79-13.29-11-20.17-5.04-9.17-9.17-18.8-13.29-28.88-1.38-2.75-2.29-5.5-3.21-8.25-3.67-8.71-6.42-17.88-9.63-27.05h0c-2.75-9.17-5.5-18.34-7.34-27.97-2.29-8.71-3.67-17.88-5.04-27.05-1.38-7.34-2.29-15.13-3.21-22.46-.92-9.17-1.83-18.8-1.83-28.42-.92-4.13-.92-8.71-.92-12.84C1.61,179.94,179.94,1.61,400,1.61s398.39,178.34,398.39,398.39Z"/>
    <g>
      <path class="cls-2" d="M761.26,400v11.92c-.46,8.71-.92,17.42-1.83,26.13-.46,6.88-1.38,13.29-2.75,20.17-1.38,8.25-2.75,16.5-4.58,24.3-2.29,8.71-4.58,17.88-7.34,26.13-2.75,8.25-5.5,16.5-8.71,24.3-.92,2.29-1.83,4.13-2.75,5.96-3.67,9.17-7.79,17.88-12.38,26.59-3.21,6.42-6.88,12.38-10.54,18.8-4.58,8.25-9.63,16.05-15.13,23.38-4.58,6.42-9.63,12.84-14.67,19.25-6.42,7.79-13.29,15.59-20.17,22.92-4.13,4.58-8.71,8.71-12.84,12.84h0c-8.25,7.79-16.96,15.13-26.13,22.46-10.54,8.25-21.09,15.59-32.55,22.46-9.63,5.96-20.17,11.46-30.26,16.96-10.54,5.04-21.09,9.63-32.09,13.75h0c-11.46,4.13-22.92,7.79-34.84,11-15.13,4.13-30.72,6.88-46.76,9.17-14.67,1.83-30.26,2.75-45.39,2.75s-29.8-.92-44.01-2.75c-16.5-1.83-32.55-5.04-48.14-9.17-11.46-2.75-22.46-6.42-33.01-10.54-11.46-4.13-22.01-8.71-33.01-14.21h0c-11-5.5-21.55-11.46-32.09-17.88-10.54-6.88-21.09-13.75-31.17-21.55-9.17-6.88-17.88-14.21-26.13-22.01-5.04-4.58-9.63-9.63-14.21-14.21-6.88-7.34-13.29-14.67-19.71-22.46-5.04-5.96-9.63-12.38-14.21-18.8-5.5-7.79-10.54-15.59-15.59-24.3-3.67-5.96-6.88-11.92-10.09-18.34-4.58-8.25-8.25-16.96-11.92-26.13-.92-2.29-2.29-5.04-3.21-7.34-3.21-7.79-5.96-16.05-8.71-24.3h0c-2.75-8.25-5.04-16.5-6.88-25.21-1.83-8.25-3.67-16.05-4.58-24.3-.92-6.88-1.83-13.75-2.75-20.63-.92-8.25-1.38-16.96-1.83-25.67v-11.46c0-199.42,161.83-361.26,361.26-361.26,199.88,0,361.72,161.83,361.72,361.26Z"/>
      <g>
        <path class="cls-1" d="M400,66.71c-184.3,0-333.75,149.45-333.75,333.75v10.54c8.25-2.29,16.05-4.13,24.3-5.5,17.42-2.75,33.47,3.67,49.97,8.71,17.42,5.5,34.38,5.04,49.97-5.96,3.67-2.75,5.5-5.5,5.5-10.54-.46-25.21,0-50.89,0-76.1,0-11.92,3.21-23.38,14.21-29.34,7.34-4.13,16.5-7.34,25.21-7.79h333.75c.46,0,.92,0,1.83.46h1.38c.46,0,.92,0,1.38.46h.46c.46,0,.92.46,1.38.46h0c.46,0,.92.46,1.38.46s.46,0,.92.46c.46,0,.92.46,1.38.46s.92.46,1.38.46h0c.46.46.92.46,1.38.92h0c.46.46.92.46,1.38.92.46.46.92.46,1.38.92h.46c.46.46.92.46,1.38.92h0q.46.46.92.92c.92.92,1.83,1.83,2.75,2.75q.46.46.92.92c.46.46.92,1.38,1.83,2.29q.46.46.92.92h0c.46.46.46.92.92,1.38.46.46.46.92.92,1.38.46.46.46.92.46,1.38v.46c0,.46.46.46.46.92s.46.46.46.92.46.46.46.92.46.46.46.92,0,.46.46.46c0,.46.46.46.46.92v.46c0,.46.46.92.46,1.38v1.38c0,.46,0,.92.46,1.38,0,.46,0,.92.46,1.83,0,.46,0,.92.46,1.38v6.88c0,25.21,0,50.43.46,75.19,0,2.75,1.38,6.42,3.21,7.79,8.71,7.34,18.8,12.84,30.26,11.46,11.46-1.38,23.38-4.13,34.38-7.34,21.55-6.88,42.18-7.79,63.27.46h.46v-11c.92-184.3-148.54-333.29-332.83-333.29ZM142.35,372.95c-5.04,0-9.17-4.13-9.17-9.17s4.13-9.17,9.17-9.17,9.17,4.13,9.17,9.17c.46,5.04-3.67,9.17-9.17,9.17ZM142.35,306.48c-5.04,0-9.17-4.13-9.17-9.17s4.13-9.17,9.17-9.17,9.17,4.13,9.17,9.17c.46,4.58-3.67,9.17-9.17,9.17ZM248.25,255.13c-1.83,2.75-4.58,4.58-7.79,4.58-1.38,0-2.75-.46-4.13-.92l-75.19-41.26c-4.13-2.29-5.96-7.79-3.67-12.38,1.83-2.75,4.58-4.58,7.79-4.58,1.38,0,2.75.46,4.13.92l75.19,41.26c4.58,2.29,5.96,7.79,3.67,12.38ZM311.52,234.96c-1.83,1.83-4.13,2.29-5.96,2.29-2.29,0-4.58-.92-6.42-2.75l-77.94-81.6c-3.21-3.67-3.21-9.17.46-12.84,1.83-1.83,4.13-2.29,6.42-2.29s4.58.92,6.42,2.75l77.94,81.6c2.75,3.67,2.75,9.63-.92,12.84ZM333.07,162.52c-.92.46-2.29.46-3.21.46-3.67,0-6.88-2.29-8.25-5.5l-20.63-49.97c-1.83-4.58.46-9.63,5.04-11.92.92-.46,2.29-.46,3.21-.46,3.67,0,6.88,2.29,8.25,5.5l20.63,49.97c1.83,5.04-.46,10.09-5.04,11.92ZM347.28,200.58c-5.04,0-9.17-4.13-9.17-9.17s4.13-9.17,9.17-9.17,9.17,4.13,9.17,9.17-4.13,9.17-9.17,9.17ZM407.79,228.54c0,4.58-3.67,7.79-7.79,7.79h-1.83c-4.58,0-7.79-3.67-7.79-7.79V87.8c0-4.58,3.67-7.79,7.79-7.79h1.83c4.58,0,7.79,3.67,7.79,7.79v140.74ZM451.8,200.58c-5.04,0-9.17-4.13-9.17-9.17s4.13-9.17,9.17-9.17,9.17,4.13,9.17,9.17-4.13,9.17-9.17,9.17ZM468.77,163.44c-.92,0-2.29-.46-3.21-.46-4.58-1.83-6.88-7.34-5.04-11.92l20.63-49.97c1.38-3.67,4.58-5.5,8.25-5.5.92,0,2.29,0,3.21.46,4.58,1.83,6.88,7.34,5.04,11.92l-20.63,49.97c-1.38,3.21-5.04,5.5-8.25,5.5ZM486.19,234.96c-1.83-1.83-2.75-4.13-2.75-6.42s.92-4.58,2.29-6.42l77.94-81.6c3.21-3.67,9.17-3.67,12.84-.46,1.83,1.83,2.75,4.13,2.75,6.42s-.92,4.58-2.29,6.42l-77.94,81.6c-3.67,3.67-9.17,3.67-12.84.46ZM635.64,217.08l-75.19,41.26c-1.38.92-2.75.92-4.13.92-3.21,0-6.42-1.83-7.79-4.58-2.29-4.13-.92-9.63,3.67-12.38l75.19-41.26c1.38-.92,2.75-.92,4.13-.92,3.21,0,6.42,1.83,7.79,4.58,2.29,4.58.92,10.09-3.67,12.38ZM655.36,372.95c-5.04,0-9.17-4.13-9.17-9.17s4.13-9.17,9.17-9.17,9.17,4.13,9.17,9.17-4.13,9.17-9.17,9.17ZM655.36,306.48c-5.04,0-9.17-4.13-9.17-9.17s4.13-9.17,9.17-9.17,9.17,4.13,9.17,9.17c0,4.58-4.13,9.17-9.17,9.17Z"/>
        <path class="cls-1" d="M162.07,467.39c16.96-15.59,33.01-30.72,49.51-45.39,2.29-1.83,6.42-2.75,9.63-2.75h356.21c3.21,0,6.88,1.38,8.71,3.21,16.96,15.59,33.47,31.63,51.8,48.6-5.04-1.38-8.71-2.29-11.92-3.21-49.05-14.67-99.02-20.63-150.37-16.05-32.55,3.21-64.18,12.38-95.36,22.01-3.21.92-7.34,1.38-10.09,0-57.31-27.05-116.9-31.63-177.88-15.59-5.04,1.38-10.09,2.75-15.13,4.13-4.58,1.83-9.17,3.67-15.13,5.04Z"/>
        <path class="cls-1" d="M710.37,522.86c-.92,1.83-1.38,3.67-2.29,5.5-11.46,1.83-22.46.46-33.93-1.83-31.63-6.42-62.81-14.67-94.44-20.63-74.73-14.21-146.7-3.67-217.3,24.3-35.3,14.21-71.52,26.13-107.28,39.43-27.05,10.09-54.1,21.55-81.6,31.63-10.54,3.67-22.46,5.04-33.93,7.34-4.58-5.5-9.17-11.46-13.29-17.42,6.42-.92,12.84-1.38,18.8-2.75,30.26-5.96,58.22-18.34,86.19-30.26,49.97-20.63,99.94-42.64,150.37-61.43,81.6-30.72,164.58-33.01,247.56-4.13,27.97,10.09,54.56,20.63,81.15,30.26Z"/>
        <path class="cls-1" d="M604.93,663.15c-9.63,7.34-19.71,14.21-29.8,20.63-19.71-4.13-38.05-12.38-56.39-21.09-28.88-13.29-58.68-24.3-90.31-28.88-41.26-5.96-80.23,2.75-117.82,17.88-18.8,7.79-37.13,16.5-56.39,23.38-9.63,3.67-19.71,5.96-29.34,7.79-10.09-5.96-19.25-12.84-28.88-20.17,27.51-5.04,52.72-16.5,77.94-27.05,9.63-4.13,19.71-7.79,29.8-11.46,76.1-27.05,150.83-21.09,224.18,11.46,24.3,10.54,48.6,21.55,74.73,26.59.46.92,1.38.92,2.29.92Z"/>
        <path class="cls-1" d="M640.69,631.06c-3.67,4.13-7.79,8.25-11.92,11.92h0c-23.84,0-45.84-7.34-67.39-16.96-35.76-15.59-71.52-29.34-110.49-36.22-52.26-8.71-102.69-4.13-152.66,13.75-27.97,10.09-55.47,21.55-83.9,31.63-13.75,5.04-28.42,7.79-43.09,8.25-4.58-4.13-9.17-8.71-13.29-13.29,31.17-6.42,60.06-18.8,88.94-30.72,36.22-15.13,73.35-28.88,112.32-33.47,62.35-7.79,122.41-.46,180.17,26.13,28.42,12.84,57.31,24.3,86.65,35.3,5.04,1.38,10.09,2.75,14.67,3.67Z"/>
        <path class="cls-1" d="M546.7,699.82c-9.63,4.58-19.25,9.17-29.8,12.84h0c-16.05-7.34-32.09-14.67-48.6-21.09-49.05-18.8-97.65-15.59-145.33,4.58-13.29,5.5-25.67,11.46-38.97,17.42-10.54-3.67-20.63-8.25-30.26-12.84,21.09-7.34,40.8-17.42,60.97-25.67,12.84-5.5,26.13-9.63,39.88-13.29,43.55-11.46,85.73-5.96,126.99,11,21.09,8.71,41.72,17.88,62.81,26.59.92-.46,1.83,0,2.29.46Z"/>
        <path class="cls-1" d="M342.69,488.48c-5.96,2.75-10.54,4.58-15.13,6.42-9.63,4.13-19.25,11-29.34,11.92-10.09.92-20.63-3.67-30.72-5.96-32.09-6.88-62.35-.92-92.61,9.17-19.71,6.88-39.43,12.84-59.6,17.42-7.34,1.38-15.13,1.38-22.46.92-.92-2.29-1.83-4.58-2.75-6.88,33.93-13.29,67.85-27.51,102.23-38.97,46.76-15.13,94.44-14.67,141.66,1.83,1.83,1.38,4.58,2.29,8.71,4.13Z"/>
        <path class="cls-1" d="M672.78,592.09c-4.13,5.96-8.71,11.92-13.29,17.88-17.88-1.38-34.38-5.96-50.89-12.84-28.88-12.38-57.76-26.13-87.11-37.59-33.01-13.29-67.39-18.8-102.69-19.71-2.29,0-4.58-.46-6.88-.46,0-.46,0-1.38-.46-1.83,9.63-1.83,19.71-3.21,29.34-5.04,47.68-9.17,90.77,3.21,132.95,24.76,23.84,12.38,47.68,25.67,74.27,31.17,7.79.92,16.5,2.29,24.76,3.67Z"/>
        <path class="cls-1" d="M485.27,722.75c-14.21,3.67-28.42,6.42-43.09,8.25-27.51-8.71-55.47-8.71-82.98,0-15.13-1.83-29.8-4.58-44.47-8.25,50.43-26.13,120.11-26.13,170.54,0Z"/>
        <path class="cls-1" d="M405.96,390.37c37.13-39.88,110.49-39.43,143.04.46-6.42,6.42-14.67,8.25-23.38,8.71-32.09.46-63.72.46-95.82,0-8.71,0-16.5-3.67-23.84-9.17Z"/>
        <path class="cls-1" d="M389.91,390.37c-8.71,5.5-16.96,9.63-26.59,9.63h-91.69c-9.63,0-17.88-4.13-26.13-8.71,33.93-36.68,102.23-44.01,144.41-.92Z"/>
        <path class="cls-1" d="M254.67,524.7c-31.17,12.38-62.35,26.13-94.44,36.68-15.13,5.04-31.63,5.96-47.68,8.25-3.21-5.5-6.42-11-9.17-16.96,5.5-.46,10.54-.92,15.59-2.29,22.46-5.96,44.93-12.38,67.39-19.71,19.25-5.96,38.05-10.54,58.22-9.17,3.21.46,6.42.92,9.63,1.38.46.46.46,1.38.46,1.83Z"/>
        <path class="cls-1" d="M731.92,435.3c-.46,6.42-1.38,12.38-2.29,18.8-21.55-6.42-42.18-3.67-62.35,6.88-1.38.92-4.58.92-5.5,0-6.88-5.96-13.75-11.92-20.63-17.88,0-.92.46-1.38.46-2.29,20.63-4.13,41.26-9.63,61.89-12.38,9.63-1.83,19.25,1.83,28.42,6.88Z"/>
        <path class="cls-1" d="M157.02,442.64c-7.34,6.42-14.21,12.84-21.09,18.8-.92.92-3.21.46-4.58,0-19.71-10.54-39.88-13.75-60.52-7.79-.92-6.42-1.83-12.38-2.75-18.8.92-.46,2.29-.92,3.67-1.38,19.25-7.79,37.59-6.42,56.85.46,8.71,3.21,17.88,5.5,28.42,8.71Z"/>
        <path class="cls-1" d="M696.62,553.12c-2.75,5.96-5.96,11.46-9.63,16.96-24.3-.46-46.76-9.17-68.77-19.25-12.84-5.96-25.67-12.84-38.51-19.25,38.97,5.5,76.1,20.63,116.9,21.55Z"/>
        <path class="cls-1" d="M724.58,476.1c-1.83,8.25-4.13,16.5-6.88,24.3-13.75-4.13-26.13-10.54-38.05-19.71,11.46-6.88,23.38-9.17,35.76-6.88,4.13.92,6.88,1.83,9.17,2.29Z"/>
        <path class="cls-1" d="M115.76,480.23c-11,7.79-22.01,14.67-34.38,18.8-2.29-7.79-4.58-15.59-6.42-23.38,13.29-3.67,25.21-2.75,40.8,4.58Z"/>
      </g>
    </g>
    <path class="cls-2" d="M286.98,284.47l277.5-.71c8.71.46,16.73,1.46,24.07,5.59,11,5.96,12.7,18.28,12.7,30.2,0,25.21.43,51.73-.03,76.94"/>
  </g>
</svg>