<svg xmlns="http://www.w3.org/2000/svg" id="logo_Homan_CMYK" width="180" height="52.077" viewBox="0 0 180 52.077"><rect id="Rectangle_51" data-name="Rectangle 51" width="109.32" height="0.355" transform="translate(0 44.918)"></rect><path id="Path_43" data-name="Path 43" d="M32.572,37.4a.475.475,0,0,0,.139-.017c0-.009.009-.048.009-.13V34.865a.466.466,0,0,0-.017-.139c-.009,0-.048-.009-.13-.009H29.408V8.257h3.166a.451.451,0,0,0,.138-.017,1.071,1.071,0,0,0,.011-.13V5.627a.461.461,0,0,0-.017-.138c-.009,0-.048-.009-.13-.009H21.953a.477.477,0,0,0-.138.015,1.112,1.112,0,0,0-.011.13V8.111a.466.466,0,0,0,.017.139c.009,0,.05.009.13.009h3.166V19.467H9.183V8.257h3.166a.466.466,0,0,0,.139-.017c0-.006.009-.048.009-.13V5.627a.461.461,0,0,0-.017-.138c-.009,0-.048-.009-.13-.009H1.727a.486.486,0,0,0-.138.015c0,.009-.009.05-.009.13V8.111A.416.416,0,0,0,1.6,8.25c.006,0,.048.009.129.009H4.894v26.46H1.727a.461.461,0,0,0-.138.017,1.225,1.225,0,0,0-.009.13v2.386a.424.424,0,0,0,.017.139c.006,0,.047.009.129.009H12.348a.475.475,0,0,0,.139-.017c0-.009.009-.048.009-.13V34.867a.466.466,0,0,0-.017-.139c-.009,0-.048-.009-.13-.009H9.183V22.489H25.117v12.23H21.951a.451.451,0,0,0-.138.017,1,1,0,0,0-.011.13v2.386a.475.475,0,0,0,.017.139l0,0a.943.943,0,0,0,.127.011H32.572Z" transform="translate(-1.341 -4.651)"></path><path id="Path_44" data-name="Path 44" d="M256.16,29.92c-6.273,0-9.452-4.886-9.452-14.522a20.318,20.318,0,0,1,.806-6A9.291,9.291,0,0,1,250.5,4.936a8.358,8.358,0,0,1,5.512-1.816c6.273,0,9.455,4.508,9.455,13.4s-3.133,13.4-9.309,13.4m14.228-14.182a22.389,22.389,0,0,0-1.018-7.076,13.425,13.425,0,0,0-2.416-4.6,10.614,10.614,0,0,0-3.4-2.538,14.393,14.393,0,0,0-3.6-1.243A19.448,19.448,0,0,0,256.6,0a14.858,14.858,0,0,0-9.475,3.526,12.611,12.611,0,0,0-3.674,5.293,22.206,22.206,0,0,0-1.42,8.285c0,5.32,1.2,9.4,3.561,12.141,2.34,2.712,5.71,4.085,10.012,4.085a13.834,13.834,0,0,0,10.63-4.511c2.758-3.009,4.156-7.408,4.156-13.079" transform="translate(-205.438)"></path><path id="Path_45" data-name="Path 45" d="M492.3,37.38a.942.942,0,0,0,.127.011h10.719a.465.465,0,0,0,.139-.017c0-.009.009-.048.009-.13V34.857a.451.451,0,0,0-.017-.138.872.872,0,0,0-.13-.011h-3.166V8.25h3.166a.466.466,0,0,0,.139-.017c0-.009.009-.05.009-.13V5.618a.465.465,0,0,0-.017-.139c-.011,0-.05-.009-.13-.009h-8.137c-.316,0-.369.107-.413.257l-.018.053L483.755,33.349,473.158,5.73c-.044-.153-.1-.259-.413-.259h-8.527a.451.451,0,0,0-.138.017.989.989,0,0,0-.011.13V8.1a.46.46,0,0,0,.017.138,1.071,1.071,0,0,0,.13.011h3.169V34.71H464.22a.451.451,0,0,0-.138.017,1.066,1.066,0,0,0-.011.13v2.387a.451.451,0,0,0,.017.138c.009,0,.048.011.13.011h9.892a.461.461,0,0,0,.138-.017c0-.009.009-.048.009-.13V34.858a.4.4,0,0,0-.017-.138.953.953,0,0,0-.128-.011h-3.654V10.187L481.04,37.078a.452.452,0,0,0,.479.313h3.217a.461.461,0,0,0,.485-.328l10.721-26.777V34.707h-3.508a.452.452,0,0,0-.138.017,1.078,1.078,0,0,0-.011.13v2.387a.451.451,0,0,0,.017.138s0,0,0,0" transform="translate(-393.908 -4.643)"></path><path id="Path_46" data-name="Path 46" d="M754.176,24.484,759.61,7.663l5.379,16.821Zm10.226,12.9a1.094,1.094,0,0,0,.127.009h12.23a.424.424,0,0,0,.139-.017c0-.006.009-.048.009-.129V34.865a.452.452,0,0,0-.017-.138c-.009,0-.048-.011-.13-.011h-3.73L763.059,5.791c-.115-.259-.251-.311-.429-.311H757.9c-.184,0-.315.051-.429.308L747.6,34.715h-3.293a.46.46,0,0,0-.138.017,1.288,1.288,0,0,0-.009.13v2.387a.414.414,0,0,0,.017.138c.011,0,.048.009.129.009h10.379a.415.415,0,0,0,.139-.017c0-.006.009-.048.009-.129V34.864a.452.452,0,0,0-.017-.138c-.009,0-.048-.011-.13-.011h-3.74l2.64-7.747h12.091l2.7,7.747H764.53a.476.476,0,0,0-.139.017c0,.009-.009.048-.009.13v2.387a.462.462,0,0,0,.017.138l0,0" transform="translate(-631.651 -4.651)"></path><path id="Path_47" data-name="Path 47" d="M1012.98,8.24c0-.009.009-.048.009-.13V5.626a.446.446,0,0,0-.017-.138.972.972,0,0,0-.128-.009h-9.4a.5.5,0,0,0-.139.015c0,.009-.009.048-.009.13V8.11a.47.47,0,0,0,.017.139c.009,0,.048.009.13.009h3.166V32.137L989.3,5.85a.712.712,0,0,0-.632-.369H981.51a.492.492,0,0,0-.139.015c0,.009-.009.048-.009.13V8.111a.423.423,0,0,0,.017.139c.009,0,.047.009.13.009h3.166v26.46h-3.166a.415.415,0,0,0-.139.017,1.2,1.2,0,0,0-.009.13v2.386a.427.427,0,0,0,.017.139c.009,0,.048.009.13.009h10.864a.476.476,0,0,0,.139-.017c0-.009.009-.048.009-.13V34.867a.467.467,0,0,0-.017-.139c-.009,0-.048-.009-.13-.009h-4.629V11.076l17.588,25.992a.687.687,0,0,0,.636.328h3.557a.453.453,0,0,0,.138-.017,1.1,1.1,0,0,0,.01-.13V8.257h3.166a.421.421,0,0,0,.141-.017" transform="translate(-832.989 -4.651)"></path><path id="Path_48" data-name="Path 48" d="M750.53,271.262a2.418,2.418,0,0,0-1.321.33,1.1,1.1,0,0,0-.517.993,1.153,1.153,0,0,0,.517,1.016,7.78,7.78,0,0,0,2.2.76,6.023,6.023,0,0,1,2.535,1.141,2.7,2.7,0,0,1,.853,2.165,2.874,2.874,0,0,1-1.079,2.324,4.31,4.31,0,0,1-2.83.891,6.652,6.652,0,0,1-4.554-1.767l1.158-1.392a5.22,5.22,0,0,0,3.443,1.439,2.351,2.351,0,0,0,1.415-.383,1.2,1.2,0,0,0,.523-1.016,1.141,1.141,0,0,0-.491-.986,5.184,5.184,0,0,0-1.7-.641,14.936,14.936,0,0,1-1.829-.531,4.1,4.1,0,0,1-1.111-.633,2.646,2.646,0,0,1-.969-2.253,2.741,2.741,0,0,1,1.1-2.339,4.451,4.451,0,0,1,2.729-.821,6.531,6.531,0,0,1,2.08.345,5.4,5.4,0,0,1,1.783.969l-.984,1.392a3.729,3.729,0,0,0-1.315-.718,4.965,4.965,0,0,0-1.634-.286" transform="translate(-633.493 -228.805)"></path><path id="Path_49" data-name="Path 49" d="M819.47,282.244V271.31h1.847v9.18h4.989v1.754Z" transform="translate(-695.575 -230.291)"></path><path id="Path_50" data-name="Path 50" d="M877.859,278.05l-1.987-4.5-1.987,4.5Zm-4.723,1.707-1.095,2.487H870.07l4.817-10.934h1.971l4.817,10.934h-1.97l-1.1-2.487Z" transform="translate(-738.525 -230.291)"></path><path id="Path_51" data-name="Path 51" d="M965.033,276.769a2.413,2.413,0,0,0,.557-1.721,1.784,1.784,0,0,0-.7-1.6,4.048,4.048,0,0,0-2.2-.467H960.8v4.38h2.144a2.854,2.854,0,0,0,2.086-.588m1.308-4.513a3.618,3.618,0,0,1,1.141,2.941,3.482,3.482,0,0,1-1.164,2.909,5.714,5.714,0,0,1-3.574.924H960.8v3.205H958.96V271.3h3.753a5.612,5.612,0,0,1,3.629.956" transform="translate(-813.975 -230.282)"></path><path id="Path_52" data-name="Path 52" d="M1039.46,271.3v1.737h-5.834v2.894h5.24v1.643h-5.24V280.5h6.022v1.736h-7.868V271.3Z" transform="translate(-875.786 -230.282)"></path><path id="Path_53" data-name="Path 53" d="M1109.716,271.3h1.846v10.934h-2l-6.194-7.977v7.977h-1.844V271.3h1.844l6.352,8.167Z" transform="translate(-934.982 -230.282)"></path></svg>