<svg xmlns="http://www.w3.org/2000/svg" id="Laag_1" viewBox="0 0 560.1 173.8"><defs><style>      .st0 {        fill: #3f3f3f;      }      .st1 {        fill: #d4ccb9;      }      .st2 {        fill: #fff;      }      .st3 {        fill: #9b8463;      }    </style></defs><g><path class="st3" d="M173.8,86.9c0,1,0,1.9-.1,2.9-.1,2.1-.2,4.2-.4,6.2-.2,1.6-.4,3.2-.6,4.8-.3,2-.7,3.9-1.2,5.9-.5,2.1-1.1,4.2-1.7,6.3-.6,2-1.3,3.9-2.1,5.9-.2.5-.4,1-.6,1.5-.9,2.2-1.9,4.3-3,6.4-.8,1.5-1.6,3-2.5,4.5-1.1,1.9-2.4,3.8-3.7,5.6-1.1,1.6-2.3,3.1-3.5,4.6-1.5,1.9-3.2,3.8-4.9,5.5-1,1.1-2.1,2.1-3.1,3.1h0c-2,1.9-4.1,3.7-6.2,5.4-2.5,1.9-5.1,3.8-7.8,5.4-2.4,1.5-4.8,2.8-7.3,4s-5.1,2.3-7.7,3.3h0c-2.7,1-5.5,1.9-8.4,2.7-3.7,1-7.4,1.7-11.2,2.2-3.6.5-7.2.7-10.9.7s-7.2-.2-10.6-.6c-3.9-.5-7.8-1.2-11.5-2.2-2.7-.7-5.4-1.6-8-2.5-2.7-1-5.4-2.1-7.9-3.4h0c-2.7-1.3-5.2-2.7-7.7-4.3-2.6-1.6-5.1-3.3-7.5-5.2-2.2-1.7-4.3-3.5-6.3-5.3-1.2-1.1-2.3-2.3-3.5-3.4-1.6-1.7-3.2-3.5-4.7-5.4-1.2-1.5-2.3-3-3.4-4.5-1.3-1.9-2.6-3.8-3.7-5.8-.9-1.4-1.7-2.9-2.4-4.4-1.1-2-2-4.1-2.9-6.3-.3-.6-.5-1.2-.7-1.8-.8-1.9-1.4-3.9-2.1-5.9h0c-.6-2-1.2-4-1.6-6.1-.5-1.9-.8-3.9-1.1-5.9-.3-1.6-.5-3.3-.7-4.9-.2-2-.4-4.1-.4-6.2-.2-.9-.2-1.9-.2-2.8C0,38.9,38.9,0,86.9,0s86.9,38.9,86.9,86.9Z"></path><g><path class="st1" d="M165.7,86.9v2.6c-.1,1.9-.2,3.8-.4,5.7-.1,1.5-.3,2.9-.6,4.4-.3,1.8-.6,3.6-1,5.3-.5,1.9-1,3.9-1.6,5.7-.6,1.8-1.2,3.6-1.9,5.3-.2.5-.4.9-.6,1.3-.8,2-1.7,3.9-2.7,5.8-.7,1.4-1.5,2.7-2.3,4.1-1,1.8-2.1,3.5-3.3,5.1-1,1.4-2.1,2.8-3.2,4.2-1.4,1.7-2.9,3.4-4.4,5-.9,1-1.9,1.9-2.8,2.8h0c-1.8,1.7-3.7,3.3-5.7,4.9-2.3,1.8-4.6,3.4-7.1,4.9-2.1,1.3-4.4,2.5-6.6,3.7-2.3,1.1-4.6,2.1-7,3h0c-2.5.9-5,1.7-7.6,2.4-3.3.9-6.7,1.5-10.2,2-3.2.4-6.6.6-9.9.6s-6.5-.2-9.6-.6c-3.6-.4-7.1-1.1-10.5-2-2.5-.6-4.9-1.4-7.2-2.3-2.5-.9-4.8-1.9-7.2-3.1h0c-2.4-1.2-4.7-2.5-7-3.9-2.3-1.5-4.6-3-6.8-4.7-2-1.5-3.9-3.1-5.7-4.8-1.1-1-2.1-2.1-3.1-3.1-1.5-1.6-2.9-3.2-4.3-4.9-1.1-1.3-2.1-2.7-3.1-4.1-1.2-1.7-2.3-3.4-3.4-5.3-.8-1.3-1.5-2.6-2.2-4-1-1.8-1.8-3.7-2.6-5.7-.2-.5-.5-1.1-.7-1.6-.7-1.7-1.3-3.5-1.9-5.3h0c-.6-1.8-1.1-3.6-1.5-5.5-.4-1.8-.8-3.5-1-5.3-.2-1.5-.4-3-.6-4.5-.2-1.8-.3-3.7-.4-5.6v-2.5C8,43.4,43.3,8.1,86.8,8.1c43.6,0,78.9,35.3,78.9,78.8Z"></path><g><path class="st3" d="M86.9,14.2C46.7,14.2,14.1,46.8,14.1,87v2.3c1.8-.5,3.5-.9,5.3-1.2,3.8-.6,7.3.8,10.9,1.9,3.8,1.2,7.5,1.1,10.9-1.3.8-.6,1.2-1.2,1.2-2.3-.1-5.5,0-11.1,0-16.6,0-2.6.7-5.1,3.1-6.4,1.6-.9,3.6-1.6,5.5-1.7h72.8c.1,0,.2,0,.4.1h.3c.1,0,.2,0,.3.1h.1c.1,0,.2.1.3.1h0c.1,0,.2.1.3.1s.1,0,.2.1c.1,0,.2.1.3.1s.2.1.3.1h0c.1.1.2.1.3.2h0c.1.1.2.1.3.2.1.1.2.1.3.2h.1c.1.1.2.1.3.2h0q.1.1.2.2c.2.2.4.4.6.6q.1.1.2.2c.1.1.2.3.4.5q.1.1.2.2h0c.1.1.1.2.2.3.1.1.1.2.2.3.1.1.1.2.1.3v.1c0,.1.1.1.1.2s.1.1.1.2.1.1.1.2.1.1.1.2,0,.1.1.1c0,.1.1.1.1.2v.1c0,.1.1.2.1.3v.3c0,.1,0,.2.1.3,0,.1,0,.2.1.4,0,.1,0,.2.1.3v1.5c0,5.5,0,11,.1,16.4,0,.6.3,1.4.7,1.7,1.9,1.6,4.1,2.8,6.6,2.5s5.1-.9,7.5-1.6c4.7-1.5,9.2-1.7,13.8.1h.1v-2.4c.2-40.2-32.4-72.7-72.6-72.7ZM30.7,81c-1.1,0-2-.9-2-2s.9-2,2-2,2,.9,2,2c.1,1.1-.8,2-2,2ZM30.7,66.5c-1.1,0-2-.9-2-2s.9-2,2-2,2,.9,2,2c.1,1-.8,2-2,2ZM53.8,55.3c-.4.6-1,1-1.7,1-.3,0-.6-.1-.9-.2l-16.4-9c-.9-.5-1.3-1.7-.8-2.7.4-.6,1-1,1.7-1,.3,0,.6.1.9.2l16.4,9c1,.5,1.3,1.7.8,2.7ZM67.6,50.9c-.4.4-.9.5-1.3.5-.5,0-1-.2-1.4-.6l-17-17.8c-.7-.8-.7-2,.1-2.8.4-.4.9-.5,1.4-.5s1,.2,1.4.6l17,17.8c.6.8.6,2.1-.2,2.8ZM72.3,35.1c-.2.1-.5.1-.7.1-.8,0-1.5-.5-1.8-1.2l-4.5-10.9c-.4-1,.1-2.1,1.1-2.6.2-.1.5-.1.7-.1.8,0,1.5.5,1.8,1.2l4.5,10.9c.4,1.1-.1,2.2-1.1,2.6ZM75.4,43.4c-1.1,0-2-.9-2-2s.9-2,2-2,2,.9,2,2-.9,2-2,2ZM88.6,49.5c0,1-.8,1.7-1.7,1.7h-.4c-1,0-1.7-.8-1.7-1.7v-30.7c0-1,.8-1.7,1.7-1.7h.4c1,0,1.7.8,1.7,1.7v30.7ZM98.2,43.4c-1.1,0-2-.9-2-2s.9-2,2-2,2,.9,2,2-.9,2-2,2ZM101.9,35.3c-.2,0-.5-.1-.7-.1-1-.4-1.5-1.6-1.1-2.6l4.5-10.9c.3-.8,1-1.2,1.8-1.2.2,0,.5,0,.7.1,1,.4,1.5,1.6,1.1,2.6l-4.5,10.9c-.3.7-1.1,1.2-1.8,1.2ZM105.7,50.9c-.4-.4-.6-.9-.6-1.4s.2-1,.5-1.4l17-17.8c.7-.8,2-.8,2.8-.1.4.4.6.9.6,1.4s-.2,1-.5,1.4l-17,17.8c-.8.8-2,.8-2.8.1ZM138.3,47l-16.4,9c-.3.2-.6.2-.9.2-.7,0-1.4-.4-1.7-1-.5-.9-.2-2.1.8-2.7l16.4-9c.3-.2.6-.2.9-.2.7,0,1.4.4,1.7,1,.5,1,.2,2.2-.8,2.7ZM142.6,81c-1.1,0-2-.9-2-2s.9-2,2-2,2,.9,2,2-.9,2-2,2ZM142.6,66.5c-1.1,0-2-.9-2-2s.9-2,2-2,2,.9,2,2c0,1-.9,2-2,2Z"></path><path class="st3" d="M35,101.6c3.7-3.4,7.2-6.7,10.8-9.9.5-.4,1.4-.6,2.1-.6h77.7c.7,0,1.5.3,1.9.7,3.7,3.4,7.3,6.9,11.3,10.6-1.1-.3-1.9-.5-2.6-.7-10.7-3.2-21.6-4.5-32.8-3.5-7.1.7-14,2.7-20.8,4.8-.7.2-1.6.3-2.2,0-12.5-5.9-25.5-6.9-38.8-3.4-1.1.3-2.2.6-3.3.9-1,.4-2,.8-3.3,1.1Z"></path><path class="st3" d="M154.6,113.7c-.2.4-.3.8-.5,1.2-2.5.4-4.9.1-7.4-.4-6.9-1.4-13.7-3.2-20.6-4.5-16.3-3.1-32-.8-47.4,5.3-7.7,3.1-15.6,5.7-23.4,8.6-5.9,2.2-11.8,4.7-17.8,6.9-2.3.8-4.9,1.1-7.4,1.6-1-1.2-2-2.5-2.9-3.8,1.4-.2,2.8-.3,4.1-.6,6.6-1.3,12.7-4,18.8-6.6,10.9-4.5,21.8-9.3,32.8-13.4,17.8-6.7,35.9-7.2,54-.9,6.1,2.2,11.9,4.5,17.7,6.6Z"></path><path class="st3" d="M131.6,144.3c-2.1,1.6-4.3,3.1-6.5,4.5-4.3-.9-8.3-2.7-12.3-4.6-6.3-2.9-12.8-5.3-19.7-6.3-9-1.3-17.5.6-25.7,3.9-4.1,1.7-8.1,3.6-12.3,5.1-2.1.8-4.3,1.3-6.4,1.7-2.2-1.3-4.2-2.8-6.3-4.4,6-1.1,11.5-3.6,17-5.9,2.1-.9,4.3-1.7,6.5-2.5,16.6-5.9,32.9-4.6,48.9,2.5,5.3,2.3,10.6,4.7,16.3,5.8.1.2.3.2.5.2Z"></path><path class="st3" d="M139.4,137.3c-.8.9-1.7,1.8-2.6,2.6h0c-5.2,0-10-1.6-14.7-3.7-7.8-3.4-15.6-6.4-24.1-7.9-11.4-1.9-22.4-.9-33.3,3-6.1,2.2-12.1,4.7-18.3,6.9-3,1.1-6.2,1.7-9.4,1.8-1-.9-2-1.9-2.9-2.9,6.8-1.4,13.1-4.1,19.4-6.7,7.9-3.3,16-6.3,24.5-7.3,13.6-1.7,26.7-.1,39.3,5.7,6.2,2.8,12.5,5.3,18.9,7.7,1.1.3,2.2.6,3.2.8Z"></path><path class="st3" d="M118.9,152.3c-2.1,1-4.2,2-6.5,2.8h0c-3.5-1.6-7-3.2-10.6-4.6-10.7-4.1-21.3-3.4-31.7,1-2.9,1.2-5.6,2.5-8.5,3.8-2.3-.8-4.5-1.8-6.6-2.8,4.6-1.6,8.9-3.8,13.3-5.6,2.8-1.2,5.7-2.1,8.7-2.9,9.5-2.5,18.7-1.3,27.7,2.4,4.6,1.9,9.1,3.9,13.7,5.8.2-.1.4,0,.5.1Z"></path><path class="st3" d="M74.4,106.2c-1.3.6-2.3,1-3.3,1.4-2.1.9-4.2,2.4-6.4,2.6-2.2.2-4.5-.8-6.7-1.3-7-1.5-13.6-.2-20.2,2-4.3,1.5-8.6,2.8-13,3.8-1.6.3-3.3.3-4.9.2-.2-.5-.4-1-.6-1.5,7.4-2.9,14.8-6,22.3-8.5,10.2-3.3,20.6-3.2,30.9.4.4.3,1,.5,1.9.9Z"></path><path class="st3" d="M146.4,128.8c-.9,1.3-1.9,2.6-2.9,3.9-3.9-.3-7.5-1.3-11.1-2.8-6.3-2.7-12.6-5.7-19-8.2-7.2-2.9-14.7-4.1-22.4-4.3-.5,0-1-.1-1.5-.1,0-.1,0-.3-.1-.4,2.1-.4,4.3-.7,6.4-1.1,10.4-2,19.8.7,29,5.4,5.2,2.7,10.4,5.6,16.2,6.8,1.7.2,3.6.5,5.4.8Z"></path><path class="st3" d="M105.5,157.3c-3.1.8-6.2,1.4-9.4,1.8-6-1.9-12.1-1.9-18.1,0-3.3-.4-6.5-1-9.7-1.8,11-5.7,26.2-5.7,37.2,0Z"></path><path class="st3" d="M88.2,84.8c8.1-8.7,24.1-8.6,31.2.1-1.4,1.4-3.2,1.8-5.1,1.9-7,.1-13.9.1-20.9,0-1.9,0-3.6-.8-5.2-2Z"></path><path class="st3" d="M84.7,84.8c-1.9,1.2-3.7,2.1-5.8,2.1h-20c-2.1,0-3.9-.9-5.7-1.9,7.4-8,22.3-9.6,31.5-.2Z"></path><path class="st3" d="M55.2,114.1c-6.8,2.7-13.6,5.7-20.6,8-3.3,1.1-6.9,1.3-10.4,1.8-.7-1.2-1.4-2.4-2-3.7,1.2-.1,2.3-.2,3.4-.5,4.9-1.3,9.8-2.7,14.7-4.3,4.2-1.3,8.3-2.3,12.7-2,.7.1,1.4.2,2.1.3.1.1.1.3.1.4Z"></path><path class="st3" d="M159.3,94.6c-.1,1.4-.3,2.7-.5,4.1-4.7-1.4-9.2-.8-13.6,1.5-.3.2-1,.2-1.2,0-1.5-1.3-3-2.6-4.5-3.9,0-.2.1-.3.1-.5,4.5-.9,9-2.1,13.5-2.7,2.1-.4,4.2.4,6.2,1.5Z"></path><path class="st3" d="M33.9,96.2c-1.6,1.4-3.1,2.8-4.6,4.1-.2.2-.7.1-1,0-4.3-2.3-8.7-3-13.2-1.7-.2-1.4-.4-2.7-.6-4.1.2-.1.5-.2.8-.3,4.2-1.7,8.2-1.4,12.4.1,1.9.7,3.9,1.2,6.2,1.9Z"></path><path class="st3" d="M151.6,120.3c-.6,1.3-1.3,2.5-2.1,3.7-5.3-.1-10.2-2-15-4.2-2.8-1.3-5.6-2.8-8.4-4.2,8.5,1.2,16.6,4.5,25.5,4.7Z"></path><path class="st3" d="M157.7,103.5c-.4,1.8-.9,3.6-1.5,5.3-3-.9-5.7-2.3-8.3-4.3,2.5-1.5,5.1-2,7.8-1.5.9.2,1.5.4,2,.5Z"></path><path class="st3" d="M24.9,104.4c-2.4,1.7-4.8,3.2-7.5,4.1-.5-1.7-1-3.4-1.4-5.1,2.9-.8,5.5-.6,8.9,1Z"></path></g></g></g><g><g><g><path class="st1" d="M396.2,86.95h-.5c-.5,0-1,0-1.6.2-.3.1-.7.2-1,.2,0-.1.1-.1.1-.2s.1-.1.1-.2c.2-.5.5-1.1.7-1.6.1-.2.2-.2.3-.2h.2c.4.3.8.7,1.1,1,.2.1.3.3.4.5,0,0,.1.1.1.2,0,0,.1,0,.1.1Z"></path><path class="st1" d="M404.7,85.25c0,.4-.1.8-.2,1.3s-.3,1.1-.5,1.6c-.2.6-.4,1.1-.5,1.7-.2.5-.2,1.1-.3,1.5v.6c-.6-.1-1.1-.3-1.5-.4-.5-.2-.8-.5-1.2-.9-.3-.3-.3-.7-.2-1.3.2-.6.5-1.2.7-1.5.3-.5.4-.7.3-.9l-.1-.2h-.4l-.1.1c-.8.7-1.7,1.8-2.8,3.2-1,1.4-2.1,3.4-3.3,5.8l-1.2,2.8c-.3.7-.5,1.3-.8,2-.2.7-.5,1.4-.8,2.1,0,0,0,.1-.1.2,0,0,0,.1-.1.2-.1.1-.1.2-.2.3-.1,0-.2,0-.4-.2-.2-.1-.4-.3-.6-.5s-.4-.4-.6-.6c-.2-.2-.3-.4-.4-.5s-.2-.3-.3-.5c0-.1-.1-.2-.1-.3.4-2.6,1.1-5.3,1.9-7.9.4-1.2.8-2.3,1.2-3.5q0-.1.1-.2c0-.1.1-.2.1-.2h.1c.8-.3,1.5-.5,2.3-.6.5-.1,1-.2,1.4-.2v.2s0,.1-.1.2c0,.1-.1.2-.1.4-.2.6-.4,1.1-.6,1.5-.1.3-.2.6-.3.8-.1.2-.1.4-.2.6v1.6l.7-1c.9-1.5,1.7-2.8,2.5-4h0c.1-.1.2-.2.2-.4h0c.3-.4.5-.8.8-1.1.3-.5.6-1,.9-1.3.3-.4.6-.7.8-1,.3-.3.4-.4.4-.4.2-.1.5-.2.7-.3.2-.1.4-.1.6-.1.4,0,.7.1,1,.2.4.2.7.4.9.7.4-.2.4,0,.4.4Z"></path><path class="st1" d="M397.9,87.95c0,.1-.1.2-.1.2h.1v-.2h0Z"></path></g><path class="st1" d="M416,93.15c-.1.7-.3,1.4-.5,2.1-.2.8-.6,1.7-1,2.6-.4.9-.9,1.8-1.5,2.5-.6.8-1.2,1.4-2,1.9-.7.5-1.6.8-2.5.8-.6,0-1.3-.2-1.9-.5s-1.2-.7-1.6-1.2c-.5-.5-.9-1.1-1.2-1.7s-.5-1.3-.6-1.9c-.1-.7-.1-1.4,0-2.1s.3-1.4.5-2.1c.1-.3.3-.8.5-1.4s.5-1.2.8-1.8c.3-.6.7-1.1,1-1.5s.7-.6,1-.6c.2,0,.4.1.6.1.2.1.5.3.7.5s.4.4.6.6.3.4.5.6c.1.1.2.2.2.4.1.1.1.2.1.2h-.4c-.2.2-.5.3-.7.6-.2.2-.4.4-.5.7-.7,1.2-1.3,2.5-1.7,3.9-.4,1.4-.6,2.8-.6,4.2v.3h.3c.3,0,.5,0,.8-.1.3,0,.5-.1.8-.2.8-.3,1.5-.8,2.1-1.6.6-.7,1.2-1.5,1.7-2.3.5-.9.9-1.8,1.2-2.7.3-.9.5-1.8.7-2.5.2-.9.3-1.8.2-2.7v-.6h-.3c-.5,0-1,.1-1.6.3-.5.1-1,.3-1.5.5h-.1c-.2,0-.3-.1-.5-.2-.2-.2-.5-.4-.8-.6-.2-.2-.5-.5-.7-.7s-.3-.4-.4-.5c0-.1-.1-.2-.1-.4.5-.2.9-.4,1.4-.6s1-.3,1.5-.3c.7,0,1.3.2,1.9.5s1.2.8,1.7,1.4.9,1.2,1.2,1.9.5,1.4.6,2c.2.8.2,1.5.1,2.2Z"></path><path class="st1" d="M429.9,93.15c-.1.7-.3,1.4-.5,2.1-.2.8-.6,1.7-1,2.6-.4.9-.9,1.8-1.5,2.5-.6.8-1.2,1.4-2,1.9-.7.5-1.5.8-2.5.8-.6,0-1.3-.2-1.9-.5s-1.2-.7-1.6-1.2c-.5-.5-.9-1.1-1.2-1.7-.3-.6-.5-1.3-.6-1.9-.1-.7-.1-1.4,0-2.1s.3-1.4.5-2.1c.1-.3.3-.8.5-1.4s.5-1.2.8-1.8c.3-.6.6-1.1,1-1.5.3-.4.7-.6,1-.6.2,0,.4.1.6.1.2.1.5.3.7.5s.4.4.6.6.3.4.5.6c.1.1.1.2.3.4.1.1.1.2.1.2h-.4c-.3.2-.5.3-.7.6-.2.2-.4.4-.5.7-.7,1.2-1.3,2.5-1.8,3.9-.4,1.4-.6,2.8-.6,4.2v.3h.4c.3,0,.5,0,.8-.1.3,0,.5-.1.8-.2.8-.3,1.5-.8,2.1-1.6.6-.7,1.2-1.5,1.7-2.3.5-.9.9-1.8,1.2-2.7.3-.9.6-1.8.7-2.5.2-.9.3-1.8.2-2.7v-.6h-.3c-.5,0-1,.1-1.6.3-.5.1-1,.3-1.4.5h-.1c-.2,0-.3-.1-.5-.2-.2-.2-.5-.4-.8-.6-.2-.2-.5-.5-.7-.7s-.3-.4-.4-.5c0-.1-.1-.2-.1-.4.5-.2.9-.4,1.4-.6s1-.3,1.5-.3c.7,0,1.3.2,1.9.5s1.2.8,1.7,1.4.9,1.2,1.2,1.9.5,1.4.6,2c.1.8,0,1.5-.1,2.2Z"></path><path class="st1" d="M460.8,91.15v.2c0,.1-.1.2-.1.2,0,.1-.2.4-.4.8-.3.5-.6,1.1-1,1.9s-.9,1.6-1.4,2.5-1.1,1.8-1.6,2.5c-.5.8-1.1,1.5-1.6,2.2-.5.6-.9,1-1.3,1.3-.4.2-.8.4-1.2.4s-.8-.1-1.1-.4c-.4-.3-.7-.6-1-1s-.5-.8-.6-1.1c-.2-.5-.2-.7-.2-.9,0-.3,0-.8.2-1.4.1-.6.2-1.2.3-1.9.1-.6.2-1.2.4-1.8.1-.6.2-1,.3-1.2.1-.4.2-.7.3-1,.1-.3.2-.7.3-1l.7-2-1.3,1.7c-.4.6-.8,1.1-1.2,1.7s-.7,1.1-1.1,1.7-.8,1.2-1.1,1.9c-.4.6-.8,1.2-1.1,1.9-.3.5-.6.9-.9,1.4s-.6.9-.9,1.3c-.2.1-.3.3-.5.5-.1.1-.3.2-.5.2s-.4-.1-.6-.2c-.3-.2-.5-.4-.8-.6-.2-.2-.5-.5-.7-.8-.2-.2-.3-.5-.4-.6-.2-.4-.2-.7-.1-1.1.1-.4.2-.9.3-1.3.2-.8.4-1.7.6-2.5l.6-2.5.4-1.5-1,1.2c-1.3,1.7-2.6,3.5-3.8,5.3-1.2,1.8-2.4,3.7-3.4,5.5-.1.2-.2.4-.3.5,0,.1-.1.1-.1.1-.4,0-.8-.1-1.1-.3-.3-.2-.6-.5-.9-.8-.4-.4-.7-.8-.9-1.2-.2-.4-.3-.9-.4-1.4,0-.5,0-.9.1-1.4s.2-.9.3-1.4c.1-.6.3-1.3.4-1.9.2-.6.3-1.2.5-1.8.1-.2.2-.7.5-1.4.3-.7.6-1.4.9-2.1s.7-1.4,1-1.9c.4-.7.6-.7.6-.7.2,0,.4.1.6.2.3.2.5.4.7.6s.5.5.7.7.3.4.4.6c0,.1.1.2.1.3v.1c-.4.4-.7.8-1,1.3-.2.4-.5.9-.7,1.3-.1.1-.1.3-.2.7-.1.3-.2.6-.3.9-.1.3-.2.6-.3.9-.1.3-.1.4-.2.6l-1.3,3.1,1.9-2.8c.2-.2.4-.6.7-1.2.3-.5.7-1.1,1.2-1.8l1.3-2.1c.5-.7.9-1.4,1.3-2s.8-1.1,1-1.5c.4-.5.5-.6.5-.6.3-.2.6-.3,1-.3.3,0,.6.1.9.2.3.2.6.4.9.7.3.3.5.6.7.9s.3.6.4.9.1.6,0,1.1c0,.1,0,.4-.1.8s-.1.9-.2,1.4-.2.9-.2,1.4c-.1.4-.1.7-.2.9l-.3,2,1-1.8c.1-.2.3-.6.6-1.1l1-1.7c.4-.6.7-1.3,1.1-2s.8-1.3,1.2-1.9c.4-.6.7-1.1,1-1.5.4-.5.6-.6.7-.7.4-.2.7-.3,1-.3s.6.1.9.3c.3.2.7.4,1,.7.3.3.5.6.8.9.2.3.3.6.4.9.1.4.1.8,0,1.2-.1.5-.2.9-.4,1.4-.4,1.4-.8,2.8-1.3,4.2-.5,1.4-.9,2.8-1.2,4.2-.2.7-.2,1.2-.2,1.5,0,.7.4.8.6.8.3,0,.7-.3,1.2-.9.4-.5.9-1.2,1.4-2s1-1.6,1.6-2.5c.5-.9,1.1-1.8,1.5-2.5.5-.8.9-1.4,1.2-1.9.2-.4.4-.5.4-.6.5,0,.7.1.8.2.2-.2.3-.1.3,0Z"></path><path class="st1" d="M486.1,88.35c-.1.2-.2.3-.3.5-.1.2-.3.3-.4.5l-.4.5-.3.3-.4.4-.4.4c-.5.5-1.2,1.1-2.1,1.9-.9.7-1.9,1.5-2.9,2.3s-2,1.5-3,2.2c-1,.7-1.7,1.2-2.3,1.7l.2.3.1.1.1.1c.7-.5,1.6-.9,2.5-1.3.9-.4,1.8-.6,2.5-.6h.3c.1,0,.2,0,.3.1.8.2,1.4.5,1.8.9s.6.8.7,1.3c.1.4.1.8.1,1.1v.2s-.1-.1-.2-.1c-.3-.2-.8-.3-1.6-.3s-1.6.1-2.5.3-1.7.4-2.6.7-1.7.6-2.5.9c-.8.3-1.6.7-2.2,1h-.1v.1c-.1,0-.2.1-.3.1-.2,0-.5-.1-.7-.3-.3-.2-.6-.4-.7-.6-.1-.1-.2-.2-.3-.4s-.3-.4-.4-.5c-.1-.2-.2-.4-.2-.5s0-.2.1-.3c.4-.4.8-.8,1.1-1.2.4-.4.8-.8,1.3-1.2.4-.4.9-.9,1.5-1.4s1.3-1.1,1.9-1.7c.7-.6,1.4-1.2,2-1.7.7-.6,1.3-1.1,1.9-1.6s1-.9,1.4-1.2c.4-.3.6-.5.7-.6l-.1-.1-.2-.3-.1-.1c-.1.1-.3.2-.8.3-.5.1-1,.2-1.5.3-.5.1-1.1.2-1.6.2s-.9.1-1.2.1c-.6,0-1.2-.1-1.7-.3-.5-.2-1-.5-1.5-.9-.4-.4-.8-.8-1-1.4-.2-.4-.3-.8-.3-1.2.2.1.4.1.8.2s.9.2,1.6.3c.6.1,1.4.2,2.3.2.5,0,1.1,0,1.8-.1.6-.1,1.3-.2,2-.3.6-.1,1.2-.3,1.8-.7.6-.3,1.1-.5,1.6-.7.3-.1.7-.2,1-.3.3-.1.6-.1,1-.2.4,0,.7.1,1,.3.3.2.6.5.9.8.2.2.4.5.6.9.1.1.1.4-.1.6Z"></path><path class="st1" d="M550.1,82.65c-.1-.2-.2-.3-.3-.4-.1-.2-.2-.3-.4-.5s-.4-.4-.6-.5c-.2-.2-.4-.3-.6-.5-.2-.1-.3-.2-.5-.2-.5,0-1-.1-1.5-.1s-1-.1-1.5-.1l-.6-.1.3-.5c.2-.3.4-.6.7-.9.3-.4.5-.7.9-1.1.3-.3.6-.7,1-1,.3-.3.6-.5.9-.7v-.1q0-.1-.1-.2c0-.1-.1-.1-.1-.2-.1-.1-.2-.3-.4-.5-.2-.3-.4-.5-.7-.7-.2-.2-.5-.4-.8-.5-.2-.1-.4-.2-.6-.2-.1,0-.4.1-1.1.7-.5.5-1.1,1.2-1.6,1.9-.6.8-1.1,1.5-1.6,2.2l-1,1.5-.1.2h-.2c-1.5,0-3,.1-4.4.2-1.5.1-3,.3-4.4.4v.1c0,.2.2.5.4.8s.5.5.7.8c.3.2.6.4.9.6.3.1.5.2.7.2.7-.1,1.4-.2,2.1-.2.7-.1,1.4-.1,2.2-.2h.6l-.3.5c-1.2,2.3-2.3,4.7-3.3,7.3-.3.9-.6,1.8-.9,2.7-.1.3-.2.6-.2.8-.1.3-.2.5-.2.8-.1.2-.2.4-.3.6h0c0,.1-.1.3-.2.4,0,0-.1.1-.1.2-.4.8-.9,1.6-1.3,2.3-.5.8-.9,1.4-1.3,1.9-.5.6-.8.9-1.2.9-.8,0-.8-1.1-.8-1.5,0-.8.2-2.1.6-4.1.1-.6.3-1.2.5-1.8l.6-1.7c.1-.4.2-.9.3-1.4.1-.4.1-.9.1-1.3,0-.3-.1-.7-.3-1.2-.3-.5-.6-.9-1-1.3s-.8-.8-1.3-1c-.4-.3-.8-.4-1.2-.4-.3,0-.6.1-.8.2-.3.2-.5.4-.8.6-.2.2-.5.5-.7.7-.1.1-.2.3-.6.8-.3.4-.7,1-1.1,1.6l-1.3,2c-.5.7-.9,1.4-1.4,2.1s-.9,1.3-1.2,1.8c-.4.5-.7,1-.9,1.2l-1.2,1.4.6-1.8c.2-.7.5-1.5.8-2.3.3-.9.6-1.8.9-2.7.3-1,.7-1.9,1-2.8.3-.8.7-1.6,1-2.3.2-.4.4-.9.7-1.4l.1-.2c.3-.6.7-1.3,1.1-2.1.4-.7.9-1.5,1.3-2.3.5-.8,1-1.5,1.5-2.1s1-1.2,1.6-1.7c.5-.5,1.1-.8,1.6-1h.4c0-.1-.2-.3-.4-.6-.2-.3-.5-.6-.8-.9s-.6-.5-.9-.7c-.3-.2-.5-.3-.7-.3-.4,0-.9.2-1.4.6s-1,1-1.6,1.6c-.5.6-1,1.3-1.4,1.9s-.7,1.1-1,1.5c-.9,1.5-1.8,3.2-2.7,5s-1.7,3.7-2.4,5.6c-.3.8-.5,1.5-.8,2.3h0c-.1.1-.1.3-.1.4s-.1.3-.1.4c-.1.1-.2.2-.3.4-.1.1-.2.2-.2.3-.2.2-.4.5-.6.8-.7.8-1.4,1.7-2.2,2.5-.8.9-1.6,1.7-2.4,2.5s-1.5,1.4-2.2,1.9c-.8.6-1.3.8-1.8.8-.2,0-.4,0-.5-.2-.5-.4-.8-.9-.8-1.6,0-.6,0-1.2.2-1.9s.4-1.4.7-2.1c.3-.7.6-1.4,1-2s.7-1.2,1-1.6c.3-.5.5-.8.7-1l.2-.2.2-.2c.1-.2.3-.3.5-.5l.3-.3.2.4c.1.2.2.4.4.7.2.2.4.5.6.7s.5.4.7.5.4.2.6.2v-.1l-.1-.3c0-.1,0-.2-.1-.3v-.3l.1-.1.3-.3.2-.2.1-.3c.1-.2.1-.3.1-.5v-.6c0-.3-.1-.7-.3-1-.2-.4-.5-.8-.8-1.2-.3-.3-.7-.7-1-.9-.3-.2-.7-.3-1-.3s-.7.1-1.1.3c-.4.2-.8.4-1.1.6-1,.8-1.9,1.7-2.5,2.8-.7,1.1-1.3,2.2-1.8,3.3-.2.4-.3.8-.5,1.2h0c0,.1-.1.2-.1.4-.1.3-.2.5-.3.8h0c0,.2-.1.4-.1.6-.1.2-.2.3-.3.5-.1.1-.1.3-.2.4h0c-.1.2-.2.3-.3.5-.5.9-1,1.7-1.5,2.3-.5.7-1,1-1.4,1-.3,0-.5-.2-.8-.5-.2-.5-.3-1.1-.3-1.9s.2-1.6.4-2.5c.2-.9.4-1.8.7-2.7.3-.9.5-1.7.8-2.5.3-.7.5-1.3.7-1.8.2-.4.2-.6.2-.7.1-.2,0-.5-.3-.7-.3-.3-.6-.5-1-.7s-.8-.3-1.1-.5c-.3-.1-.4-.1-.5-.1l-.1.3-.1.2c0,.2-.1.4-.2.6s-.1.4-.2.5l-.2.4-.3-.3c-.4-.4-.9-.8-1.5-1.1-.5-.3-1-.5-1.7-.5-.6,0-1.2.2-1.8.5-.6.3-1.2.8-1.6,1.4-.5.6-1,1.3-1.4,2-.4.8-.8,1.5-1.1,2.3-.3.8-.6,1.5-.8,2.2-.2.7-.4,1.3-.5,1.9-.1.5-.1,1-.2,1.5,0,.5,0,.9.2,1.4.1.3.3.7.6,1.1.3.4.6.8,1,1.2.4.3.8.6,1.2.9.4.2.7.4,1.1.4.1,0,.3-.1.8-.6.4-.5.8-1,1.2-1.6.4-.6.8-1.2,1.1-1.8.4-.6.6-1,.8-1.2l.5-.6.1.8c.1.3.1.7,0,1.1,0,.3,0,.7.1,1.1.1.4.3.7.4,1.1.2.3.4.6.7.9.3.2.6.5.9.7s.7.2,1,.2c.6,0,1.3-.3,1.9-.8s1.3-1.3,1.9-2.1c.2-.3.5-.7.7-1,.1,0,.1-.1.1-.2s.1-.1.1-.2q0,.1.1.2h0v.2c0,.1.1.2.1.4.1.4.3.8.6,1.2.2.4.5.8.9,1.1.3.3.7.6,1.1.8s.8.3,1.2.3c.6,0,1.4-.3,2.2-.8.8-.5,1.7-1.3,2.6-2.1.9-.9,1.8-1.8,2.6-2.8.4-.5.8-.9,1.1-1.4.1-.1.2-.2.2-.3.1-.1.2-.2.2-.3,0,.2-.1.3-.1.5,0,.1-.1.2-.1.4-.4,1.6-.7,3.1-.9,4.6,0,0,0,.1.1.3l.3.4c0,.1.2.2.4.4s.4.4.7.7c.2.2.5.4.7.6.2.1.3.2.3.2.4-.4.8-.7,1.1-1.1.4-.4.7-.9,1.1-1.3,1-1.2,2-2.5,3-3.7s1.9-2.5,2.9-3.7,2-2.4,3.1-3.6l.1-.1.9-.9-.4,1.3c-.3,1-.5,1.9-.8,2.8-.2.9-.5,1.9-.6,2.8-.1.4-.1.8-.1,1.2-.1.5-.1.9-.1,1.4s0,.9.1,1.3c0,.4.1.8.2,1.1.2.5.6,1,1.1,1.5s1,.7,1.5.7,1.1-.2,1.6-.7c.6-.5,1.2-1.2,1.8-2,0-.1.1-.1.1-.2.1-.1.1-.2.2-.3h0c.1-.1.1-.2.2-.3v1.2c0,.8.1,1.7.2,2.5.2.9.5,1.7,1.1,2.4.5.7,1.2,1.3,1.9,1.8.1,0,.2.1.4.2.1.1.2.1.3.1v-.1c-.1-.2-.2-.4-.3-.6-.1-.2-.3-.4-.5-.6h0v-.1c-.1-.2-.1-.3-.1-.5-.1-.2-.1-.3-.1-.4h0v.1-.6c-.1-.6-.1-1.1,0-1.7,0-1.6.3-3.4.8-5.2s1-3.6,1.7-5.3c.7-1.8,1.4-3.5,2.3-5.2.8-1.6,1.6-3.1,2.5-4.5l.1-.2h.2c2.4,0,4.8.1,7.2.3h.2c0-.1,0-.2-.1-.3ZM495.5,89.05c-.7,2.1-1.4,3.8-2.2,5.1-.8,1.3-1.6,2.4-2.4,3.1-.8.8-1.4,1.3-1.9,1.6-.7.4-.8.5-.8.6l-.8.7.2-1c.1-.5.3-1.2.5-1.9.2-.7.5-1.4.8-2.2.3-.8.7-1.5,1.1-2.3s.9-1.4,1.4-2,1.1-1.1,1.7-1.5,1.4-.6,2.1-.7h.5l-.2.5Z"></path><path class="st1" d="M396,77.65c0-.2-.1-.3-.1-.4-.1-.2-.2-.5-.4-.7-.2-.2-.4-.5-.6-.7-.3-.2-.5-.4-.7-.6s-.5-.2-.7-.2-.6.1-1.2.7c-.5.5-1,1.2-1.6,1.9-.5.8-1.1,1.7-1.6,2.6s-1,1.8-1.5,2.8c-.5.9-.8,1.6-1.2,2.3v.1c-.3.6-.6,1.2-.8,1.6l-.2.4-.1-.4c-.1-.3-.3-.7-.5-1-.3-.3-.5-.6-.9-.8-.3-.2-.7-.4-1.1-.6-.4-.1-.7-.2-1.1-.2-.6,0-1.1.2-1.7.5s-1.2.8-1.7,1.4c-.6.6-1.1,1.2-1.6,1.9-.6.8-1,1.5-1.4,2.2s-.8,1.5-1.1,2.1c-.3.7-.6,1.3-.8,1.8-.3.7-.5,1.5-.7,2.3s-.3,1.5-.2,2.3c.1.5.2.9.4,1.4.2.5.5.9.9,1.4s.8.8,1.2,1c.4.3.9.4,1.4.4s1-.1,1.5-.4c.5-.3,1-.7,1.5-1.1.5-.4.9-.9,1.4-1.4.4-.5.8-.9,1-1.3l.3-.5-.1.6v1.2c-.1.9-.1,1.7-.1,2.5,0,.9.1,1.7.3,2.5.2.9.6,1.7,1,2.5.5.8,1.1,1.4,1.9,1.9.3.2.6.3.9.3.1,0,.2-.1.2-.2v-.3c0-.3-.2-.6-.3-.9-.2-.3-.4-.5-.7-.8h0q0-.1-.1-.2s0-.1-.1-.2h0c-.1-.5-.1-1-.2-1.6-.1-.5-.1-1-.1-1.6.1-1.8.4-3.7.9-5.8.5-2,1.1-4,1.9-6s1.6-4,2.6-5.9c.9-1.8,2-3.6,3-5.1.1-.2.3-.4.4-.7l.1-.2c.2-.2.4-.5.5-.7l.2-.2c.3-.3.5-.6.8-.9s.5-.5.8-.6c.1-.1.2-.2.1-.4ZM385.2,88.15c-.4.8-.7,1.7-1,2.6s-.6,1.8-.9,2.6c-.7,1.1-1.3,2.2-2,3.2s-1.3,1.9-1.9,2.6c-.6.7-1.2,1.3-1.8,1.8-.6.5-1.1.7-1.6.7-.3,0-.5-.1-.7-.2h0s-.1,0-.1-.1h0v-1c.1-.9.3-2,.8-3.4.5-1.3,1.1-2.5,1.8-3.8.7-1.2,1.5-2.4,2.4-3.4s1.8-1.8,2.7-2.2c.3-.1.6-.2,1.1-.2h.2c.2.2.5.3.7.3h.2l.1.5Z"></path></g><path class="st1" d="M363,101.65c0,.4,0,.8-.1,1.2-.1.5-.2.8-.3,1-.1.2-.2.6-.5,1-.2.4-.4.8-.7,1.2-.3.4-.5.7-.8,1-.3.2-.5.4-.7.4h-.3c.2-.2.4-.5.6-.9s.4-.8.4-1.3c.1-.5-.1-1.1-.4-1.6-.3-.4-.4-.8-.4-1.1,0-.4.1-.7.2-1s.3-.5.5-.7.5-.3.7-.3h.6c.5,0,.8.1,1,.3.1.2.2.5.2.8Z"></path><path class="st1" d="M241.6,91.05l-.1.2c.1-.1.1-.2.1-.2Z"></path><path class="st1" d="M271.6,93.15c-.1.7-.3,1.4-.5,2.1-.2.8-.6,1.7-1,2.6-.4.9-.9,1.8-1.5,2.5-.6.8-1.3,1.4-2,2-.7.5-1.6.7-2.5.7-.7,0-1.3-.2-1.9-.5s-1.2-.7-1.6-1.2c-.5-.5-.9-1.1-1.2-1.7,0-.1-.1-.2-.1-.3s-.1-.1-.1-.2-.1-.1-.1-.2c0,.1-.1.1-.1.2s-.1.1-.1.2c-.2.4-.5.7-.7,1.1-.6.8-1.2,1.4-1.7,2-.6.5-1.1.7-1.7.7-.5,0-1-.2-1.5-.7s-.8-1-1-1.5c-.1-.3-.2-.7-.3-1.1,0-.4-.1-.9-.1-1.3v-1.4c0-.5.1-.9.1-1.2.1-1,.3-1.9.6-2.8s.6-1.9.8-2.8l.4-1.3-.9.9-.1.1c-1,1.2-2.1,2.3-3,3.6-1,1.2-1.9,2.5-2.9,3.7s-2,2.5-3,3.7c-.3.4-.7.8-1.1,1.3-.3.4-.7.8-1.1,1.1-.1,0-.2-.1-.3-.2-.2-.2-.5-.3-.7-.6l-.7-.7c-.2-.2-.3-.4-.4-.4l-.3-.4q-.1-.2-.1-.3c.3-1.8.7-3.7,1.2-5.6.2-.7.4-1.4.6-2.1,0-.1.1-.2.1-.3,0,0,0-.1.1-.2l.4-1.3.1-.2.1-.4c.1-.5.3-1,.5-1.4.7-1.9,1.5-3.8,2.4-5.6.9-1.8,1.8-3.5,2.7-5,.2-.4.5-.9,1-1.5.4-.6.9-1.2,1.4-1.9.5-.6,1-1.1,1.6-1.6.5-.4,1-.6,1.4-.6.2,0,.4.1.7.3.3.2.6.5.9.7.3.3.5.6.8.9.2.3.3.5.4.6h-.6c-.5.1-1.1.5-1.6,1s-1,1-1.6,1.7c-.5.7-1,1.4-1.5,2.1-.5.8-.9,1.5-1.3,2.3-.4.8-.8,1.5-1.1,2.1l-.1.2c-.3.6-.5,1-.7,1.4-.3.7-.6,1.4-1,2.3s-.7,1.8-1,2.8c-.3.9-.6,1.9-.9,2.7-.3.9-.6,1.6-.8,2.3l-.6,1.8,1.2-1.4c.2-.3.5-.7.9-1.2s.8-1.1,1.2-1.8c.5-.7.9-1.3,1.4-2.1l1.3-2c.4-.6.8-1.2,1.1-1.6.4-.5.6-.7.6-.8l.7-.7c.2-.2.5-.4.8-.6.2-.1.5-.2.8-.2.4,0,.8.1,1.2.4.5.3.9.6,1.3,1,.4.4.7.9,1,1.3.2.4.4.8.4,1.2s0,.9-.1,1.3c-.1.5-.2.9-.4,1.4-.2.6-.4,1.1-.5,1.7-.2.6-.3,1.2-.5,1.8-.4,1.9-.6,3.2-.6,4.1,0,.4,0,1.5.8,1.5.3,0,.7-.3,1.2-.9.4-.5.8-1.1,1.3-1.9.3-.5.6-1,.9-1.5,0-.1.1-.2.1-.3.1-.1.1-.2.2-.4v-.4h0v-.3c0-.1,0-.2.1-.3.1-.6.2-1.2.4-1.8.1-.3.3-.8.5-1.4s.5-1.2.8-1.8c.3-.6.6-1.1,1-1.6.3-.4.7-.6,1-.6.2,0,.4.1.6.1.2.1.5.3.7.5s.4.4.6.6.3.4.5.6c.1.1.1.2.2.4,0,.1.1.2.1.2h-.4c-.3.1-.5.3-.7.6-.2.2-.4.4-.5.6-.7,1.2-1.3,2.5-1.8,3.8-.4,1.4-.6,2.8-.6,4.2v.3h.3c.3,0,.6,0,.8-.1.2-.1.5-.1.8-.2.8-.3,1.5-.8,2.1-1.6.6-.7,1.2-1.5,1.7-2.4.5-.8.9-1.7,1.2-2.7.3-.9.6-1.7.7-2.5.2-.8.3-1.7.2-2.7v-.6h-.3c-.5,0-1.1.1-1.6.2s-1,.3-1.5.5h-.1c-.1,0-.3-.1-.5-.2-.2-.2-.5-.4-.8-.6-.2-.2-.5-.5-.7-.7s-.3-.4-.4-.5c0-.1,0-.2-.1-.4h0c.5-.2.9-.4,1.4-.5.5-.2,1-.2,1.6-.2.7,0,1.3.2,1.9.5.6.4,1.2.8,1.7,1.4s.9,1.2,1.2,1.9c.3.7.5,1.4.6,2-.1.8-.1,1.5-.2,2.2Z"></path><path class="st1" d="M290.5,89.25c0-.3-.2-.5-.4-.8-.2-.3-.5-.6-.8-.9s-.7-.6-1-.9c-.4-.3-.8-.5-1.2-.7-.4-.2-.8-.2-1.1-.2-.7,0-1.4.2-2.1.7s-1.5,1.1-2.1,1.8c-.7.7-1.3,1.4-1.9,2.2-.6.8-1,1.4-1.4,2l-1.3,2,.7-2.3c.2-.7.4-1.4.6-2.1s.4-1.4.6-2c-.1-.2-.2-.3-.2-.3,0-.1-.1-.2-.4-.5-.2-.3-.5-.5-.8-.8-.3-.2-.5-.5-.8-.7-.1-.1-.2-.1-.3-.2-1.1,3.8-2.3,7.6-3.4,11.3-1.2,3.8-2.2,7.7-3.1,11.6-.2,1-.4,1.9-.5,2.9-.2,1-.3,2-.4,3,0,0,0,.1.1.2.2.2.3.3.3.4.1.1.2.3.4.5.2.2.5.4.7.7.2.2.5.4.7.6q.1.1.2.1c.6-2.8,1.5-5.5,2.5-8.1,1.1-2.7,2.3-5.4,3.6-8l.3-.5.3.5c.2.3.5.7.9,1.1.4.4.8.8,1.3,1.1.5.4,1,.7,1.4.9.5.2.9.3,1.2.3.5,0,1-.1,1.5-.3s1-.5,1.4-.9c.5-.4.9-.8,1.2-1.2.4-.5.7-.9,1-1.3.7-1.1,1.3-2.4,1.6-3.7.4-1.3.6-2.7.7-4v-2.2c.1-.6,0-1,0-1.3ZM288,90.85c-.1.9-.4,2-.7,3.1-.3,1.1-.8,2.2-1.4,3.2-.6,1-1.3,1.9-2.1,2.7-.8.8-1.8,1.3-2.9,1.6l-.6.1.1-.6c0-.1,0-.2.1-.2,0-.1,0-.2.1-.3-.1-.1-.2-.3-.2-.4-.2-.2-.4-.5-.6-.7-.3-.2-.5-.5-.8-.8l-.2-.2.1-.2c.5-.8,1-1.7,1.7-2.8.6-1,1.4-2,2.1-3,.8-1,1.6-1.9,2.4-2.7.9-.8,1.7-1.4,2.6-1.7l.4-.2v.5c.1,1,.1,1.8-.1,2.6Z"></path><g><path class="st1" d="M315.2,85.85c0-.1-.1-.2-.1-.2,0,.1,0,.2.1.2,0,0,0,.1.1.1q-.1,0-.1-.1ZM312.6,100.85c0-.1-.1-.2-.1-.2,0,0,0,.1.1.2v.1-.1ZM312.4,103.25q0,.1-.1.2c.1-.1.1-.2.1-.2.1-.1.1-.2.1-.3,0,0-.1.1-.1.3ZM312.2,100.05c-.1-.2-.3-.5-.4-.7.2.2.3.5.4.7,0,0,0,.1.1.2,0-.1,0-.2-.1-.2ZM311.8,104.25c.2-.2.4-.5.5-.7-.2.2-.4.5-.5.7ZM310.3,97.25l-.2-.3.2.3c.2.2.3.5.5.7-.2-.3-.4-.5-.5-.7ZM309.4,96.05l.2.3h0l-.2-.3ZM307.4,92.75c.1.2.2.4.3.7-.1-.3-.2-.5-.3-.7Z"></path><path class="st1" d="M315.2,85.85c0-.1-.1-.2-.1-.2,0,.1,0,.2.1.2,0,0,0,.1.1.1q-.1,0-.1-.1ZM312.6,100.85c0-.1-.1-.2-.1-.2,0,0,0,.1.1.2v.1-.1ZM312.4,103.25q0,.1-.1.2c.1-.1.1-.2.1-.2.1-.1.1-.2.1-.3,0,0-.1.1-.1.3ZM312.2,100.05c-.1-.2-.3-.5-.4-.7.2.2.3.5.4.7,0,0,0,.1.1.2,0-.1,0-.2-.1-.2ZM311.8,104.25c.2-.2.4-.5.5-.7-.2.2-.4.5-.5.7ZM310.3,97.25l-.2-.3.2.3c.2.2.3.5.5.7-.2-.3-.4-.5-.5-.7ZM309.4,96.05l.2.3h0l-.2-.3ZM307.4,92.75c.1.2.2.4.3.7-.1-.3-.2-.5-.3-.7Z"></path><path class="st1" d="M307.4,92.75c.1.2.2.4.3.7-.1-.3-.2-.5-.3-.7Z"></path><polygon class="st1" points="309.4 96.05 309.6 96.25 309.6 96.25 309.4 96.05"></polygon><path class="st1" d="M310.3,97.25c.2.2.4.5.5.7-.2-.3-.4-.5-.5-.7l-.2-.3.2.3Z"></path><path class="st1" d="M311.8,104.25c.2-.2.3-.5.5-.7-.2.2-.4.5-.5.7Z"></path><path class="st1" d="M312.3,100.25c0-.1-.1-.1-.1-.2-.1-.2-.3-.5-.4-.7.1.2.3.5.4.7.1,0,.1.1.1.2Z"></path><path class="st1" d="M312.4,103.25c.1-.1.1-.2.1-.3,0,0,0,.1-.1.3q0,.1-.1.2c.1-.1.1-.2.1-.2Z"></path><path class="st1" d="M312.6,100.85v.1-.1c0-.1-.1-.2-.1-.2,0,0,0,.1.1.2Z"></path><path class="st1" d="M315.2,85.95s0-.1-.1-.1c0-.1-.1-.2-.1-.2,0,.1.1.2.1.2l.1.1Z"></path></g><g><path class="st1" d="M316,93.05c0,.1-.1.2-.1.3,0-.1,0-.2.1-.3Z"></path><path class="st1" d="M329.3,76.25h0c-.3.2-.5.4-.8.6-.2.2-.5.5-.7.8-.8.9-1.7,2.1-2.6,3.4s-1.7,2.7-2.5,4.2-1.5,3.1-2.2,4.8c-.7,1.7-1.3,3.3-1.8,4.9s-.9,3.2-1.2,4.8c-.3,1.5-.4,3-.4,4.3v1.7c0,.1.1.3.1.4,0,.2.1.4.1.5v.1l.1.1c.3.3.6.7.8,1.1,0,0,0,.1.1.3h-.2c-.1,0-.1-.1-.2-.1-.8-.5-1.5-1.1-2.1-1.9-.6-.8-1-1.6-1.2-2.6-.2-.8-.3-1.6-.3-2.5,0-.8.1-1.7.2-2.5.2-1.8.6-3.6,1.1-5.4,0-.1,0-.2.1-.3,0-.1,0-.2.1-.3-.1.1-.2.1-.2.2-.1.1-.2.1-.2.2-.6.4-1.1.8-1.7,1.1-1.2.8-2.4,1.6-3.6,2.5l-.3.2.2.3c.2.2.4.5.5.7.2.2.4.5.5.7.2.2.3.5.5.7.1.2.3.5.4.7,0,0,.1.1.1.2.1.1.1.2.2.4,0,.1,0,.2.1.2v.2c0,.1.1.3.1.4v.4c0,.3-.1.6-.2.9,0,.1-.1.2-.1.3s0,.1-.1.2c0,0,0,.1-.1.2-.1.2-.3.5-.5.7-.1.1-.2.2-.3.4-.3.3-.8.7-1.4,1.1-.6.4-1.3.8-2,1.1s-1.4.6-2,.8c-.7.2-1.3.3-1.7.3s-.7-.1-1.1-.2c-.3-.1-.6-.4-1-.7l-.6-.5c-.2-.2-.4-.5-.5-.7-.1-.1-.1-.2-.2-.2,0-.1-.1-.2-.1-.3l.9-.1c.6-.1,1.4-.2,2.3-.5s1.8-.6,2.7-1,1.7-1,2.3-1.6c.2-.2.3-.3.5-.5s.2-.3.3-.5c.2-.4.3-.8.4-1.1,0-.2,0-.4-.1-.5,0-.1-.1-.2-.1-.2,0-.1-.1-.2-.1-.3-.1-.1-.1-.2-.2-.2,0-.1-.1-.2-.2-.2l-.1-.1q-.1-.1-.1-.2h0l-.2-.2h0l-.2.2c-1.6,1.4-3,2.7-4.2,3.8-1.3,1.1-2.3,2.1-3.1,2.8l-.6.6v-.1c0-.2,0-.4.1-.7s.3-.7.5-1c.1-.1.2-.2.3-.3.2-.3.5-.6.8-.9.3-.3.5-.5.8-.8.6-.5,1.2-1,1.7-1.6.5-.5,1-.9,1.6-1.3.5-.4,1.1-.8,1.7-1.3l.3-.2h0l-.2-.3c0-.1-.1-.1-.1-.2-.1-.1-.2-.3-.3-.4-.1-.1-.1-.2-.2-.3-.2-.4-.5-.7-.8-1.1-.1-.2-.2-.4-.4-.6-.1-.2-.2-.4-.4-.6-.2-.4-.4-.7-.6-1-.1-.2-.2-.4-.3-.6-.2-.6-.4-1.1-.4-1.6s.1-1,.3-1.5c.1-.2.1-.3.2-.5.3-.6.7-1.2,1.2-1.7s1.1-1,1.8-1.4c.7-.4,1.4-.7,2.1-.9.7-.2,1.4-.3,2-.3s1.1.1,1.5.3c.2.1.4.2.5.5.1.1.2.2.3.3q.1.1.1.2c0,.1.1.2.1.2,0,0,0,.1.1.1,0,0,0,.1.1.2l.1.3.1.2c.1.2.1.3.2.5v.3h-.1c-.6,0-1.3.1-2.1.2l-2.4.6c-.8.3-1.5.7-2.1,1.1-.3.2-.6.5-.9.8-.1.1-.2.3-.3.4-.1.2-.2.3-.3.5-.1.1-.1.3-.2.5s-.1.5,0,.9c0,.1.1.2.1.3.1.2.2.4.3.7.1.1.1.3.2.4.3.6.8,1.3,1.4,2.2l.2.3h0l.3-.2c.5-.3,1.1-.8,1.9-1.3s1.5-1,2.2-1.4c.7-.5,1.3-.9,1.9-1.3,0,0,.1,0,.1-.1.1-.1.2-.1.2-.2.1-.1.2-.1.2-.2s0-.2.1-.3c0-.1,0-.2.1-.2.1-.3.2-.5.3-.8,1-2.7,2.2-5.3,3.5-7.8.1-.2.3-.6.6-1.1.3-.5.6-1.1,1.1-1.8.4-.7.8-1.3,1.3-2.1.5-.7.9-1.3,1.4-2,.4-.5.9-1,1.2-1.4.5-.5.7-.5.8-.5s.2,0,.5.2c.2.2.5.4.7.6s.5.5.7.7.3.4.4.7c.4.4.4.5.5.6Z"></path></g><g><path class="st1" d="M325.3,99.25v.3-.3c0-.1,0-.2.1-.3,0,.2-.1.2-.1.3ZM328.6,86.55h0c.1.1.2.3.4.4-.2-.1-.3-.3-.4-.4ZM329.3,87.35l-.2-.2q.1.1.2.2c0,.1.1.1.1.2,0-.1-.1-.2-.1-.2ZM329.1,99.95c-.1.2-.2.3-.3.5.1-.2.2-.4.3-.5.1-.2.3-.3.4-.5-.1.1-.3.3-.4.5ZM329.9,88.25c-.1.2-.2.3-.3.5.1-.1.2-.3.3-.5h0ZM334.7,77.95c-.1-.1-.2-.3-.4-.6-.2-.2-.4-.5-.7-.8-.2-.2-.5-.4-.8-.6s-.4-.2-.5-.2c0,0-.1,0-.3.2-.2.3-.4.5-.6.9s-.4.7-.5,1c-.2.3-.3.5-.3.7-.2.6-.4,1.2-.6,1.7s-.3,1.1-.5,1.7c0,0,0,.1.1.2.1.2.2.4.3.6,0,.1.2.2.4.4.2.2.4.4.6.6s.5.4.7.5.3.2.4.2c.2-1,.5-2.1.9-3.2.5-1.2,1.1-2.2,1.9-2.9,0-.2,0-.3-.1-.4Z"></path><path class="st1" d="M325.3,99.25v.3-.3c0-.1,0-.2.1-.3,0,.2-.1.2-.1.3ZM328.6,86.55h0c.1.1.2.3.4.4-.2-.1-.3-.3-.4-.4ZM329.3,87.35l-.2-.2q.1.1.2.2c0,.1.1.1.1.2,0-.1-.1-.2-.1-.2ZM329.1,99.95c-.1.2-.2.3-.3.5.1-.2.2-.4.3-.5.1-.2.3-.3.4-.5-.1.1-.3.3-.4.5ZM329.9,88.25c-.1.2-.2.3-.3.5.1-.1.2-.3.3-.5h0Z"></path></g><g><path class="st1" d="M360.5,91.15v.2c0,.1-.1.2-.1.2,0,.1-.2.4-.4.8-.2.5-.6,1.1-1,1.9s-.9,1.5-1.4,2.5c-.5.9-1.1,1.8-1.6,2.5-.5.8-1.1,1.5-1.6,2.2-.5.6-.9,1-1.3,1.2-.4.3-.8.4-1.2.4s-.8-.1-1.1-.4c-.4-.3-.7-.6-1-1s-.5-.8-.6-1.1c-.2-.5-.2-.8-.2-.9,0-.3,0-.8.1-1.4.1-.6.2-1.2.3-1.8.1-.6.2-1.2.3-1.8.1-.6.2-1,.3-1.2.1-.4.2-.7.3-1,.1-.3.2-.7.3-1l.7-2-1.3,1.7c-.4.6-.8,1.1-1.2,1.7-.4.6-.7,1.1-1.1,1.7s-.8,1.3-1.1,1.9c-.4.6-.8,1.2-1.1,1.9-.3.5-.6.9-.9,1.4-.3.4-.6.9-.9,1.3-.1.1-.3.3-.5.5-.1.1-.3.2-.5.2s-.4-.1-.6-.2c-.3-.2-.5-.4-.8-.6-.2-.3-.5-.5-.7-.8-.2-.2-.3-.5-.4-.6-.1-.4-.2-.7-.1-1.1.1-.4.2-.9.2-1.3.2-.8.4-1.7.6-2.5l.6-2.6.4-1.5-1,1.2c-1.4,1.7-2.7,3.5-3.8,5.4-1.2,1.8-2.4,3.7-3.4,5.5-.1.2-.2.4-.3.5,0,.1-.1.1-.1.1-.4,0-.8-.1-1.1-.3-.3-.2-.6-.5-1-.9s-.7-.8-.9-1.2c-.2-.4-.3-.9-.4-1.4v-1.1c-.1.1-.1.2-.2.3s-.1.2-.2.3c-.1.2-.2.4-.4.6-.1.2-.2.4-.4.5-.1.2-.2.3-.3.5-.1.2-.2.3-.3.5-.1.1-.2.2-.3.4-.1.2-.2.3-.4.4-.1.2-.3.3-.4.5-.6.6-1,.8-1.2.8-.4,0-.8-.1-1.2-.3-.4-.2-.7-.4-1-.8-.3-.3-.6-.7-.8-1-.2-.4-.3-.8-.4-1.2s-.1-.8-.1-1.2,0-.9.1-1.2c.1-.5.2-1,.3-1.5.1-.5.3-1,.4-1.5.3-1,.7-2.1,1.1-3.1.1-.3.2-.5.3-.8.2-.5.5-1,.7-1.5.1-.2.2-.5.4-.7.5-.9,1-1.8,1.4-2.5.1,0,.2.1.4.2.2.2.5.4.8.7.1.1.2.3.4.4l.2.2.2.2c0,.1.1.1.2.2.1.2.2.3.3.4,0,.1.1.2.1.3v.1c-.1.2-.2.3-.3.5-.3.5-.7,1.1-1.1,1.8-.5.9-1,1.9-1.4,2.9s-.8,2-1.2,3c-.2.8-.5,1.5-.6,2.2v.3c0,.1,0,.2-.1.3v.3c0,.4-.1.7,0,.9v.3s0,.1.1.1c0,0,0,.1.1.1.1.1.3.2.5.2h.2c.2-.1.5-.3.9-.6q.1-.1.2-.2t.2-.2c.2-.2.4-.4.5-.7.2-.3.5-.7.8-1,.1-.2.3-.4.4-.6.3-.4.5-.8.8-1.2.1-.2.3-.4.4-.6,0-.1.1-.1.1-.2s.1-.1.1-.2.1-.1.1-.2.1-.1.1-.2c.1-.2.2-.3.3-.5h0v-.1c.1-.2.1-.4.2-.6s.1-.5.2-.7h0c0-.2.1-.3.1-.5.1-.2.2-.7.5-1.3.3-.7.6-1.4.9-2.1s.7-1.4,1-1.9c.4-.7.6-.7.6-.7.2,0,.4.1.6.2.2.2.5.4.7.6.3.2.5.5.7.7s.3.4.4.6c0,.1.1.2.1.3v.1c-.4.4-.7.8-1,1.3-.2.4-.5.9-.7,1.3,0,.1-.1.3-.2.6-.1.3-.2.6-.2.9-.1.3-.2.6-.3.9-.1.2-.1.4-.2.5l-1.3,3.1,1.9-2.8c.2-.2.4-.6.7-1.2.3-.5.7-1.1,1.2-1.8l1.3-2c.5-.7.9-1.4,1.3-2s.7-1.1,1-1.5.5-.6.5-.6c.3-.2.6-.3,1-.3.3,0,.6.1.9.2.3.2.6.4.9.7.3.2.5.6.7.9.2.4.3.6.4.9.1.2.1.6,0,1.1,0,.1,0,.4-.1.8s-.1.9-.2,1.4-.1.9-.2,1.4c-.1.4-.1.7-.1.9l-.3,2,1-1.8c.1-.2.3-.6.6-1.1l1-1.7c.4-.6.8-1.3,1.1-2,.4-.7.8-1.3,1.2-1.9.4-.6.7-1.1,1-1.5.4-.5.6-.6.7-.7.4-.2.7-.3,1-.3s.6.1.9.2c.3.2.7.4,1,.7.3.3.5.6.8.9.2.3.3.6.4.9.1.4.1.8,0,1.3s-.2.9-.4,1.3c-.4,1.4-.8,2.8-1.3,4.2-.5,1.4-.9,2.8-1.2,4.2-.2.7-.2,1.2-.2,1.5,0,.7.4.8.6.8.3,0,.7-.3,1.2-.9.4-.5.8-1.2,1.3-2s1-1.6,1.6-2.5c.5-.9,1.1-1.7,1.5-2.5.5-.8.8-1.4,1.2-1.9.2-.4.4-.5.4-.6.5.1.7.1.8.2.5-.2.6-.1.6,0Z"></path><path class="st1" d="M325.4,99.05v.6-.3c-.1-.2,0-.2,0-.3Z"></path><path class="st1" d="M328.9,86.95c-.1-.1-.2-.3-.4-.4h0c.2.1.3.3.4.4Z"></path><path class="st1" d="M329.4,87.55c0-.1-.1-.1-.2-.2l-.2-.2.2.2c.1,0,.2.1.2.2Z"></path><path class="st1" d="M329.5,99.45c-.1.2-.2.4-.4.5-.1.2-.2.3-.4.5.1-.1.2-.3.3-.5.2-.2.4-.4.5-.5Z"></path><path class="st1" d="M329.9,88.25c-.1.2-.2.3-.3.5.1-.1.2-.3.3-.5h0Z"></path></g><path class="st1" d="M242.8,73.15v.2c-.1.2-.1.4-.2.6-.3,1.4-.8,2.8-1.5,4.1-.7,1.4-1.4,2.7-2.2,3.8-.1.2-.3.4-.4.6l-.1.1c-.2.3-.4.5-.6.7-.3.2-.5.4-.8.6-.2.1-.5.2-.8.2s-.6-.1-.9-.2c-.3-.2-.6-.4-.9-.6-.3-.2-.5-.5-.7-.9-.2-.3-.4-.6-.5-.9,0-.1-.1-.3-.1-.4s0-.2.1-.3c.1-.1.2-.1.3-.1.3,0,.6.1.8.2h.1l.1-.1c.5-.4,1-1,1.5-1.7s1-1.5,1.4-2.3.8-1.7,1.1-2.4c.3-.8.6-1.5.8-2.1l.1-.2-.2.1c-.9.2-2,.5-3.3,1-1.2.5-2.5,1-3.8,1.7s-2.6,1.4-3.8,2.2c-1.2.8-2.4,1.7-3.3,2.7-1,.9-1.8,1.9-2.4,3-.6,1-.9,2.1-.9,3.1v1.2h0v.1h0v.1h0l.1.1v.2h.1s0,.1.1.1c.4.3.8.6,1.4.9.6.3,1.2.5,1.9.7.6.2,1.2.4,2,.6.7.2,1.2.3,1.6.3.4.1.8.2,1.2.3h.1c.3.1.7.1,1,.2.6.1,1.3.3,2,.5.6.2,1.2.4,1.7.7.5.3,1,.7,1.4,1.2s.8,1.1,1,1.8c.2.5.3,1,.3,1.4s-.1,1-.2,1.5c-.2.9-.7,1.8-1.3,2.6s-1.4,1.5-2.2,2.2-1.7,1.2-2.6,1.8c-.8.5-1.7.9-2.6,1.3-.5.2-1.1.5-1.8.7-.7.3-1.5.6-2.4.9-.8.3-1.7.5-2.5.7s-1.4.3-1.8.3-.8-.1-1.1-.2c-.4-.1-.7-.3-1-.5s-.6-.5-.9-.8c-.3-.3-.5-.7-.6-1-.1-.1-.1-.3-.2-.5,0-.2-.1-.3-.1-.5,0-.1,0-.2.1-.3s.2-.1.4-.1.4.1.7.3.5.4.6.5h.7c.2,0,.3-.1.5-.1,1-.3,2-.6,2.9-.8,1-.3,2-.7,3.2-1.1,1-.4,2.1-.9,3.2-1.5,1-.5,2-1.2,2.8-1.8.8-.7,1.6-1.4,2.1-2.3.6-.8,1-1.8,1.1-2.8v-.4h-.5c-.1,0-.2,0-.4-.1h-.1c-.7-.2-1.4-.3-2.1-.5-.7-.1-1.5-.3-2.1-.5-.8-.2-1.6-.4-2.4-.6-.8-.2-1.6-.5-2.4-.8-.7-.3-1.5-.7-2.2-1.2s-1.3-1-1.8-1.6-1-1.3-1.4-2c-.3-.7-.6-1.5-.6-2.3-.1-1,.1-2,.4-2.9.4-1,.9-1.9,1.5-2.7.7-.8,1.4-1.6,2.2-2.3.8-.8,1.9-1.6,3.3-2.5,1.3-.9,2.7-1.7,4.2-2.5,1.5-.7,3-1.4,4.4-1.8,1.5-.5,2.7-.7,3.8-.7.4,0,.9.1,1.4.2.5.2.9.4,1.3.7.4.3.8.7,1,1.1.3.4.4.9.4,1.3.4-.1.4.2.3.5Z"></path></g><g><path class="st0" d="M236.5,37.35h-3.3v16.3c0,1.2.5,2,1.5,2.5s2.7.9,5.2,1.2c.7.1,1.1.6,1.1,1.6,0,.4-.1.9-.2,1.4-1.5-.1-3.4-.2-5.6-.3-2.3-.1-4.7-.1-7.4-.1-1.9,0-3.7,0-5.4.1s-3.4.2-4.9.3c-.1-.2-.2-.4-.2-.7v-.6c0-.9.3-1.4.9-1.5,1.1-.2,2-.4,2.6-.6.7-.2,1.2-.4,1.6-.6.4-.2.6-.5.7-.9.1-.3.2-.8.2-1.3V15.15c0-1-.4-1.8-1.1-2.3-.8-.5-2.2-.8-4.3-1.1-.3-.1-.5-.3-.6-.5-.2-.2-.2-.6-.2-1.1v-.7c0-.3.1-.5.2-.6,1.5.1,3.1.2,5,.3s3.6.1,5.1.1h11.8c2.8,0,5.2.3,7.4,1s4,1.6,5.6,2.9c1.5,1.2,2.7,2.7,3.5,4.4.8,1.7,1.2,3.6,1.2,5.7,0,2.8-.8,5.3-2.5,7.5-1.7,2.3-4,4-7,5.1l12.2,17.8c.9,1.4,2,2.3,3.2,2.8s2.3.9,3.4,1.2c.3.1.5.2.6.4.2.2.2.5.2,1v.7c0,.3-.1.5-.2.8-.6-.1-1.4-.1-2.4-.1s-2.1-.1-3.2-.1c-1.1-.1-2.2-.1-3.3-.1h-2.8c-1.1,0-2.2-.5-3.3-1.4s-2.2-2.1-3.2-3.6l-12.1-17.9ZM235.5,33.45c1.6,0,3.1-.2,4.4-.5,1.3-.3,2.4-.8,3.3-1.6.9-.8,1.6-1.8,2.1-3s.7-2.8.7-4.8c0-3.2-.8-5.8-2.3-7.6-1.6-1.9-4.3-2.8-8.3-2.8h-2.3v20.3s2.4,0,2.4,0Z"></path><path class="st0" d="M320.5,40.65c0,3-.3,5.7-.9,8.1-.6,2.5-1.7,4.6-3.2,6.4s-3.6,3.2-6.2,4.2-5.8,1.5-9.7,1.5c-4.6,0-8.3-.5-11.2-1.6-2.8-1-5-2.5-6.5-4.2-1.5-1.8-2.6-3.9-3.1-6.3s-.8-5-.8-7.8V15.15c0-1.1-.3-1.9-1-2.3-.7-.4-2.1-.8-4.1-1.1-.6-.1-.9-.6-.9-1.5v-.6c0-.3.1-.5.2-.8,1.5.1,3.1.2,4.8.3,1.7.1,3.7.1,6,.1,1.8,0,3.7,0,5.7-.1s3.7-.2,5.3-.3c.1.3.1.5.1.8v.6c0,.9-.3,1.4-.9,1.5-2.1.3-3.6.6-4.3,1.1-.8.5-1.1,1.2-1.1,2.3v24.1c0,5.4,1,9.5,3,12.3s5.4,4.2,10.3,4.2,8.5-1.3,10.6-3.9,3.2-6.9,3.2-12.8V15.15c0-1-.4-1.8-1.1-2.3s-2.1-.8-4.1-1.1c-.6-.2-.9-.6-.9-1.5v-.6c0-.3.1-.5.1-.8,1.5.2,2.9.3,4.2.3,1.3.1,2.6.1,4.1.1,1.7,0,3.1,0,4.4-.1s2.6-.2,3.8-.3c.1.3.1.5.1.8v.6c0,.8-.3,1.3-.9,1.5-1.9.2-3.2.6-4,1.1-.7.5-1.1,1.3-1.1,2.3v25.5h.1Z"></path><path class="st0" d="M356.1,38.65v15c0,1.2.5,2,1.5,2.5s2.7.9,5.2,1.2c.7.1,1.1.6,1.1,1.6,0,.4-.1.9-.2,1.4-1.5-.1-3.4-.2-5.6-.3-2.3-.1-4.7-.1-7.4-.1-1.9,0-3.7,0-5.4.1-1.7.1-3.4.2-4.9.3-.1-.2-.2-.4-.2-.7v-.6c0-.9.3-1.4.9-1.5,1.1-.2,2-.4,2.6-.6.7-.2,1.2-.4,1.6-.6s.6-.5.7-.9c.1-.3.2-.8.2-1.3V15.15c0-1-.4-1.8-1.1-2.3-.8-.5-2.2-.8-4.3-1.1-.3-.1-.5-.3-.6-.5-.2-.2-.2-.6-.2-1.1v-.7c0-.3.1-.5.2-.6,1.5.1,3.1.2,5,.3s3.6.1,5.1.1h11.7c5.6,0,9.9,1.2,13,3.7s4.7,6,4.7,10.4c0,2-.4,4-1.2,5.8-.8,1.8-1.9,3.5-3.5,4.8-1.5,1.4-3.4,2.5-5.6,3.3s-4.7,1.2-7.5,1.2h-5.8v.2ZM358.4,34.75c3.2,0,5.7-.8,7.7-2.4,1.9-1.6,2.9-4.3,2.9-8.2,0-3.5-.8-6.2-2.3-8.1s-4.3-2.9-8.3-2.9h-2.3v21.6s2.3,0,2.3,0Z"></path><path class="st0" d="M392.9,34.55c0-3.6.7-7,2.1-10.2s3.3-5.9,5.6-8.3c2.4-2.4,5.2-4.3,8.4-5.6,3.2-1.4,6.6-2.1,10.2-2.1s7.2.7,10.4,1.9c3.2,1.3,6,3.1,8.4,5.5,2.4,2.3,4.2,5.1,5.6,8.3,1.3,3.2,2,6.7,2,10.5,0,3.6-.7,7-2.1,10.2s-3.3,6-5.6,8.3c-2.4,2.4-5.2,4.2-8.4,5.6-3.2,1.4-6.6,2.1-10.3,2.1s-7.2-.6-10.4-1.9c-3.2-1.3-6-3.1-8.3-5.5s-4.2-5.1-5.5-8.3c-1.4-3.1-2.1-6.6-2.1-10.5ZM420.4,56.75c2.2,0,4.2-.5,5.9-1.4,1.8-1,3.3-2.3,4.6-3.9,1.3-1.7,2.3-3.6,3-5.8.7-2.2,1.1-4.6,1.1-7.2,0-3.7-.4-7.1-1.1-10.3s-1.8-5.9-3.2-8.2c-1.4-2.3-3.2-4.1-5.4-5.5-2.2-1.3-4.7-2-7.5-2-1.8,0-3.6.4-5.3,1.2-1.7.8-3.2,2-4.5,3.5s-2.3,3.4-3.1,5.6c-.8,2.2-1.2,4.6-1.2,7.4,0,3.8.4,7.4,1.1,10.7.8,3.3,1.8,6.1,3.3,8.5,1.4,2.4,3.2,4.2,5.3,5.5,2,1.3,4.4,1.9,7,1.9Z"></path><path class="st0" d="M492,21.85c-.5.2-1,.2-1.5.2-.7,0-1.2-.1-1.6-.4-.3-.3-.5-.6-.6-.9-1.2-3-2.7-5.1-4.6-6.4-1.9-1.3-4.4-1.9-7.6-1.9-2.5,0-4.6.6-6.3,1.8-1.7,1.2-2.6,3.1-2.6,5.6,0,1.9.7,3.5,2,4.6s3,2.2,5,3.1c2,.9,4.2,1.7,6.5,2.6,2.3.8,4.5,1.9,6.5,3.1s3.7,2.8,5,4.8c1.3,1.9,2,4.4,2,7.4,0,2-.3,3.9-1,5.8s-1.7,3.5-3.2,4.9-3.3,2.6-5.5,3.4c-2.2.9-4.9,1.3-8,1.3-3.4,0-6.5-.4-9.2-1.1s-4.9-1.5-6.7-2.4c-.2-2.2-.4-4.4-.7-6.6-.3-2.2-.7-4.2-1.1-6.3.5-.2,1.1-.3,1.8-.3.6,0,1.1.1,1.4.4s.6.6.8,1.2c.7,2,1.4,3.7,2.3,5.1.8,1.4,1.8,2.6,2.9,3.5s2.3,1.6,3.8,2c1.4.4,3.1.6,4.9.6,1.6,0,3-.2,4.1-.7,1.1-.4,2.1-1,2.8-1.8.7-.7,1.3-1.6,1.6-2.6.4-1,.5-2,.5-3,0-2.2-.6-4-1.9-5.3s-2.9-2.3-4.8-3.2-3.9-1.7-6.2-2.4c-2.2-.8-4.3-1.7-6.2-2.9-1.9-1.2-3.5-2.7-4.8-4.5s-1.9-4.3-1.9-7.5c0-2.1.4-4,1.1-5.8.8-1.8,1.9-3.4,3.3-4.7,1.5-1.3,3.2-2.4,5.3-3.2,2.1-.8,4.4-1.2,7-1.2,2.2,0,4.4.2,6.6.7s4.7,1.2,7.5,2.3c.1,1.6.3,3.3.5,5.3.2,2.1.5,3.9.8,5.4Z"></path><path class="st0" d="M524.2,13.15v18.8h11c1,0,1.7-.4,2-1.2.4-.8.7-2.1.9-3.9.1-.4.2-.7.5-.8s.6-.2,1-.2h.7c.3,0,.6.1.7.1-.1,1.2-.2,2.6-.3,4.2-.1,1.6-.1,2.9-.1,4,0,.9,0,2,.1,3.3s.2,2.7.3,4.3c-.2.1-.4.2-.7.2h-.7c-.9,0-1.4-.4-1.5-1.1-.3-2-.7-3.3-1.1-4s-1-1.1-1.9-1.1h-11v17.4c0,1.1.7,1.8,2,2.2,1.4.4,3.6.5,6.9.5h3.3c1.6,0,2.9-.2,3.9-.6,1.1-.4,2-1,2.8-1.8s1.6-1.6,2.2-2.6,1.2-2.1,1.9-3.4c.2-.4.5-.5,1.1-.5.3,0,.6.1.9.2.4.2.7.3,1.1.5-.1.4-.2.8-.4,1.2-.1.4-.2.7-.4,1.1-.3.6-.5,1.2-.6,1.9-.2.7-.3,1.2-.5,1.6-.1.5-.2,1.1-.4,1.8-.1.6-.3,1.3-.4,1.9-.1.6-.3,1.1-.4,1.6-.1.5-.2.8-.3.9-.2.4-.6.6-1.2.6-.4,0-1,0-1.8-.1s-1.6-.1-2.5-.1-1.8-.1-2.8-.1c-.9-.1-1.7-.1-2.4-.1h-17.7c-1.5,0-3.2,0-5.2.1-1.9.1-3.7.2-5.3.3-.1-.2-.2-.5-.2-.8v-.7c0-.8.3-1.2.8-1.2,2-.4,3.4-.8,4.2-1.2.9-.4,1.3-1.1,1.3-2.2V15.15c0-.5-.1-.9-.2-1.3-.2-.3-.5-.6-.9-.9-.4-.2-1-.4-1.7-.6-.7-.2-1.6-.4-2.7-.6-.5-.2-.8-.6-.8-1.4v-.7c0-.2.1-.5.2-.7,2.2.2,4.2.3,5.9.3,1.7.1,3.2.1,4.4.1h16c2.3,0,4.3-.1,6-.2s2.8-.2,3.5-.2c.6,0,1,.2,1.2.7.2.4.3,1.2.4,2.3.1,1.1.3,2.3.5,3.5.2.9.3,1.7.5,2.6.2.8.5,1.8.9,3-.3.1-.5.2-.9.3-.3.1-.6.2-.9.2-.6,0-1-.2-1.2-.7-.6-1.4-1.2-2.5-1.8-3.5s-1.3-1.7-2-2.3c-.8-.6-1.6-1-2.6-1.3s-2.2-.4-3.6-.4h-10v-.2Z"></path></g><rect class="st1" x="216.3" y="120.8" width="152.7" height="49.14" rx="11.68" ry="11.68"></rect><g><path class="st2" d="M248.24,135.97c0,1.25-.34,2.36-1.03,3.33-.68.98-1.62,1.79-2.81,2.43.76.52,1.37,1.16,1.83,1.92.45.75.68,1.58.68,2.49,0,1.09-.33,2.16-.98,3.21-.65,1.06-1.52,1.99-2.61,2.81s-2.32,1.47-3.71,1.98-2.81.75-4.26.75c-1.57,0-2.94-.3-4.12-.89-1.18-.59-2.1-1.43-2.76-2.52.2-.6.47-1.35.8-2.25.33-.89.7-1.84,1.1-2.84.4-1,.81-1.99,1.22-2.97.41-.99.8-1.87,1.16-2.66.76-1.71,1.45-3.13,2.05-4.25s1.16-2.02,1.66-2.69c-1.11.34-2.11.73-3.02,1.16-.91.43-1.57.85-1.99,1.25-.18-.12-.37-.3-.56-.54-.19-.24-.37-.51-.54-.8-.17-.29-.31-.59-.42-.89-.11-.3-.18-.57-.2-.81.52-.36,1.2-.71,2.04-1.04.83-.33,1.75-.62,2.73-.86.99-.24,2-.43,3.03-.57s2.03-.21,2.97-.21c2.41,0,4.31.48,5.67,1.45s2.05,2.3,2.05,4.01ZM236.74,143.18c-.38-.18-.73-.45-1.06-.81-.46,1.03-.9,2.03-1.31,3.02-.41.99-.78,1.9-1.1,2.75-.32.85-.58,1.58-.78,2.2-.2.62-.31,1.08-.33,1.36.28.16.62.28,1.01.36.39.08.88.12,1.46.12,1.37,0,2.68-.19,3.92-.57,1.25-.38,2.34-.9,3.29-1.55.95-.65,1.7-1.4,2.26-2.25.56-.84.84-1.73.84-2.66,0-1.33-.57-2.28-1.72-2.87-1.57.64-3.34.97-5.31.97h-.65c-.15,0-.33-.02-.53-.06ZM242.59,132.71c-.42,0-.87.03-1.34.08-.47.05-.97.13-1.49.23.08.08.15.17.2.26.05.09.1.19.14.29-.18.24-.4.59-.66,1.06-.26.46-.55,1-.88,1.61-.32.61-.66,1.29-1.01,2.04-.35.75-.71,1.51-1.07,2.29.34-.08.76-.15,1.25-.2.49-.05.98-.08,1.46-.08.26,0,.52,0,.77.03.25.02.5.05.74.09.97-.16,1.84-.4,2.61-.71.77-.31,1.44-.67,2.01-1.09.56-.41,1-.87,1.3-1.37s.45-1.04.45-1.6c0-.97-.38-1.7-1.15-2.19-.76-.49-1.87-.74-3.32-.74Z"></path><path class="st2" d="M260.19,147.92c-.46,1.47-.93,2.81-1.39,4.01-.46,1.21-.96,2.32-1.48,3.33-.52,1.02-1.09,1.95-1.69,2.81-.6.85-1.27,1.66-1.99,2.43-.93.97-1.88,1.71-2.87,2.22-.99.51-1.97.77-2.96.77-.5,0-1-.06-1.49-.17-.49-.11-.96-.26-1.39-.45-.43-.19-.81-.41-1.15-.66-.33-.25-.57-.52-.71-.8,0-.24.14-.45.42-.63.24.22.44.39.6.51s.32.22.47.3c.15.08.31.13.48.15.17.02.37.03.59.03,1.15,0,2.27-.34,3.36-1.01,1.1-.67,2.13-1.63,3.11-2.87.98-1.24,1.87-2.74,2.67-4.5.8-1.76,1.49-3.73,2.05-5.9-.26.4-.58.89-.97,1.48-.38.58-.81,1.16-1.27,1.73-.46.57-.94,1.09-1.43,1.55-.49.46-.97.77-1.43.93-.32,0-.66-.06-1.01-.17-.35-.11-.68-.27-1-.47s-.59-.45-.83-.73c-.24-.28-.4-.61-.48-.97,0-.58.02-1.05.06-1.4.04-.35.11-.74.21-1.16.18-.76.45-1.63.8-2.6.35-.97.76-1.92,1.24-2.85.47-.94,1-1.81,1.57-2.63.57-.81,1.17-1.45,1.8-1.92.16,0,.36.02.6.05.24.03.49.08.75.17.26.08.51.18.75.29.24.11.45.26.63.44-.22.2-.7.88-1.45,2.02-.74,1.15-1.57,2.8-2.47,4.95-.1.22-.22.54-.36.97-.14.42-.28.87-.41,1.33-.13.46-.25.92-.35,1.36-.1.44-.15.79-.15,1.06,0,.16.02.28.08.36.05.08.1.14.14.18.36-.06.84-.36,1.45-.89s1.29-1.36,2.05-2.49c.48-.72.93-1.44,1.33-2.16.4-.71.8-1.43,1.19-2.16.39-.72.8-1.47,1.22-2.23s.88-1.55,1.36-2.35c.26,0,.54.03.85.09s.59.14.88.23.53.19.74.3c.21.11.37.23.47.35-.62,1.33-1.21,2.63-1.75,3.89-.54,1.27-1.03,2.56-1.45,3.89Z"></path><path class="st2" d="M282.67,150.84c0-.85.14-1.94.42-3.27.28-1.33.65-2.75,1.12-4.27-1.33.11-2.66.24-4,.41-1.34.17-2.5.25-3.49.25-.91,2.12-1.62,4.06-2.16,5.85-.53,1.78-.95,3.52-1.25,5.21-.77-.18-1.4-.5-1.9-.95-.5-.45-.97-1.02-1.39-1.71.16-.32.35-.73.56-1.24.21-.5.46-1.11.75-1.83s.62-1.55,1-2.5c.37-.96.8-2.07,1.28-3.33-.66-.28-1.11-.67-1.33-1.18.1-.08.33-.17.68-.26.35-.09.79-.19,1.31-.29l.39-.97c.42-1.09.77-2,1.04-2.75s.5-1.47.69-2.19c.19-.71.37-1.5.54-2.37.17-.86.38-1.96.62-3.29.85.16,1.61.53,2.31,1.12.69.58,1.29,1.29,1.79,2.11-.18.24-.4.6-.66,1.09-.26.48-.55,1.06-.86,1.74-.31.67-.65,1.43-1.01,2.26-.36.84-.75,1.72-1.18,2.64,1.25-.17,2.51-.33,3.79-.48,1.28-.15,2.41-.23,3.39-.23.36-1.05.74-2.08,1.13-3.08.39-1,.78-1.92,1.16-2.75.38-.83.75-1.56,1.1-2.18s.67-1.09.95-1.4c.2.02.47.1.8.23s.67.29,1.01.47c.34.18.65.38.94.59.28.21.47.41.57.59-.36.34-.72.79-1.09,1.33-.36.54-.72,1.17-1.07,1.87-.35.7-.7,1.47-1.04,2.29-.34.83-.66,1.68-.97,2.57.4.36.6.81.6,1.36,0,.38-.08.73-.24,1.06-.18-.05-.36-.08-.54-.08s-.37,0-.57-.03c-.34,1.08-.65,2.16-.94,3.22-.28,1.06-.52,2.08-.71,3.04-.19.96-.34,1.85-.45,2.65-.11.8-.17,1.47-.17,2.02,0,.2,0,.36.02.48,0,.12.03.22.04.3-.44,0-.77-.07-.96-.2-.2-.13-.35-.27-.45-.42-.1-.15-.19-.3-.27-.45-.08-.15-.21-.27-.39-.35-.14-.06-.27-.2-.39-.42s-.22-.47-.3-.76-.14-.57-.18-.85c-.04-.28-.06-.51-.06-.7Z"></path><path class="st2" d="M294.02,153.66c-1.15-.12-2.06-.62-2.75-1.51-.68-.88-1.03-2.01-1.03-3.38,0-.8.12-1.64.36-2.5.24-.86.58-1.71,1.03-2.52.44-.81.97-1.58,1.57-2.31s1.26-1.35,1.96-1.87c1.11-.82,2.14-1.24,3.11-1.24.64.34,1.28,1.06,1.9,2.14.1,0,.19,0,.27-.01s.17-.02.27-.02c1.07,0,1.6.95,1.6,2.84,0,1.27-.21,2.47-.62,3.61-.41,1.14-.99,2.17-1.72,3.09-.73.93-1.61,1.71-2.62,2.34-1.02.63-2.13,1.08-3.33,1.34ZM295.56,144.15c-.34.46-.66.97-.97,1.51-.3.54-.56,1.09-.78,1.65-.22.55-.39,1.09-.51,1.6-.12.51-.18.97-.18,1.37,0,.48.08.95.24,1.39s.34.69.54.75c.91-.2,1.74-.58,2.49-1.13.75-.55,1.41-1.24,1.96-2.07.55-.83.99-1.76,1.3-2.81.31-1.05.47-2.16.47-3.35,0-.52-.03-.94-.09-1.24-.06-.3-.16-.56-.3-.79-.89.26-1.67.68-2.37,1.27-.69.58-1.29,1.2-1.8,1.84Z"></path><path class="st2" d="M321.21,143.35c-.32,0-.71.2-1.18.59-.46.39-.96.9-1.49,1.51-.53.62-1.09,1.29-1.66,2.04-.57.75-1.13,1.49-1.66,2.22-.53.74-1.03,1.43-1.49,2.07-.46.65-.85,1.16-1.18,1.54-.44-.18-.83-.45-1.15-.8-.32-.35-.55-.79-.69-1.31.1-.62.24-1.27.42-1.94.18-.67.42-1.37.71-2.09.29-.72.65-1.48,1.09-2.28.43-.79.96-1.63,1.58-2.52-.3,0-.71.21-1.24.62-.52.41-1.09.95-1.69,1.6s-1.23,1.39-1.87,2.21-1.25,1.62-1.81,2.4c-.74,1.05-1.36,1.96-1.86,2.75-.49.79-.85,1.25-1.07,1.39-.52-.38-.89-.79-1.09-1.24s-.35-.94-.45-1.48c.02-.48.09-1.09.23-1.81.13-.72.32-1.47.56-2.23.46-1.47,1.06-2.93,1.8-4.38.73-1.45,1.44-2.78,2.13-3.98.56.12,1.07.31,1.52.57s.93.64,1.43,1.15c-.2.62-.51,1.28-.94,1.98s-.87,1.42-1.33,2.19c-.46.77-.89,1.55-1.27,2.35s-.63,1.62-.75,2.44c.56-.8,1.23-1.73,2.01-2.78.77-1.05,1.57-2.03,2.38-2.96.81-.92,1.62-1.71,2.43-2.35.8-.64,1.53-.97,2.17-.97.24,0,.5.04.78.12.28.08.54.18.79.3.24.12.44.24.6.35.16.11.25.2.27.26-.1.4-.34.95-.71,1.64-.37.69-.77,1.42-1.19,2.19-.42.77-.81,1.5-1.18,2.22s-.57,1.28-.63,1.71c.99-1.35,1.91-2.57,2.78-3.67.86-1.1,1.68-2.04,2.44-2.82.76-.79,1.47-1.39,2.13-1.81.65-.42,1.27-.63,1.86-.63.4,0,.78.11,1.13.32.35.21.6.52.74.92-.18.6-.48,1.33-.89,2.17-.41.84-.83,1.73-1.25,2.67s-.8,1.86-1.13,2.76-.5,1.72-.5,2.44c0,.42.06.7.18.83.12.13.29.2.51.2.24,0,.47-.05.68-.14.21-.09.37-.14.47-.14.12.08.19.18.21.3.02.12.03.23.03.33-.4.32-.81.59-1.24.8-.42.21-.89.32-1.42.32-.48,0-.88-.08-1.19-.24-.31-.16-.57-.38-.77-.66-.2-.28-.34-.6-.42-.96-.08-.36-.12-.75-.12-1.17,0-.68.09-1.36.27-2.03.18-.67.4-1.32.65-1.93.25-.61.52-1.19.8-1.72.28-.53.52-1.01.72-1.43Z"></path><path class="st2" d="M337.26,140.41c.2,0,.44.04.71.11s.52.16.74.27.41.23.56.35c.15.12.23.23.23.33-.4.84-.78,1.7-1.12,2.55-.34.86-.63,1.67-.88,2.46-.24.78-.43,1.52-.56,2.2s-.2,1.28-.2,1.78c0,.56.06,1.03.18,1.4s.32.64.6.8c-.24.16-.55.29-.94.39-.38.1-.72.15-1.03.15-1.09,0-1.63-.74-1.63-2.23,0-1.15.38-2.72,1.15-4.71-.4.92-.87,1.79-1.39,2.6s-1.06,1.53-1.6,2.15c-.54.62-1.09,1.13-1.65,1.52-.55.39-1.06.63-1.52.71-.75,0-1.35-.34-1.81-1.02-.46-.68-.69-1.54-.69-2.59,0-1.13.24-2.32.72-3.58.48-1.25,1.1-2.42,1.86-3.49.75-1.07,1.57-1.96,2.46-2.68.88-.72,1.74-1.08,2.56-1.08.2.06.43.18.68.36.25.18.49.39.72.63.23.24.43.49.59.74s.25.47.27.65c-.8.12-1.63.51-2.49,1.17-.86.66-1.63,1.46-2.32,2.39-.69.93-1.26,1.93-1.71,3s-.66,2.06-.66,2.98c0,.38.14.62.42.72.58-.12,1.26-.62,2.02-1.49s1.69-2.23,2.78-4.06c.2-.36.43-.76.68-1.21.25-.44.51-.91.77-1.39.26-.48.52-.97.77-1.46.25-.49.49-.97.71-1.43Z"></path><path class="st2" d="M345.92,137.96c.52.16,1.02.52,1.48,1.07.46.55.8,1.16,1.03,1.83-.22.54-.56,1.2-1.03,1.96s-.93,1.54-1.39,2.34-.88,1.55-1.25,2.26c-.37.71-.59,1.3-.65,1.77.32-.34.68-.74,1.07-1.19.39-.45.77-.91,1.15-1.36.37-.45.72-.87,1.04-1.24.32-.37.57-.65.75-.83.38-.4.83-.87,1.36-1.4s1.07-1.04,1.64-1.51c.57-.47,1.15-.88,1.74-1.21.58-.33,1.12-.5,1.6-.5.52,0,.96.18,1.31.53.35.35.63.72.83,1.1,0,.04-.08.1-.23.17-.15.07-.37.27-.65.59-.28.36-.6.86-.95,1.49-.35.63-.69,1.32-1.03,2.05s-.61,1.48-.83,2.25c-.22.77-.33,1.46-.33,2.08,0,.5.07.83.2.97s.32.21.56.21c.22,0,.45-.05.69-.15.24-.1.43-.15.57-.15.08.04.15.13.2.26.05.13.08.25.08.35-.16.14-.35.28-.57.42-.22.14-.45.27-.69.39-.24.12-.48.22-.71.3-.23.08-.44.12-.62.12-.58,0-1.06-.09-1.43-.26s-.66-.4-.88-.68c-.21-.28-.36-.62-.44-1.01-.08-.39-.12-.81-.12-1.25,0-.24.02-.51.06-.81s.12-.66.24-1.07c.12-.41.29-.91.51-1.48.22-.57.5-1.26.84-2.07-.04,0-.31.14-.81.42-.5.28-1.05.71-1.63,1.3-.95.91-1.8,1.8-2.55,2.69-.75.88-1.52,1.87-2.31,2.96-.44.62-.83,1.15-1.16,1.58s-.62.72-.86.86c-.42-.24-.73-.58-.94-1.01s-.35-.88-.45-1.34c0-.38.05-.87.17-1.45.11-.58.26-1.23.45-1.95.19-.71.43-1.46.71-2.25.28-.79.59-1.57.94-2.35.76-1.77,1.46-3.16,2.1-4.17s1.03-1.55,1.19-1.63Z"></path></g></svg>