<?xml version="1.0" encoding="utf-8"?>
<!-- Generator: Adobe Illustrator 28.0.0, SVG Export Plug-In . SVG Version: 6.00 Build 0)  -->
<svg version="1.1" id="Laag_1" xmlns="http://www.w3.org/2000/svg" xmlns:xlink="http://www.w3.org/1999/xlink" x="0px" y="0px"
	 viewBox="0 0 560.1 173.8" style="enable-background:new 0 0 560.1 173.8;" xml:space="preserve">
<style type="text/css">
	.st0{fill:#9B8463;}
	.st1{fill:#D4CCB9;}
	.st2{fill:#3F3F3F;}
</style>
<g>
	<g>
		<g>
			<path class="st0" d="M173.8,86.9c0,1,0,1.9-0.1,2.9c-0.1,2.1-0.2,4.2-0.4,6.2c-0.2,1.6-0.4,3.2-0.6,4.8c-0.3,2-0.7,3.9-1.2,5.9
				c-0.5,2.1-1.1,4.2-1.7,6.3c-0.6,2-1.3,3.9-2.1,5.9c-0.2,0.5-0.4,1-0.6,1.5c-0.9,2.2-1.9,4.3-3,6.4c-0.8,1.5-1.6,3-2.5,4.5
				c-1.1,1.9-2.4,3.8-3.7,5.6c-1.1,1.6-2.3,3.1-3.5,4.6c-1.5,1.9-3.2,3.8-4.9,5.5c-1,1.1-2.1,2.1-3.1,3.1h0c-2,1.9-4.1,3.7-6.2,5.4
				c-2.5,1.9-5.1,3.8-7.8,5.4c-2.4,1.5-4.8,2.8-7.3,4c-2.5,1.2-5.1,2.3-7.7,3.3c0,0,0,0,0,0c-2.7,1-5.5,1.9-8.4,2.7
				c-3.7,1-7.4,1.7-11.2,2.2c-3.6,0.5-7.2,0.7-10.9,0.7c-3.6,0-7.2-0.2-10.6-0.6c-3.9-0.5-7.8-1.2-11.5-2.2c-2.7-0.7-5.4-1.6-8-2.5
				c-2.7-1-5.4-2.1-7.9-3.4h0c-2.7-1.3-5.2-2.7-7.7-4.3c-2.6-1.6-5.1-3.3-7.5-5.2c-2.2-1.7-4.3-3.5-6.3-5.3
				c-1.2-1.1-2.3-2.3-3.5-3.4c-1.6-1.7-3.2-3.5-4.7-5.4c-1.2-1.5-2.3-3-3.4-4.5c-1.3-1.9-2.6-3.8-3.7-5.8c-0.9-1.4-1.7-2.9-2.4-4.4
				c-1.1-2-2-4.1-2.9-6.3c-0.3-0.6-0.5-1.2-0.7-1.8c-0.8-1.9-1.4-3.9-2.1-5.9v0c-0.6-2-1.2-4-1.6-6.1c-0.5-1.9-0.8-3.9-1.1-5.9
				c-0.3-1.6-0.5-3.3-0.7-4.9c-0.2-2-0.4-4.1-0.4-6.2C0,88.8,0,87.8,0,86.9C0,38.9,38.9,0,86.9,0C134.9,0,173.8,38.9,173.8,86.9z"/>
			<g>
				<g>
					<path class="st1" d="M165.7,86.9c0,0.9,0,1.8,0,2.6c-0.1,1.9-0.2,3.8-0.4,5.7c-0.1,1.5-0.3,2.9-0.6,4.4c-0.3,1.8-0.6,3.6-1,5.3
						c-0.5,1.9-1,3.9-1.6,5.7c-0.6,1.8-1.2,3.6-1.9,5.3c-0.2,0.5-0.4,0.9-0.6,1.3c-0.8,2-1.7,3.9-2.7,5.8c-0.7,1.4-1.5,2.7-2.3,4.1
						c-1,1.8-2.1,3.5-3.3,5.1c-1,1.4-2.1,2.8-3.2,4.2c-1.4,1.7-2.9,3.4-4.4,5c-0.9,1-1.9,1.9-2.8,2.8h0c-1.8,1.7-3.7,3.3-5.7,4.9
						c-2.3,1.8-4.6,3.4-7.1,4.9c-2.1,1.3-4.4,2.5-6.6,3.7c-2.3,1.1-4.6,2.1-7,3c0,0,0,0,0,0c-2.5,0.9-5,1.7-7.6,2.4
						c-3.3,0.9-6.7,1.5-10.2,2c-3.2,0.4-6.6,0.6-9.9,0.6c-3.3,0-6.5-0.2-9.6-0.6c-3.6-0.4-7.1-1.1-10.5-2c-2.5-0.6-4.9-1.4-7.2-2.3
						c-2.5-0.9-4.8-1.9-7.2-3.1h0c-2.4-1.2-4.7-2.5-7-3.9c-2.3-1.5-4.6-3-6.8-4.7c-2-1.5-3.9-3.1-5.7-4.8c-1.1-1-2.1-2.1-3.1-3.1
						c-1.5-1.6-2.9-3.2-4.3-4.9c-1.1-1.3-2.1-2.7-3.1-4.1c-1.2-1.7-2.3-3.4-3.4-5.3c-0.8-1.3-1.5-2.6-2.2-4c-1-1.8-1.8-3.7-2.6-5.7
						c-0.2-0.5-0.5-1.1-0.7-1.6c-0.7-1.7-1.3-3.5-1.9-5.3v0c-0.6-1.8-1.1-3.6-1.5-5.5c-0.4-1.8-0.8-3.5-1-5.3
						c-0.2-1.5-0.4-3-0.6-4.5c-0.2-1.8-0.3-3.7-0.4-5.6c0-0.8,0-1.7,0-2.5c0-43.5,35.3-78.8,78.8-78.8
						C130.4,8.1,165.7,43.4,165.7,86.9z"/>
					<g>
						<path class="st0" d="M86.9,14.2c-40.2,0-72.8,32.6-72.8,72.8c0,0.8,0,1.6,0,2.3c1.8-0.5,3.5-0.9,5.3-1.2
							c3.8-0.6,7.3,0.8,10.9,1.9c3.8,1.2,7.5,1.1,10.9-1.3c0.8-0.6,1.2-1.2,1.2-2.3c-0.1-5.5,0-11.1,0-16.6c0-2.6,0.7-5.1,3.1-6.4
							c1.6-0.9,3.6-1.6,5.5-1.7h72.4c0.1,0,0.3,0,0.4,0c0.1,0,0.2,0,0.4,0.1c0,0,0.1,0,0.1,0c0.1,0,0.1,0,0.2,0c0.1,0,0.2,0,0.3,0.1
							c0,0,0.1,0,0.1,0c0.1,0,0.2,0.1,0.3,0.1c0,0,0,0,0,0c0.1,0,0.2,0.1,0.3,0.1c0.1,0,0.1,0,0.2,0.1c0.1,0,0.2,0.1,0.3,0.1
							c0.1,0,0.2,0.1,0.3,0.1c0,0,0,0,0,0c0.1,0.1,0.2,0.1,0.3,0.2c0,0,0,0,0,0c0.1,0.1,0.2,0.1,0.3,0.2c0.1,0.1,0.2,0.1,0.3,0.2
							c0,0,0.1,0,0.1,0c0.1,0.1,0.2,0.1,0.3,0.2c0,0,0,0,0,0c0.1,0.1,0.1,0.1,0.2,0.2c0.2,0.2,0.4,0.4,0.6,0.6
							c0.1,0.1,0.1,0.1,0.2,0.2c0.1,0.1,0.2,0.3,0.4,0.5c0.1,0.1,0.1,0.1,0.2,0.2c0,0,0,0,0,0c0.1,0.1,0.1,0.2,0.2,0.3
							c0.1,0.1,0.1,0.2,0.2,0.3c0.1,0.1,0.1,0.2,0.1,0.3c0,0,0,0,0,0.1c0,0.1,0.1,0.1,0.1,0.2c0,0.1,0.1,0.1,0.1,0.2
							c0,0.1,0.1,0.1,0.1,0.2c0,0.1,0.1,0.1,0.1,0.2c0,0.1,0,0.1,0.1,0.1c0,0.1,0.1,0.1,0.1,0.2c0,0,0,0.1,0,0.1
							c0,0.1,0.1,0.2,0.1,0.3c0,0.1,0,0.1,0,0.1c0,0.1,0,0.1,0,0.2c0,0.1,0,0.2,0.1,0.3c0,0.1,0,0.2,0.1,0.4c0,0.1,0,0.2,0.1,0.3
							c0,0,0,0.1,0,0.1c0,0.1,0,0.3,0,0.4c0,0.3,0,0.6,0,1c0,5.5,0,11,0.1,16.4c0,0.6,0.3,1.4,0.7,1.7c1.9,1.6,4.1,2.8,6.6,2.5
							c2.5-0.3,5.1-0.9,7.5-1.6c4.7-1.5,9.2-1.7,13.8,0.1c0,0,0.1,0,0.1,0c0-0.8,0-1.6,0-2.4C159.7,46.7,127.1,14.2,86.9,14.2z
							 M30.7,81c-1.1,0-2-0.9-2-2c0-1.1,0.9-2,2-2c1.1,0,2,0.9,2,2C32.8,80.1,31.9,81,30.7,81z M30.7,66.5c-1.1,0-2-0.9-2-2
							c0-1.1,0.9-2,2-2c1.1,0,2,0.9,2,2C32.8,65.5,31.9,66.5,30.7,66.5z M53.8,55.3c-0.4,0.6-1,1-1.7,1c-0.3,0-0.6-0.1-0.9-0.2
							l-16.4-9c-0.9-0.5-1.3-1.7-0.8-2.7c0.4-0.6,1-1,1.7-1c0.3,0,0.6,0.1,0.9,0.2l16.4,9C54,53.1,54.3,54.3,53.8,55.3z M67.6,50.9
							c-0.4,0.4-0.9,0.5-1.3,0.5c-0.5,0-1-0.2-1.4-0.6L47.9,33c-0.7-0.8-0.7-2,0.1-2.8c0.4-0.4,0.9-0.5,1.4-0.5c0.5,0,1,0.2,1.4,0.6
							l17,17.8C68.4,48.9,68.4,50.2,67.6,50.9z M72.3,35.1c-0.2,0.1-0.5,0.1-0.7,0.1c-0.8,0-1.5-0.5-1.8-1.2l-4.5-10.9
							c-0.4-1,0.1-2.1,1.1-2.6c0.2-0.1,0.5-0.1,0.7-0.1c0.8,0,1.5,0.5,1.8,1.2l4.5,10.9C73.8,33.6,73.3,34.7,72.3,35.1z M75.4,43.4
							c-1.1,0-2-0.9-2-2c0-1.1,0.9-2,2-2c1.1,0,2,0.9,2,2C77.4,42.5,76.5,43.4,75.4,43.4z M88.6,49.5c0,1-0.8,1.7-1.7,1.7h-0.4
							c-1,0-1.7-0.8-1.7-1.7V18.8c0-1,0.8-1.7,1.7-1.7h0.4c1,0,1.7,0.8,1.7,1.7V49.5z M98.2,43.4c-1.1,0-2-0.9-2-2c0-1.1,0.9-2,2-2
							c1.1,0,2,0.9,2,2C100.2,42.5,99.3,43.4,98.2,43.4z M101.9,35.3c-0.2,0-0.5-0.1-0.7-0.1c-1-0.4-1.5-1.6-1.1-2.6l4.5-10.9
							c0.3-0.8,1-1.2,1.8-1.2c0.2,0,0.5,0,0.7,0.1c1,0.4,1.5,1.6,1.1,2.6l-4.5,10.9C103.4,34.8,102.6,35.3,101.9,35.3z M105.7,50.9
							c-0.4-0.4-0.6-0.9-0.6-1.4c0-0.5,0.2-1,0.5-1.4l17-17.8c0.7-0.8,2-0.8,2.8-0.1c0.4,0.4,0.6,0.9,0.6,1.4c0,0.5-0.2,1-0.5,1.4
							l-17,17.8C107.7,51.6,106.5,51.6,105.7,50.9z M138.3,47l-16.4,9c-0.3,0.2-0.6,0.2-0.9,0.2c-0.7,0-1.4-0.4-1.7-1
							c-0.5-0.9-0.2-2.1,0.8-2.7l16.4-9c0.3-0.2,0.6-0.2,0.9-0.2c0.7,0,1.4,0.4,1.7,1C139.6,45.3,139.3,46.5,138.3,47z M142.6,81
							c-1.1,0-2-0.9-2-2c0-1.1,0.9-2,2-2c1.1,0,2,0.9,2,2C144.6,80.1,143.7,81,142.6,81z M142.6,66.5c-1.1,0-2-0.9-2-2
							c0-1.1,0.9-2,2-2c1.1,0,2,0.9,2,2C144.6,65.5,143.7,66.5,142.6,66.5z"/>
						<path class="st0" d="M35,101.6c3.7-3.4,7.2-6.7,10.8-9.9c0.5-0.4,1.4-0.6,2.1-0.6c21.6,0,43.2,0,64.8,0c4.3,0,8.6,0,12.9,0
							c0.7,0,1.5,0.3,1.9,0.7c3.7,3.4,7.3,6.9,11.3,10.6c-1.1-0.3-1.9-0.5-2.6-0.7c-10.7-3.2-21.6-4.5-32.8-3.5
							c-7.1,0.7-14,2.7-20.8,4.8c-0.7,0.2-1.6,0.3-2.2,0c-12.5-5.9-25.5-6.9-38.8-3.4c-1.1,0.3-2.2,0.6-3.3,0.9
							C37.3,100.9,36.3,101.3,35,101.6z"/>
						<path class="st0" d="M154.6,113.7c-0.2,0.4-0.3,0.8-0.5,1.2c-2.5,0.4-4.9,0.1-7.4-0.4c-6.9-1.4-13.7-3.2-20.6-4.5
							c-16.3-3.1-32-0.8-47.4,5.3c-7.7,3.1-15.6,5.7-23.4,8.6c-5.9,2.2-11.8,4.7-17.8,6.9c-2.3,0.8-4.9,1.1-7.4,1.6
							c-1-1.2-2-2.5-2.9-3.8c1.4-0.2,2.8-0.3,4.1-0.6c6.6-1.3,12.7-4,18.8-6.6c10.9-4.5,21.8-9.3,32.8-13.4
							c17.8-6.7,35.9-7.2,54-0.9C143,109.3,148.8,111.6,154.6,113.7z"/>
						<path class="st0" d="M131.6,144.3c-2.1,1.6-4.3,3.1-6.5,4.5c-4.3-0.9-8.3-2.7-12.3-4.6c-6.3-2.9-12.8-5.3-19.7-6.3
							c-9-1.3-17.5,0.6-25.7,3.9c-4.1,1.7-8.1,3.6-12.3,5.1c-2.1,0.8-4.3,1.3-6.4,1.7c-2.2-1.3-4.2-2.8-6.3-4.4
							c6-1.1,11.5-3.6,17-5.9c2.1-0.9,4.3-1.7,6.5-2.5c16.6-5.9,32.9-4.6,48.9,2.5c5.3,2.3,10.6,4.7,16.3,5.8
							C131.2,144.3,131.4,144.3,131.6,144.3z"/>
						<path class="st0" d="M139.4,137.3c-0.8,0.9-1.7,1.8-2.6,2.6h0c-5.2,0-10-1.6-14.7-3.7c-7.8-3.4-15.6-6.4-24.1-7.9
							c-11.4-1.9-22.4-0.9-33.3,3c-6.1,2.2-12.1,4.7-18.3,6.9c-3,1.1-6.2,1.7-9.4,1.8c-1-0.9-2-1.9-2.9-2.9
							c6.8-1.4,13.1-4.1,19.4-6.7c7.9-3.3,16-6.3,24.5-7.3c13.6-1.7,26.7-0.1,39.3,5.7c6.2,2.8,12.5,5.3,18.9,7.7
							C137.3,136.8,138.4,137.1,139.4,137.3z"/>
						<path class="st0" d="M118.9,152.3c-2.1,1-4.2,2-6.5,2.8c0,0,0,0,0,0c-3.5-1.6-7-3.2-10.6-4.6c-10.7-4.1-21.3-3.4-31.7,1
							c-2.9,1.2-5.6,2.5-8.5,3.8c-2.3-0.8-4.5-1.8-6.6-2.8c4.6-1.6,8.9-3.8,13.3-5.6c2.8-1.2,5.7-2.1,8.7-2.9
							c9.5-2.5,18.7-1.3,27.7,2.4c4.6,1.9,9.1,3.9,13.7,5.8C118.6,152.1,118.8,152.2,118.9,152.3z"/>
						<path class="st0" d="M74.4,106.2c-1.3,0.6-2.3,1-3.3,1.4c-2.1,0.9-4.2,2.4-6.4,2.6c-2.2,0.2-4.5-0.8-6.7-1.3
							c-7-1.5-13.6-0.2-20.2,2c-4.3,1.5-8.6,2.8-13,3.8c-1.6,0.3-3.3,0.3-4.9,0.2c-0.2-0.5-0.4-1-0.6-1.5c7.4-2.9,14.8-6,22.3-8.5
							c10.2-3.3,20.6-3.2,30.9,0.4C72.9,105.6,73.5,105.8,74.4,106.2z"/>
						<path class="st0" d="M146.4,128.8c-0.9,1.3-1.9,2.6-2.9,3.9c-3.9-0.3-7.5-1.3-11.1-2.8c-6.3-2.7-12.6-5.7-19-8.2
							c-7.2-2.9-14.7-4.1-22.4-4.3c-0.5,0-1-0.1-1.5-0.1c0-0.1,0-0.3-0.1-0.4c2.1-0.4,4.3-0.7,6.4-1.1c10.4-2,19.8,0.7,29,5.4
							c5.2,2.7,10.4,5.6,16.2,6.8C142.7,128.2,144.6,128.5,146.4,128.8z"/>
						<path class="st0" d="M105.5,157.3c-3.1,0.8-6.2,1.4-9.4,1.8c-6-1.9-12.1-1.9-18.1,0c-3.3-0.4-6.5-1-9.7-1.8
							C79.3,151.6,94.5,151.6,105.5,157.3z"/>
						<path class="st0" d="M88.2,84.8c8.1-8.7,24.1-8.6,31.2,0.1c-1.4,1.4-3.2,1.8-5.1,1.9c-7,0.1-13.9,0.1-20.9,0
							C91.5,86.8,89.8,86,88.2,84.8z"/>
						<path class="st0" d="M84.7,84.8c-1.9,1.2-3.7,2.1-5.8,2.1c-6.7,0-13.3,0-20,0c-2.1,0-3.9-0.9-5.7-1.9
							C60.6,77,75.5,75.4,84.7,84.8z"/>
						<path class="st0" d="M55.2,114.1c-6.8,2.7-13.6,5.7-20.6,8c-3.3,1.1-6.9,1.3-10.4,1.8c-0.7-1.2-1.4-2.4-2-3.7
							c1.2-0.1,2.3-0.2,3.4-0.5c4.9-1.3,9.8-2.7,14.7-4.3c4.2-1.3,8.3-2.3,12.7-2c0.7,0.1,1.4,0.2,2.1,0.3
							C55.2,113.8,55.2,114,55.2,114.1z"/>
						<path class="st0" d="M159.3,94.6c-0.1,1.4-0.3,2.7-0.5,4.1c-4.7-1.4-9.2-0.8-13.6,1.5c-0.3,0.2-1,0.2-1.2,0
							c-1.5-1.3-3-2.6-4.5-3.9c0-0.2,0.1-0.3,0.1-0.5c4.5-0.9,9-2.1,13.5-2.7C155.2,92.7,157.3,93.5,159.3,94.6z"/>
						<path class="st0" d="M33.9,96.2c-1.6,1.4-3.1,2.8-4.6,4.1c-0.2,0.2-0.7,0.1-1,0c-4.3-2.3-8.7-3-13.2-1.7
							c-0.2-1.4-0.4-2.7-0.6-4.1c0.2-0.1,0.5-0.2,0.8-0.3c4.2-1.7,8.2-1.4,12.4,0.1C29.6,95,31.6,95.5,33.9,96.2z"/>
						<path class="st0" d="M151.6,120.3c-0.6,1.3-1.3,2.5-2.1,3.7c-5.3-0.1-10.2-2-15-4.2c-2.8-1.3-5.6-2.8-8.4-4.2
							C134.6,116.8,142.7,120.1,151.6,120.3z"/>
						<path class="st0" d="M157.7,103.5c-0.4,1.8-0.9,3.6-1.5,5.3c-3-0.9-5.7-2.3-8.3-4.3c2.5-1.5,5.1-2,7.8-1.5
							C156.6,103.2,157.2,103.4,157.7,103.5z"/>
						<path class="st0" d="M24.9,104.4c-2.4,1.7-4.8,3.2-7.5,4.1c-0.5-1.7-1-3.4-1.4-5.1C18.9,102.6,21.5,102.8,24.9,104.4z"/>
					</g>
				</g>
			</g>
		</g>
	</g>
	<g>
		<g>
			<g>
				<path class="st1" d="M396.2,117.6c-0.2,0-0.3,0-0.5,0c-0.5,0-1,0-1.6,0.2c-0.3,0.1-0.7,0.2-1,0.2c0-0.1,0.1-0.1,0.1-0.2
					c0-0.1,0.1-0.1,0.1-0.2c0.2-0.5,0.5-1.1,0.7-1.6c0.1-0.2,0.2-0.2,0.3-0.2c0.1,0,0.2,0,0.2,0c0.4,0.3,0.8,0.7,1.1,1
					c0.2,0.1,0.3,0.3,0.4,0.5c0,0,0.1,0.1,0.1,0.2C396.1,117.5,396.2,117.5,396.2,117.6z"/>
				<path class="st1" d="M404.7,115.9c0,0.4-0.1,0.8-0.2,1.3c-0.1,0.5-0.3,1.1-0.5,1.6c-0.2,0.6-0.4,1.1-0.5,1.7
					c-0.2,0.5-0.2,1.1-0.3,1.5c0,0.2,0,0.4,0,0.6c-0.6-0.1-1.1-0.3-1.5-0.4c-0.5-0.2-0.8-0.5-1.2-0.9c-0.3-0.3-0.3-0.7-0.2-1.3
					c0.2-0.6,0.5-1.2,0.7-1.5c0.3-0.5,0.4-0.7,0.3-0.9l-0.1-0.2h-0.2l-0.2,0l0,0h0l-0.1,0.1c-0.8,0.7-1.7,1.8-2.8,3.2
					c-1,1.4-2.1,3.4-3.3,5.8l-1.2,2.8c-0.3,0.7-0.5,1.3-0.8,2c-0.2,0.7-0.5,1.4-0.8,2.1c0,0,0,0.1-0.1,0.2c0,0,0,0.1-0.1,0.2
					c-0.1,0.1-0.1,0.2-0.2,0.3c-0.1,0-0.2,0-0.4-0.2c-0.2-0.1-0.4-0.3-0.6-0.5c-0.2-0.2-0.4-0.4-0.6-0.6c-0.2-0.2-0.3-0.4-0.4-0.5
					c-0.1-0.1-0.2-0.3-0.3-0.5c0-0.1-0.1-0.2-0.1-0.3c0.4-2.6,1.1-5.3,1.9-7.9c0.4-1.2,0.8-2.3,1.2-3.5c0-0.1,0-0.1,0.1-0.2
					c0-0.1,0.1-0.2,0.1-0.2c0,0,0.1,0,0.1,0c0.8-0.3,1.5-0.5,2.3-0.6c0.5-0.1,1-0.2,1.4-0.2c0,0,0,0.1,0,0.2c0,0,0,0.1-0.1,0.2
					c0,0.1-0.1,0.2-0.1,0.4c-0.2,0.6-0.4,1.1-0.6,1.5c-0.1,0.3-0.2,0.6-0.3,0.8c-0.1,0.2-0.1,0.4-0.2,0.6c0,0.2,0,0.3,0,0.4v1.2
					l0.7-1c0.9-1.5,1.7-2.8,2.5-4c0,0,0,0,0,0c0.1-0.1,0.2-0.2,0.2-0.4c0,0,0,0,0,0c0.3-0.4,0.5-0.8,0.8-1.1c0.3-0.5,0.6-1,0.9-1.3
					c0.3-0.4,0.6-0.7,0.8-1c0.3-0.3,0.4-0.4,0.4-0.4c0.2-0.1,0.5-0.2,0.7-0.3c0.2-0.1,0.4-0.1,0.6-0.1c0.4,0,0.7,0.1,1,0.2
					c0.4,0.2,0.7,0.4,0.9,0.7C404.7,115.3,404.7,115.5,404.7,115.9z"/>
				<path class="st1" d="M397.9,118.6c0,0.1-0.1,0.2-0.1,0.2c0.1,0,0.1,0,0.1,0C397.9,118.7,397.9,118.7,397.9,118.6L397.9,118.6z"
					/>
			</g>
			<g>
				<path class="st1" d="M416,123.8c-0.1,0.7-0.3,1.4-0.5,2.1c-0.2,0.8-0.6,1.7-1,2.6c-0.4,0.9-0.9,1.8-1.5,2.5
					c-0.6,0.8-1.2,1.4-2,1.9c-0.7,0.5-1.6,0.8-2.5,0.8c-0.6,0-1.3-0.2-1.9-0.5c-0.6-0.3-1.2-0.7-1.6-1.2c-0.5-0.5-0.9-1.1-1.2-1.7
					s-0.5-1.3-0.6-1.9c-0.1-0.7-0.1-1.4,0-2.1c0.1-0.7,0.3-1.4,0.5-2.1c0.1-0.3,0.3-0.8,0.5-1.4c0.2-0.6,0.5-1.2,0.8-1.8
					c0.3-0.6,0.7-1.1,1-1.5c0.3-0.4,0.7-0.6,1-0.6c0.2,0,0.4,0.1,0.6,0.1c0.2,0.1,0.5,0.3,0.7,0.5c0.2,0.2,0.4,0.4,0.6,0.6
					c0.2,0.2,0.3,0.4,0.5,0.6c0.1,0.1,0.2,0.2,0.2,0.4c0.1,0.1,0.1,0.2,0.1,0.2h-0.1c-0.1,0-0.1,0-0.2,0h0l-0.1,0
					c-0.2,0.2-0.5,0.3-0.7,0.6c-0.2,0.2-0.4,0.4-0.5,0.7c-0.7,1.2-1.3,2.5-1.7,3.9c-0.4,1.4-0.6,2.8-0.6,4.2v0.3h0.3
					c0.3,0,0.5,0,0.8-0.1c0.3,0,0.5-0.1,0.8-0.2c0.8-0.3,1.5-0.8,2.1-1.6c0.6-0.7,1.2-1.5,1.7-2.3c0.5-0.9,0.9-1.8,1.2-2.7
					c0.3-0.9,0.5-1.8,0.7-2.5c0.2-0.9,0.3-1.8,0.2-2.7l0-0.3l0-0.3l-0.3,0c-0.5,0-1,0.1-1.6,0.3c-0.5,0.1-1,0.3-1.5,0.5
					c0,0,0,0-0.1,0c-0.2,0-0.3-0.1-0.5-0.2c-0.2-0.2-0.5-0.4-0.8-0.6c-0.2-0.2-0.5-0.5-0.7-0.7c-0.2-0.2-0.3-0.4-0.4-0.5
					c0-0.1-0.1-0.2-0.1-0.4c0.5-0.2,0.9-0.4,1.4-0.6c0.5-0.2,1-0.3,1.5-0.3c0.7,0,1.3,0.2,1.9,0.5c0.6,0.3,1.2,0.8,1.7,1.4
					c0.5,0.6,0.9,1.2,1.2,1.9s0.5,1.4,0.6,2C416.1,122.4,416.1,123.1,416,123.8z"/>
			</g>
			<g>
				<path class="st1" d="M429.9,123.8c-0.1,0.7-0.3,1.4-0.5,2.1c-0.2,0.8-0.6,1.7-1,2.6c-0.4,0.9-0.9,1.8-1.5,2.5
					c-0.6,0.8-1.2,1.4-2,1.9c-0.7,0.5-1.5,0.8-2.5,0.8c-0.6,0-1.3-0.2-1.9-0.5c-0.6-0.3-1.2-0.7-1.6-1.2c-0.5-0.5-0.9-1.1-1.2-1.7
					c-0.3-0.6-0.5-1.3-0.6-1.9c-0.1-0.7-0.1-1.4,0-2.1c0.1-0.7,0.3-1.4,0.5-2.1c0.1-0.3,0.3-0.8,0.5-1.4c0.2-0.6,0.5-1.2,0.8-1.8
					c0.3-0.6,0.6-1.1,1-1.5c0.3-0.4,0.7-0.6,1-0.6c0.2,0,0.4,0.1,0.6,0.1c0.2,0.1,0.5,0.3,0.7,0.5c0.2,0.2,0.4,0.4,0.6,0.6
					c0.2,0.2,0.3,0.4,0.5,0.6c0.1,0.1,0.1,0.2,0.3,0.4c0.1,0.1,0.1,0.2,0.1,0.2h-0.1c-0.1,0-0.1,0-0.2,0h0l-0.1,0
					c-0.3,0.2-0.5,0.3-0.7,0.6c-0.2,0.2-0.4,0.4-0.5,0.7c-0.7,1.2-1.3,2.5-1.8,3.9c-0.4,1.4-0.6,2.8-0.6,4.2v0.3h0.4
					c0.3,0,0.5,0,0.8-0.1c0.3,0,0.5-0.1,0.8-0.2c0.8-0.3,1.5-0.8,2.1-1.6c0.6-0.7,1.2-1.5,1.7-2.3c0.5-0.9,0.9-1.8,1.2-2.7
					c0.3-0.9,0.6-1.8,0.7-2.5c0.2-0.9,0.3-1.8,0.2-2.7l0-0.3l0-0.3l-0.3,0c-0.5,0-1,0.1-1.6,0.3c-0.5,0.1-1,0.3-1.4,0.5
					c0,0,0,0-0.1,0c-0.2,0-0.3-0.1-0.5-0.2c-0.2-0.2-0.5-0.4-0.8-0.6c-0.2-0.2-0.5-0.5-0.7-0.7c-0.2-0.2-0.3-0.4-0.4-0.5
					c0-0.1-0.1-0.2-0.1-0.4c0.5-0.2,0.9-0.4,1.4-0.6c0.5-0.2,1-0.3,1.5-0.3c0.7,0,1.3,0.2,1.9,0.5c0.6,0.3,1.2,0.8,1.7,1.4
					c0.5,0.6,0.9,1.2,1.2,1.9s0.5,1.4,0.6,2C430.1,122.4,430,123.1,429.9,123.8z"/>
			</g>
			<g>
				<path class="st1" d="M460.8,121.8c0,0.1,0,0.1,0,0.2c0,0.1-0.1,0.2-0.1,0.2c0,0.1-0.2,0.4-0.4,0.8c-0.3,0.5-0.6,1.1-1,1.9
					c-0.4,0.8-0.9,1.6-1.4,2.5c-0.5,0.9-1.1,1.8-1.6,2.5c-0.5,0.8-1.1,1.5-1.6,2.2c-0.5,0.6-0.9,1-1.3,1.3c-0.4,0.2-0.8,0.4-1.2,0.4
					c-0.4,0-0.8-0.1-1.1-0.4c-0.4-0.3-0.7-0.6-1-1c-0.3-0.4-0.5-0.8-0.6-1.1c-0.2-0.5-0.2-0.7-0.2-0.9c0-0.3,0-0.8,0.2-1.4
					c0.1-0.6,0.2-1.2,0.3-1.9c0.1-0.6,0.2-1.2,0.4-1.8c0.1-0.6,0.2-1,0.3-1.2c0.1-0.4,0.2-0.7,0.3-1c0.1-0.3,0.2-0.7,0.3-1l0.7-2
					l-1.3,1.7c-0.4,0.6-0.8,1.1-1.2,1.7s-0.7,1.1-1.1,1.7c-0.4,0.6-0.8,1.2-1.1,1.9c-0.4,0.6-0.8,1.2-1.1,1.9
					c-0.3,0.5-0.6,0.9-0.9,1.4c-0.3,0.5-0.6,0.9-0.9,1.3c-0.2,0.1-0.3,0.3-0.5,0.5c-0.1,0.1-0.3,0.2-0.5,0.2c-0.2,0-0.4-0.1-0.6-0.2
					c-0.3-0.2-0.5-0.4-0.8-0.6c-0.2-0.2-0.5-0.5-0.7-0.8c-0.2-0.2-0.3-0.5-0.4-0.6c-0.2-0.4-0.2-0.7-0.1-1.1
					c0.1-0.4,0.2-0.9,0.3-1.3c0.2-0.8,0.4-1.7,0.6-2.5l0.6-2.5l0.4-1.5l-1,1.2c-1.3,1.7-2.6,3.5-3.8,5.3c-1.2,1.8-2.4,3.7-3.4,5.5
					c-0.1,0.2-0.2,0.4-0.3,0.5c0,0.1-0.1,0.1-0.1,0.1c-0.4,0-0.8-0.1-1.1-0.3c-0.3-0.2-0.6-0.5-0.9-0.8c-0.4-0.4-0.7-0.8-0.9-1.2
					c-0.2-0.4-0.3-0.9-0.4-1.4c0-0.5,0-0.9,0.1-1.4c0.1-0.5,0.2-0.9,0.3-1.4c0.1-0.6,0.3-1.3,0.4-1.9c0.2-0.6,0.3-1.2,0.5-1.8
					c0.1-0.2,0.2-0.7,0.5-1.4c0.3-0.7,0.6-1.4,0.9-2.1c0.3-0.7,0.7-1.4,1-1.9c0.4-0.7,0.6-0.7,0.6-0.7c0.2,0,0.4,0.1,0.6,0.2
					c0.3,0.2,0.5,0.4,0.7,0.6c0.2,0.2,0.5,0.5,0.7,0.7c0.2,0.2,0.3,0.4,0.4,0.6c0,0.1,0.1,0.2,0.1,0.3c0,0,0,0.1,0,0.1
					c-0.4,0.4-0.7,0.8-1,1.3c-0.2,0.4-0.5,0.9-0.7,1.3c-0.1,0.1-0.1,0.3-0.2,0.7c-0.1,0.3-0.2,0.6-0.3,0.9c-0.1,0.3-0.2,0.6-0.3,0.9
					c-0.1,0.3-0.1,0.4-0.2,0.6l-1.3,3.1l1.9-2.8c0.2-0.2,0.4-0.6,0.7-1.2c0.3-0.5,0.7-1.1,1.2-1.8l1.3-2.1c0.5-0.7,0.9-1.4,1.3-2
					c0.4-0.6,0.8-1.1,1-1.5c0.4-0.5,0.5-0.6,0.5-0.6c0.3-0.2,0.6-0.3,1-0.3c0.3,0,0.6,0.1,0.9,0.2c0.3,0.2,0.6,0.4,0.9,0.7
					c0.3,0.3,0.5,0.6,0.7,0.9c0.2,0.3,0.3,0.6,0.4,0.9c0.1,0.3,0.1,0.6,0,1.1c0,0.1,0,0.4-0.1,0.8c-0.1,0.4-0.1,0.9-0.2,1.4
					c-0.1,0.5-0.2,0.9-0.2,1.4c-0.1,0.4-0.1,0.7-0.2,0.9l-0.3,2l1-1.8c0.1-0.2,0.3-0.6,0.6-1.1l1-1.7c0.4-0.6,0.7-1.3,1.1-2
					c0.4-0.7,0.8-1.3,1.2-1.9c0.4-0.6,0.7-1.1,1-1.5c0.4-0.5,0.6-0.6,0.7-0.7c0.4-0.2,0.7-0.3,1-0.3c0.3,0,0.6,0.1,0.9,0.3
					c0.3,0.2,0.7,0.4,1,0.7c0.3,0.3,0.5,0.6,0.8,0.9c0.2,0.3,0.3,0.6,0.4,0.9c0.1,0.4,0.1,0.8,0,1.2c-0.1,0.5-0.2,0.9-0.4,1.4
					c-0.4,1.4-0.8,2.8-1.3,4.2c-0.5,1.4-0.9,2.8-1.2,4.2c-0.2,0.7-0.2,1.2-0.2,1.5c0,0.7,0.4,0.8,0.6,0.8c0.3,0,0.7-0.3,1.2-0.9
					c0.4-0.5,0.9-1.2,1.4-2c0.5-0.8,1-1.6,1.6-2.5c0.5-0.9,1.1-1.8,1.5-2.5c0.5-0.8,0.9-1.4,1.2-1.9c0.2-0.4,0.4-0.5,0.4-0.6
					c0.5,0,0.7,0.1,0.8,0.2C460.7,121.6,460.8,121.7,460.8,121.8z"/>
			</g>
			<g>
				<path class="st1" d="M486.1,119c-0.1,0.2-0.2,0.3-0.3,0.5c-0.1,0.2-0.3,0.3-0.4,0.5l-0.4,0.5l-0.3,0.3l-0.4,0.4l-0.4,0.4
					c-0.5,0.5-1.2,1.1-2.1,1.9c-0.9,0.7-1.9,1.5-2.9,2.3s-2,1.5-3,2.2c-1,0.7-1.7,1.2-2.3,1.7l0.2,0.3l0.1,0.1l0.1,0.1
					c0.7-0.5,1.6-0.9,2.5-1.3c0.9-0.4,1.8-0.6,2.5-0.6c0.1,0,0.2,0,0.3,0c0.1,0,0.2,0,0.3,0.1c0.8,0.2,1.4,0.5,1.8,0.9
					c0.4,0.4,0.6,0.8,0.7,1.3c0.1,0.4,0.1,0.8,0.1,1.1c0,0.1,0,0.2,0,0.2c0,0-0.1-0.1-0.2-0.1c-0.3-0.2-0.8-0.3-1.6-0.3
					c-0.8,0-1.6,0.1-2.5,0.3c-0.9,0.2-1.7,0.4-2.6,0.7s-1.7,0.6-2.5,0.9c-0.8,0.3-1.6,0.7-2.2,1l-0.1,0l0,0.1
					c-0.1,0-0.2,0.1-0.3,0.1c-0.2,0-0.5-0.1-0.7-0.3c-0.3-0.2-0.6-0.4-0.7-0.6c-0.1-0.1-0.2-0.2-0.3-0.4s-0.3-0.4-0.4-0.5
					c-0.1-0.2-0.2-0.4-0.2-0.5c0-0.1,0-0.2,0.1-0.3c0.4-0.4,0.8-0.8,1.1-1.2c0.4-0.4,0.8-0.8,1.3-1.2c0.4-0.4,0.9-0.9,1.5-1.4
					c0.6-0.5,1.3-1.1,1.9-1.7c0.7-0.6,1.4-1.2,2-1.7c0.7-0.6,1.3-1.1,1.9-1.6c0.6-0.5,1-0.9,1.4-1.2c0.4-0.3,0.6-0.5,0.7-0.6
					l-0.1-0.1l-0.2-0.3l-0.1-0.1c-0.1,0.1-0.3,0.2-0.8,0.3c-0.5,0.1-1,0.2-1.5,0.3c-0.5,0.1-1.1,0.2-1.6,0.2s-0.9,0.1-1.2,0.1
					c-0.6,0-1.2-0.1-1.7-0.3c-0.5-0.2-1-0.5-1.5-0.9c-0.4-0.4-0.8-0.8-1-1.4c-0.2-0.4-0.3-0.8-0.3-1.2c0.2,0.1,0.4,0.1,0.8,0.2
					c0.4,0.1,0.9,0.2,1.6,0.3c0.6,0.1,1.4,0.2,2.3,0.2c0.5,0,1.1,0,1.8-0.1c0.6-0.1,1.3-0.2,2-0.3c0.6-0.1,1.2-0.3,1.8-0.7
					c0.6-0.3,1.1-0.5,1.6-0.7c0.3-0.1,0.7-0.2,1-0.3c0.3-0.1,0.6-0.1,1-0.2c0.4,0,0.7,0.1,1,0.3c0.3,0.2,0.6,0.5,0.9,0.8
					c0.2,0.2,0.4,0.5,0.6,0.9C486.3,118.5,486.3,118.8,486.1,119z"/>
			</g>
			<g>
				<path class="st1" d="M550.1,113.3c-0.1-0.2-0.2-0.3-0.3-0.4c-0.1-0.2-0.2-0.3-0.4-0.5c-0.2-0.2-0.4-0.4-0.6-0.5
					c-0.2-0.2-0.4-0.3-0.6-0.5c-0.2-0.1-0.3-0.2-0.5-0.2c-0.5,0-1-0.1-1.5-0.1c-0.5,0-1-0.1-1.5-0.1l-0.6-0.1l0.3-0.5
					c0.2-0.3,0.4-0.6,0.7-0.9c0.3-0.4,0.5-0.7,0.9-1.1c0.3-0.3,0.6-0.7,1-1c0.3-0.3,0.6-0.5,0.9-0.7v-0.1c0-0.1,0-0.1-0.1-0.2
					c0-0.1-0.1-0.1-0.1-0.2c-0.1-0.1-0.2-0.3-0.4-0.5c-0.2-0.3-0.4-0.5-0.7-0.7c-0.2-0.2-0.5-0.4-0.8-0.5c-0.2-0.1-0.4-0.2-0.6-0.2
					c-0.1,0-0.4,0.1-1.1,0.7c-0.5,0.5-1.1,1.2-1.6,1.9c-0.6,0.8-1.1,1.5-1.6,2.2l-1,1.5l-0.1,0.2h-0.2c-1.5,0-3,0.1-4.4,0.2
					c-1.5,0.1-3,0.3-4.4,0.4c0,0,0,0.1,0,0.1c0,0.2,0.2,0.5,0.4,0.8c0.2,0.3,0.5,0.5,0.7,0.8c0.3,0.2,0.6,0.4,0.9,0.6
					c0.3,0.1,0.5,0.2,0.7,0.2c0.7-0.1,1.4-0.2,2.1-0.2c0.7-0.1,1.4-0.1,2.2-0.2l0.6,0l-0.3,0.5c-1.2,2.3-2.3,4.7-3.3,7.3
					c-0.3,0.9-0.6,1.8-0.9,2.7c-0.1,0.3-0.2,0.6-0.2,0.8c-0.1,0.3-0.2,0.5-0.2,0.8c-0.1,0.2-0.2,0.4-0.3,0.6l0,0
					c0,0.1-0.1,0.3-0.2,0.4c0,0-0.1,0.1-0.1,0.2c-0.4,0.8-0.9,1.6-1.3,2.3c-0.5,0.8-0.9,1.4-1.3,1.9c-0.5,0.6-0.8,0.9-1.2,0.9
					c-0.8,0-0.8-1.1-0.8-1.5c0-0.8,0.2-2.1,0.6-4.1c0.1-0.6,0.3-1.2,0.5-1.8l0.6-1.7c0.1-0.4,0.2-0.9,0.3-1.4
					c0.1-0.4,0.1-0.9,0.1-1.3c0-0.3-0.1-0.7-0.3-1.2c-0.3-0.5-0.6-0.9-1-1.3c-0.4-0.4-0.8-0.8-1.3-1c-0.4-0.3-0.8-0.4-1.2-0.4
					c-0.3,0-0.6,0.1-0.8,0.2c-0.3,0.2-0.5,0.4-0.8,0.6c-0.2,0.2-0.5,0.5-0.7,0.7c-0.1,0.1-0.2,0.3-0.6,0.8c-0.3,0.4-0.7,1-1.1,1.6
					l-1.3,2c-0.5,0.7-0.9,1.4-1.4,2.1c-0.5,0.7-0.9,1.3-1.2,1.8c-0.4,0.5-0.7,1-0.9,1.2l-1.2,1.4l0.6-1.8c0.2-0.7,0.5-1.5,0.8-2.3
					c0.3-0.9,0.6-1.8,0.9-2.7c0.3-1,0.7-1.9,1-2.8c0.3-0.8,0.7-1.6,1-2.3c0.2-0.4,0.4-0.9,0.7-1.4l0.1-0.2c0.3-0.6,0.7-1.3,1.1-2.1
					c0.4-0.7,0.9-1.5,1.3-2.3c0.5-0.8,1-1.5,1.5-2.1c0.5-0.6,1-1.2,1.6-1.7c0.5-0.5,1.1-0.8,1.6-1h0.4c0-0.1-0.2-0.3-0.4-0.6
					c-0.2-0.3-0.5-0.6-0.8-0.9c-0.3-0.3-0.6-0.5-0.9-0.7c-0.3-0.2-0.5-0.3-0.7-0.3c-0.4,0-0.9,0.2-1.4,0.6c-0.5,0.4-1,1-1.6,1.6
					c-0.5,0.6-1,1.3-1.4,1.9c-0.4,0.6-0.7,1.1-1,1.5c-0.9,1.5-1.8,3.2-2.7,5c-0.9,1.8-1.7,3.7-2.4,5.6c-0.3,0.8-0.5,1.5-0.8,2.3
					c0,0,0,0,0,0c-0.1,0.1-0.1,0.3-0.1,0.4c0,0.1-0.1,0.3-0.1,0.4c-0.1,0.1-0.2,0.2-0.3,0.4c-0.1,0.1-0.2,0.2-0.2,0.3
					c-0.2,0.2-0.4,0.5-0.6,0.8c-0.7,0.8-1.4,1.7-2.2,2.5c-0.8,0.9-1.6,1.7-2.4,2.5c-0.8,0.8-1.5,1.4-2.2,1.9
					c-0.8,0.6-1.3,0.8-1.8,0.8c-0.2,0-0.4,0-0.5-0.2c-0.5-0.4-0.8-0.9-0.8-1.6c0-0.6,0-1.2,0.2-1.9c0.2-0.7,0.4-1.4,0.7-2.1
					c0.3-0.7,0.6-1.4,1-2c0.4-0.6,0.7-1.2,1-1.6c0.3-0.5,0.5-0.8,0.7-1l0.2-0.2l0.2-0.2c0.1-0.2,0.3-0.3,0.5-0.5l0.3-0.3l0.2,0.4
					c0.1,0.2,0.2,0.4,0.4,0.7c0.2,0.2,0.4,0.5,0.6,0.7c0.2,0.2,0.5,0.4,0.7,0.5c0.2,0.1,0.4,0.2,0.6,0.2c0,0,0-0.1,0-0.1l-0.1-0.3
					c0-0.1,0-0.2-0.1-0.3l0-0.2v-0.1l0.1-0.1l0.3-0.3c0.1-0.1,0.1-0.1,0.2-0.2l0.1-0.3c0.1-0.2,0.1-0.3,0.1-0.5c0-0.2,0-0.4,0-0.6
					c0-0.3-0.1-0.7-0.3-1c-0.2-0.4-0.5-0.8-0.8-1.2c-0.3-0.3-0.7-0.7-1-0.9c-0.3-0.2-0.7-0.3-1-0.3c-0.3,0-0.7,0.1-1.1,0.3
					c-0.4,0.2-0.8,0.4-1.1,0.6c-1,0.8-1.9,1.7-2.5,2.8c-0.7,1.1-1.3,2.2-1.8,3.3c-0.2,0.4-0.3,0.8-0.5,1.2l0,0
					c0,0.1-0.1,0.2-0.1,0.4c-0.1,0.3-0.2,0.5-0.3,0.8c0,0,0,0,0,0c0,0.2-0.1,0.4-0.1,0.6c-0.1,0.2-0.2,0.3-0.3,0.5
					c-0.1,0.1-0.1,0.3-0.2,0.4c0,0,0,0,0,0c-0.1,0.2-0.2,0.3-0.3,0.5c-0.5,0.9-1,1.7-1.5,2.3c-0.5,0.7-1,1-1.4,1
					c-0.3,0-0.5-0.2-0.8-0.5c-0.2-0.5-0.3-1.1-0.3-1.9c0-0.8,0.2-1.6,0.4-2.5c0.2-0.9,0.4-1.8,0.7-2.7c0.3-0.9,0.5-1.7,0.8-2.5
					c0.3-0.7,0.5-1.3,0.7-1.8c0.2-0.4,0.2-0.6,0.2-0.7c0.1-0.2,0-0.5-0.3-0.7c-0.3-0.3-0.6-0.5-1-0.7c-0.4-0.2-0.8-0.3-1.1-0.5
					c-0.3-0.1-0.4-0.1-0.5-0.1l-0.1,0.3l-0.1,0.2c0,0.2-0.1,0.4-0.2,0.6c-0.1,0.2-0.1,0.4-0.2,0.5l-0.2,0.4l-0.3-0.3
					c-0.4-0.4-0.9-0.8-1.5-1.1c-0.5-0.3-1-0.5-1.7-0.5c-0.6,0-1.2,0.2-1.8,0.5c-0.6,0.3-1.2,0.8-1.6,1.4c-0.5,0.6-1,1.3-1.4,2
					c-0.4,0.8-0.8,1.5-1.1,2.3c-0.3,0.8-0.6,1.5-0.8,2.2c-0.2,0.7-0.4,1.3-0.5,1.9c-0.1,0.5-0.1,1-0.2,1.5c0,0.5,0,0.9,0.2,1.4
					c0.1,0.3,0.3,0.7,0.6,1.1c0.3,0.4,0.6,0.8,1,1.2c0.4,0.3,0.8,0.6,1.2,0.9c0.4,0.2,0.7,0.4,1.1,0.4c0.1,0,0.3-0.1,0.8-0.6
					c0.4-0.5,0.8-1,1.2-1.6c0.4-0.6,0.8-1.2,1.1-1.8c0.4-0.6,0.6-1,0.8-1.2l0.5-0.6l0.1,0.8c0.1,0.3,0.1,0.7,0,1.1
					c0,0.3,0,0.7,0.1,1.1c0.1,0.4,0.3,0.7,0.4,1.1c0.2,0.3,0.4,0.6,0.7,0.9c0.3,0.2,0.6,0.5,0.9,0.7c0.3,0.2,0.7,0.2,1,0.2
					c0.6,0,1.3-0.3,1.9-0.8c0.6-0.5,1.3-1.3,1.9-2.1c0.2-0.3,0.5-0.7,0.7-1c0.1,0,0.1-0.1,0.1-0.2c0-0.1,0.1-0.1,0.1-0.2
					c0,0.1,0,0.1,0.1,0.2v0c0,0.1,0,0.1,0,0.2c0,0.1,0.1,0.2,0.1,0.4c0.1,0.4,0.3,0.8,0.6,1.2c0.2,0.4,0.5,0.8,0.9,1.1
					c0.3,0.3,0.7,0.6,1.1,0.8c0.4,0.2,0.8,0.3,1.2,0.3c0.6,0,1.4-0.3,2.2-0.8c0.8-0.5,1.7-1.3,2.6-2.1c0.9-0.9,1.8-1.8,2.6-2.8
					c0.4-0.5,0.8-0.9,1.1-1.4c0.1-0.1,0.2-0.2,0.2-0.3c0.1-0.1,0.2-0.2,0.2-0.3c0,0.2-0.1,0.3-0.1,0.5c0,0.1-0.1,0.2-0.1,0.4
					c-0.4,1.6-0.7,3.1-0.9,4.6c0,0,0,0.1,0.1,0.3l0.3,0.4c0,0.1,0.2,0.2,0.4,0.4c0.2,0.2,0.4,0.4,0.7,0.7c0.2,0.2,0.5,0.4,0.7,0.6
					c0.2,0.1,0.3,0.2,0.3,0.2c0.4-0.4,0.8-0.7,1.1-1.1c0.4-0.4,0.7-0.9,1.1-1.3c1-1.2,2-2.5,3-3.7c1-1.2,1.9-2.5,2.9-3.7
					c1-1.2,2-2.4,3.1-3.6l0.1-0.1l0.9-0.9l-0.4,1.3c-0.3,1-0.5,1.9-0.8,2.8c-0.2,0.9-0.5,1.9-0.6,2.8c-0.1,0.4-0.1,0.8-0.1,1.2
					c-0.1,0.5-0.1,0.9-0.1,1.4c0,0.5,0,0.9,0.1,1.3c0,0.4,0.1,0.8,0.2,1.1c0.2,0.5,0.6,1,1.1,1.5c0.5,0.5,1,0.7,1.5,0.7
					s1.1-0.2,1.6-0.7c0.6-0.5,1.2-1.2,1.8-2c0-0.1,0.1-0.1,0.1-0.2c0.1-0.1,0.1-0.2,0.2-0.3v0c0.1-0.1,0.1-0.2,0.2-0.3
					c0,0.1,0,0.2,0,0.4c0,0.1,0,0.2,0,0.3c0,0.2,0,0.4,0,0.5c0,0.8,0.1,1.7,0.2,2.5c0.2,0.9,0.5,1.7,1.1,2.4
					c0.5,0.7,1.2,1.3,1.9,1.8c0.1,0,0.2,0.1,0.4,0.2c0.1,0.1,0.2,0.1,0.3,0.1c0,0,0-0.1,0-0.1c-0.1-0.2-0.2-0.4-0.3-0.6
					c-0.1-0.2-0.3-0.4-0.5-0.6l0,0l0-0.1c-0.1-0.2-0.1-0.3-0.1-0.5c-0.1-0.2-0.1-0.3-0.1-0.4l0,0V136c0,0,0-0.2,0-0.3
					c0-0.1,0-0.2,0-0.3c-0.1-0.6-0.1-1.1,0-1.7c0-1.6,0.3-3.4,0.8-5.2c0.5-1.8,1-3.6,1.7-5.3c0.7-1.8,1.4-3.5,2.3-5.2
					c0.8-1.6,1.6-3.1,2.5-4.5l0.1-0.2h0.2c2.4,0,4.8,0.1,7.2,0.3h0.1c0.1,0,0.1,0,0.1,0C550.2,113.5,550.2,113.4,550.1,113.3z
					 M495.5,119.7c-0.7,2.1-1.4,3.8-2.2,5.1c-0.8,1.3-1.6,2.4-2.4,3.1c-0.8,0.8-1.4,1.3-1.9,1.6c-0.7,0.4-0.8,0.5-0.8,0.6l-0.8,0.7
					l0.2-1c0.1-0.5,0.3-1.2,0.5-1.9c0.2-0.7,0.5-1.4,0.8-2.2c0.3-0.8,0.7-1.5,1.1-2.3c0.4-0.8,0.9-1.4,1.4-2
					c0.5-0.6,1.1-1.1,1.7-1.5c0.6-0.4,1.4-0.6,2.1-0.7l0.5,0L495.5,119.7z"/>
			</g>
			<g>
				<g>
					<path class="st1" d="M396,108.3c0-0.2-0.1-0.3-0.1-0.4c-0.1-0.2-0.2-0.5-0.4-0.7c-0.2-0.2-0.4-0.5-0.6-0.7
						c-0.3-0.2-0.5-0.4-0.7-0.6c-0.2-0.2-0.5-0.2-0.7-0.2c-0.2,0-0.6,0.1-1.2,0.7c-0.5,0.5-1,1.2-1.6,1.9c-0.5,0.8-1.1,1.7-1.6,2.6
						c-0.5,0.9-1,1.8-1.5,2.8c-0.5,0.9-0.8,1.6-1.2,2.3l0,0.1c-0.3,0.6-0.6,1.2-0.8,1.6l-0.2,0.4l-0.1-0.4c-0.1-0.3-0.3-0.7-0.5-1
						c-0.3-0.3-0.5-0.6-0.9-0.8c-0.3-0.2-0.7-0.4-1.1-0.6c-0.4-0.1-0.7-0.2-1.1-0.2c-0.6,0-1.1,0.2-1.7,0.5
						c-0.6,0.3-1.2,0.8-1.7,1.4c-0.6,0.6-1.1,1.2-1.6,1.9c-0.6,0.8-1,1.5-1.4,2.2c-0.4,0.7-0.8,1.5-1.1,2.1
						c-0.3,0.7-0.6,1.3-0.8,1.8c-0.3,0.7-0.5,1.5-0.7,2.3c-0.2,0.8-0.3,1.5-0.2,2.3c0.1,0.5,0.2,0.9,0.4,1.4
						c0.2,0.5,0.5,0.9,0.9,1.4s0.8,0.8,1.2,1c0.4,0.3,0.9,0.4,1.4,0.4c0.5,0,1-0.1,1.5-0.4c0.5-0.3,1-0.7,1.5-1.1
						c0.5-0.4,0.9-0.9,1.4-1.4c0.4-0.5,0.8-0.9,1-1.3l0.3-0.5l-0.1,0.6c0,0.1,0,0.2,0,0.3c0,0.1,0,0.2,0,0.3c0,0.1,0,0.2,0,0.3
						c0,0.1,0,0.2,0,0.3c-0.1,0.9-0.1,1.7-0.1,2.5c0,0.9,0.1,1.7,0.3,2.5c0.2,0.9,0.6,1.7,1,2.5c0.5,0.8,1.1,1.4,1.9,1.9
						c0.3,0.2,0.6,0.3,0.9,0.3c0.1,0,0.2-0.1,0.2-0.2c0-0.1,0-0.2,0-0.3c0-0.3-0.2-0.6-0.3-0.9c-0.2-0.3-0.4-0.5-0.7-0.8l0,0l0,0
						c0-0.1,0-0.1-0.1-0.2c0,0,0-0.1-0.1-0.2l0,0l0,0c-0.1-0.5-0.1-1-0.2-1.6c-0.1-0.5-0.1-1-0.1-1.6c0.1-1.8,0.4-3.7,0.9-5.8
						c0.5-2,1.1-4,1.9-6c0.8-2,1.6-4,2.6-5.9c0.9-1.8,2-3.6,3-5.1c0.1-0.2,0.3-0.4,0.4-0.7l0.1-0.2c0.2-0.2,0.4-0.5,0.5-0.7l0.2-0.2
						c0.3-0.3,0.5-0.6,0.8-0.9c0.3-0.3,0.5-0.5,0.8-0.6C396,108.6,396.1,108.5,396,108.3z M385.2,118.8c-0.4,0.8-0.7,1.7-1,2.6
						c-0.3,0.9-0.6,1.8-0.9,2.6c-0.7,1.1-1.3,2.2-2,3.2c-0.7,1-1.3,1.9-1.9,2.6c-0.6,0.7-1.2,1.3-1.8,1.8c-0.6,0.5-1.1,0.7-1.6,0.7
						c-0.3,0-0.5-0.1-0.7-0.2l0,0l0,0c0,0-0.1,0-0.1-0.1l0,0l0-0.1v-0.1c0-0.1,0-0.1,0-0.2v-0.6c0.1-0.9,0.3-2,0.8-3.4
						c0.5-1.3,1.1-2.5,1.8-3.8c0.7-1.2,1.5-2.4,2.4-3.4c0.9-1,1.8-1.8,2.7-2.2c0.3-0.1,0.6-0.2,1.1-0.2h0c0.1,0,0.2,0,0.2,0l0,0l0,0
						c0.2,0.2,0.5,0.3,0.7,0.3l0.2,0L385.2,118.8z"/>
				</g>
			</g>
		</g>
		<g>
			<path class="st1" d="M363,132.3c0,0.4,0,0.8-0.1,1.2c-0.1,0.5-0.2,0.8-0.3,1c-0.1,0.2-0.2,0.6-0.5,1c-0.2,0.4-0.4,0.8-0.7,1.2
				c-0.3,0.4-0.5,0.7-0.8,1c-0.3,0.2-0.5,0.4-0.7,0.4c-0.1,0-0.2,0-0.2,0c0,0-0.1,0-0.1,0c0,0,0,0,0,0c0.2-0.2,0.4-0.5,0.6-0.9
				c0.2-0.4,0.4-0.8,0.4-1.3c0.1-0.5-0.1-1.1-0.4-1.6c-0.3-0.4-0.4-0.8-0.4-1.1c0-0.4,0.1-0.7,0.2-1c0.1-0.3,0.3-0.5,0.5-0.7
				c0.2-0.2,0.5-0.3,0.7-0.3c0.1,0,0.2,0,0.3,0c0.1,0,0.2,0,0.3,0c0.5,0,0.8,0.1,1,0.3C362.9,131.7,363,132,363,132.3z"/>
		</g>
		<g>
			<path class="st1" d="M241.6,121.7l-0.1,0.2C241.6,121.8,241.6,121.7,241.6,121.7z"/>
		</g>
		<g>
			<path class="st1" d="M271.6,123.8c-0.1,0.7-0.3,1.4-0.5,2.1c-0.2,0.8-0.6,1.7-1,2.6c-0.4,0.9-0.9,1.8-1.5,2.5
				c-0.6,0.8-1.3,1.4-2,2c-0.7,0.5-1.6,0.7-2.5,0.7c-0.7,0-1.3-0.2-1.9-0.5c-0.6-0.3-1.2-0.7-1.6-1.2c-0.5-0.5-0.9-1.1-1.2-1.7
				c0-0.1-0.1-0.2-0.1-0.3c0-0.1-0.1-0.1-0.1-0.2c0-0.1-0.1-0.1-0.1-0.2c0,0.1-0.1,0.1-0.1,0.2c0,0.1-0.1,0.1-0.1,0.2
				c-0.2,0.4-0.5,0.7-0.7,1.1c-0.6,0.8-1.2,1.4-1.7,2c-0.6,0.5-1.1,0.7-1.7,0.7c-0.5,0-1-0.2-1.5-0.7c-0.5-0.5-0.8-1-1-1.5
				c-0.1-0.3-0.2-0.7-0.3-1.1c0-0.4-0.1-0.9-0.1-1.3c0-0.5,0-1,0-1.4c0-0.5,0.1-0.9,0.1-1.2c0.1-1,0.3-1.9,0.6-2.8
				c0.3-0.9,0.6-1.9,0.8-2.8l0.4-1.3l-0.9,0.9l-0.1,0.1c-1,1.2-2.1,2.3-3,3.6c-1,1.2-1.9,2.5-2.9,3.7c-1,1.2-2,2.5-3,3.7
				c-0.3,0.4-0.7,0.8-1.1,1.3c-0.3,0.4-0.7,0.8-1.1,1.1c-0.1,0-0.2-0.1-0.3-0.2c-0.2-0.2-0.5-0.3-0.7-0.6l-0.7-0.7
				c-0.2-0.2-0.3-0.4-0.4-0.4l-0.3-0.4c-0.1-0.2-0.1-0.2-0.1-0.3c0.3-1.8,0.7-3.7,1.2-5.6c0.2-0.7,0.4-1.4,0.6-2.1
				c0-0.1,0.1-0.2,0.1-0.3c0,0,0-0.1,0.1-0.2l0.4-1.3l0.1-0.2l0.1-0.4c0.1-0.5,0.3-1,0.5-1.4c0.7-1.9,1.5-3.8,2.4-5.6
				c0.9-1.8,1.8-3.5,2.7-5c0.2-0.4,0.5-0.9,1-1.5c0.4-0.6,0.9-1.2,1.4-1.9c0.5-0.6,1-1.1,1.6-1.6c0.5-0.4,1-0.6,1.4-0.6
				c0.2,0,0.4,0.1,0.7,0.3c0.3,0.2,0.6,0.5,0.9,0.7c0.3,0.3,0.5,0.6,0.8,0.9c0.2,0.3,0.3,0.5,0.4,0.6H255c-0.5,0.1-1.1,0.5-1.6,1
				c-0.5,0.5-1,1-1.6,1.7c-0.5,0.7-1,1.4-1.5,2.1c-0.5,0.8-0.9,1.5-1.3,2.3c-0.4,0.8-0.8,1.5-1.1,2.1l-0.1,0.2
				c-0.3,0.6-0.5,1-0.7,1.4c-0.3,0.7-0.6,1.4-1,2.3c-0.4,0.9-0.7,1.8-1,2.8c-0.3,0.9-0.6,1.9-0.9,2.7c-0.3,0.9-0.6,1.6-0.8,2.3
				l-0.6,1.8l1.2-1.4c0.2-0.3,0.5-0.7,0.9-1.2c0.4-0.5,0.8-1.1,1.2-1.8c0.5-0.7,0.9-1.3,1.4-2.1l1.3-2c0.4-0.6,0.8-1.2,1.1-1.6
				c0.4-0.5,0.6-0.7,0.6-0.8c0.2-0.2,0.5-0.5,0.7-0.7c0.2-0.2,0.5-0.4,0.8-0.6c0.2-0.1,0.5-0.2,0.8-0.2c0.4,0,0.8,0.1,1.2,0.4
				c0.5,0.3,0.9,0.6,1.3,1c0.4,0.4,0.7,0.9,1,1.3c0.2,0.4,0.4,0.8,0.4,1.2c0,0.4,0,0.9-0.1,1.3c-0.1,0.5-0.2,0.9-0.4,1.4
				c-0.2,0.6-0.4,1.1-0.5,1.7c-0.2,0.6-0.3,1.2-0.5,1.8c-0.4,1.9-0.6,3.2-0.6,4.1c0,0.4,0,1.5,0.8,1.5c0.3,0,0.7-0.3,1.2-0.9
				c0.4-0.5,0.8-1.1,1.3-1.9c0.3-0.5,0.6-1,0.9-1.5c0-0.1,0.1-0.2,0.1-0.3c0.1-0.1,0.1-0.2,0.2-0.4c0-0.1,0-0.3,0-0.4v0
				c0-0.1,0-0.2,0-0.3c0-0.1,0-0.2,0.1-0.3c0.1-0.6,0.2-1.2,0.4-1.8c0.1-0.3,0.3-0.8,0.5-1.4c0.2-0.6,0.5-1.2,0.8-1.8
				c0.3-0.6,0.6-1.1,1-1.6c0.3-0.4,0.7-0.6,1-0.6c0.2,0,0.4,0.1,0.6,0.1c0.2,0.1,0.5,0.3,0.7,0.5c0.2,0.2,0.4,0.4,0.6,0.6
				c0.2,0.2,0.3,0.4,0.5,0.6c0.1,0.1,0.1,0.2,0.2,0.4c0,0.1,0.1,0.2,0.1,0.2h-0.1c-0.1,0-0.1,0-0.2,0h0l-0.1,0
				c-0.3,0.1-0.5,0.3-0.7,0.6c-0.2,0.2-0.4,0.4-0.5,0.6c-0.7,1.2-1.3,2.5-1.8,3.8c-0.4,1.4-0.6,2.8-0.6,4.2v0.3h0.3
				c0.3,0,0.6,0,0.8-0.1c0.2-0.1,0.5-0.1,0.8-0.2c0.8-0.3,1.5-0.8,2.1-1.6c0.6-0.7,1.2-1.5,1.7-2.4c0.5-0.8,0.9-1.7,1.2-2.7
				c0.3-0.9,0.6-1.7,0.7-2.5c0.2-0.8,0.3-1.7,0.2-2.7l0-0.3l0-0.3l-0.3,0c-0.5,0-1.1,0.1-1.6,0.2c-0.5,0.1-1,0.3-1.5,0.5
				c0,0,0,0-0.1,0c-0.1,0-0.3-0.1-0.5-0.2c-0.2-0.2-0.5-0.4-0.8-0.6c-0.2-0.2-0.5-0.5-0.7-0.7c-0.2-0.2-0.3-0.4-0.4-0.5
				c0-0.1,0-0.2-0.1-0.4c0,0,0,0,0,0c0.5-0.2,0.9-0.4,1.4-0.5c0.5-0.2,1-0.2,1.6-0.2c0.7,0,1.3,0.2,1.9,0.5c0.6,0.4,1.2,0.8,1.7,1.4
				c0.5,0.6,0.9,1.2,1.2,1.9c0.3,0.7,0.5,1.4,0.6,2C271.7,122.4,271.7,123.1,271.6,123.8z"/>
		</g>
		<g>
			<path class="st1" d="M290.5,119.9c0-0.3-0.2-0.5-0.4-0.8c-0.2-0.3-0.5-0.6-0.8-0.9c-0.3-0.3-0.7-0.6-1-0.9
				c-0.4-0.3-0.8-0.5-1.2-0.7c-0.4-0.2-0.8-0.2-1.1-0.2c-0.7,0-1.4,0.2-2.1,0.7c-0.7,0.5-1.5,1.1-2.1,1.8c-0.7,0.7-1.3,1.4-1.9,2.2
				c-0.6,0.8-1,1.4-1.4,2l-1.3,2l0.7-2.3c0.2-0.7,0.4-1.4,0.6-2.1c0.2-0.7,0.4-1.4,0.6-2c-0.1-0.2-0.2-0.3-0.2-0.3
				c0-0.1-0.1-0.2-0.4-0.5c-0.2-0.3-0.5-0.5-0.8-0.8c-0.3-0.2-0.5-0.5-0.8-0.7c-0.1-0.1-0.2-0.1-0.3-0.2c-1.1,3.8-2.3,7.6-3.4,11.3
				c-1.2,3.8-2.2,7.7-3.1,11.6c-0.2,1-0.4,1.9-0.5,2.9c-0.2,1-0.3,2-0.4,3c0,0,0,0.1,0.1,0.2c0.2,0.2,0.3,0.3,0.3,0.4
				c0.1,0.1,0.2,0.3,0.4,0.5c0.2,0.2,0.5,0.4,0.7,0.7c0.2,0.2,0.5,0.4,0.7,0.6c0.1,0.1,0.1,0.1,0.2,0.1c0.6-2.8,1.5-5.5,2.5-8.1
				c1.1-2.7,2.3-5.4,3.6-8l0.3-0.5l0.3,0.5c0.2,0.3,0.5,0.7,0.9,1.1c0.4,0.4,0.8,0.8,1.3,1.1c0.5,0.4,1,0.7,1.4,0.9
				c0.5,0.2,0.9,0.3,1.2,0.3c0.5,0,1-0.1,1.5-0.3c0.5-0.2,1-0.5,1.4-0.9c0.5-0.4,0.9-0.8,1.2-1.2c0.4-0.5,0.7-0.9,1-1.3
				c0.7-1.1,1.3-2.4,1.6-3.7c0.4-1.3,0.6-2.7,0.7-4c0-0.7,0-1.5,0-2.2C290.6,120.6,290.5,120.2,290.5,119.9z M288,121.5
				c-0.1,0.9-0.4,2-0.7,3.1c-0.3,1.1-0.8,2.2-1.4,3.2c-0.6,1-1.3,1.9-2.1,2.7c-0.8,0.8-1.8,1.3-2.9,1.6l-0.6,0.1l0.1-0.6
				c0-0.1,0-0.2,0.1-0.2c0-0.1,0-0.2,0.1-0.3c-0.1-0.1-0.2-0.3-0.2-0.4c-0.2-0.2-0.4-0.5-0.6-0.7c-0.3-0.2-0.5-0.5-0.8-0.8l-0.2-0.2
				l0.1-0.2c0.5-0.8,1-1.7,1.7-2.8c0.6-1,1.4-2,2.1-3c0.8-1,1.6-1.9,2.4-2.7c0.9-0.8,1.7-1.4,2.6-1.7l0.4-0.2l0,0.5
				C288.2,119.9,288.2,120.7,288,121.5z"/>
		</g>
		<g>
			<path class="st1" d="M315.2,116.5c0-0.1-0.1-0.2-0.1-0.2C315.1,116.4,315.1,116.5,315.2,116.5c0,0,0,0.1,0.1,0.1
				C315.2,116.6,315.2,116.6,315.2,116.5z M312.6,131.5c0-0.1-0.1-0.2-0.1-0.2C312.5,131.3,312.5,131.4,312.6,131.5c0,0,0,0.1,0,0.1
				C312.6,131.6,312.6,131.5,312.6,131.5z M312.4,133.9c0,0.1,0,0.1-0.1,0.2C312.4,134,312.4,133.9,312.4,133.9
				c0.1-0.1,0.1-0.2,0.1-0.3C312.5,133.6,312.4,133.7,312.4,133.9z M312.2,130.7c-0.1-0.2-0.3-0.5-0.4-0.7
				C312,130.2,312.1,130.5,312.2,130.7c0,0,0,0.1,0.1,0.2C312.3,130.8,312.3,130.7,312.2,130.7z M311.8,134.9
				c0.2-0.2,0.4-0.5,0.5-0.7C312.1,134.4,311.9,134.7,311.8,134.9z M310.3,127.9l-0.2-0.3L310.3,127.9c0.2,0.2,0.3,0.5,0.5,0.7
				C310.6,128.3,310.4,128.1,310.3,127.9z M309.4,126.7l0.2,0.3h0L309.4,126.7z M307.4,123.4c0.1,0.2,0.2,0.4,0.3,0.7
				C307.6,123.8,307.5,123.6,307.4,123.4z"/>
			<path class="st1" d="M315.2,116.5c0-0.1-0.1-0.2-0.1-0.2C315.1,116.4,315.1,116.5,315.2,116.5c0,0,0,0.1,0.1,0.1
				C315.2,116.6,315.2,116.6,315.2,116.5z M312.6,131.5c0-0.1-0.1-0.2-0.1-0.2C312.5,131.3,312.5,131.4,312.6,131.5c0,0,0,0.1,0,0.1
				C312.6,131.6,312.6,131.5,312.6,131.5z M312.4,133.9c0,0.1,0,0.1-0.1,0.2C312.4,134,312.4,133.9,312.4,133.9
				c0.1-0.1,0.1-0.2,0.1-0.3C312.5,133.6,312.4,133.7,312.4,133.9z M312.2,130.7c-0.1-0.2-0.3-0.5-0.4-0.7
				C312,130.2,312.1,130.5,312.2,130.7c0,0,0,0.1,0.1,0.2C312.3,130.8,312.3,130.7,312.2,130.7z M311.8,134.9
				c0.2-0.2,0.4-0.5,0.5-0.7C312.1,134.4,311.9,134.7,311.8,134.9z M310.3,127.9l-0.2-0.3L310.3,127.9c0.2,0.2,0.3,0.5,0.5,0.7
				C310.6,128.3,310.4,128.1,310.3,127.9z M309.4,126.7l0.2,0.3h0L309.4,126.7z M307.4,123.4c0.1,0.2,0.2,0.4,0.3,0.7
				C307.6,123.8,307.5,123.6,307.4,123.4z"/>
			<path class="st1" d="M307.4,123.4c0.1,0.2,0.2,0.4,0.3,0.7C307.6,123.8,307.5,123.6,307.4,123.4z"/>
			<polygon class="st1" points="309.4,126.7 309.6,126.9 309.6,126.9 			"/>
			<path class="st1" d="M310.3,127.9c0.2,0.2,0.4,0.5,0.5,0.7C310.6,128.3,310.4,128.1,310.3,127.9l-0.2-0.3L310.3,127.9z"/>
			<path class="st1" d="M311.8,134.9c0.2-0.2,0.3-0.5,0.5-0.7C312.1,134.4,311.9,134.7,311.8,134.9z"/>
			<path class="st1" d="M312.3,130.9c0-0.1-0.1-0.1-0.1-0.2c-0.1-0.2-0.3-0.5-0.4-0.7c0.1,0.2,0.3,0.5,0.4,0.7
				C312.3,130.7,312.3,130.8,312.3,130.9z"/>
			<path class="st1" d="M312.4,133.9c0.1-0.1,0.1-0.2,0.1-0.3C312.5,133.6,312.5,133.7,312.4,133.9c0,0.1,0,0.1-0.1,0.2
				C312.4,134,312.4,133.9,312.4,133.9z"/>
			<path class="st1" d="M312.6,131.5c0,0,0,0.1,0,0.1C312.6,131.6,312.6,131.5,312.6,131.5c0-0.1-0.1-0.2-0.1-0.2
				C312.5,131.3,312.5,131.4,312.6,131.5z"/>
			<path class="st1" d="M315.2,116.6c0,0,0-0.1-0.1-0.1c0-0.1-0.1-0.2-0.1-0.2c0,0.1,0.1,0.2,0.1,0.2
				C315.2,116.6,315.2,116.6,315.2,116.6z"/>
		</g>
		<g>
			<path class="st1" d="M316,123.7c0,0.1-0.1,0.2-0.1,0.3C315.9,123.9,315.9,123.8,316,123.7z"/>
			<path class="st1" d="M329.3,106.9C329.3,106.9,329.3,106.9,329.3,106.9c-0.3,0.2-0.5,0.4-0.8,0.6c-0.2,0.2-0.5,0.5-0.7,0.8
				c-0.8,0.9-1.7,2.1-2.6,3.4c-0.9,1.3-1.7,2.7-2.5,4.2c-0.8,1.5-1.5,3.1-2.2,4.8c-0.7,1.7-1.3,3.3-1.8,4.9
				c-0.5,1.6-0.9,3.2-1.2,4.8c-0.3,1.5-0.4,3-0.4,4.3c0,0.2,0,0.3,0,0.5c0,0.2,0,0.4,0,0.6l0,0.1v0.1c0,0.1,0,0.2,0,0.2v0.1l0,0.1
				c0,0.1,0.1,0.3,0.1,0.4c0,0.2,0.1,0.4,0.1,0.5l0,0.1l0.1,0.1c0.3,0.3,0.6,0.7,0.8,1.1c0,0,0,0.1,0.1,0.3c0,0-0.1,0-0.2,0
				c-0.1,0-0.1-0.1-0.2-0.1c-0.8-0.5-1.5-1.1-2.1-1.9c-0.6-0.8-1-1.6-1.2-2.6c-0.2-0.8-0.3-1.6-0.3-2.5c0-0.8,0.1-1.7,0.2-2.5
				c0.2-1.8,0.6-3.6,1.1-5.4c0-0.1,0-0.2,0.1-0.3c0-0.1,0-0.2,0.1-0.3c-0.1,0.1-0.2,0.1-0.2,0.2c-0.1,0.1-0.2,0.1-0.2,0.2
				c-0.6,0.4-1.1,0.8-1.7,1.1c-1.2,0.8-2.4,1.6-3.6,2.5l-0.3,0.2l0.2,0.3c0.2,0.2,0.4,0.5,0.5,0.7c0.2,0.2,0.4,0.5,0.5,0.7
				c0.2,0.2,0.3,0.5,0.5,0.7c0.1,0.2,0.3,0.5,0.4,0.7c0,0,0.1,0.1,0.1,0.2c0.1,0.1,0.1,0.2,0.2,0.4c0,0.1,0,0.2,0.1,0.2
				c0,0,0,0.1,0,0.1c0,0,0,0.1,0,0.1c0,0.1,0.1,0.3,0.1,0.4c0,0.1,0,0.3,0,0.4c0,0.3-0.1,0.6-0.2,0.9c0,0.1-0.1,0.2-0.1,0.3
				c0,0.1,0,0.1-0.1,0.2c0,0,0,0.1-0.1,0.2c-0.1,0.2-0.3,0.5-0.5,0.7c-0.1,0.1-0.2,0.2-0.3,0.4c-0.3,0.3-0.8,0.7-1.4,1.1
				c-0.6,0.4-1.3,0.8-2,1.1c-0.7,0.3-1.4,0.6-2,0.8c-0.7,0.2-1.3,0.3-1.7,0.3c-0.4,0-0.7-0.1-1.1-0.2c-0.3-0.1-0.6-0.4-1-0.7
				l-0.6-0.5c-0.2-0.2-0.4-0.5-0.5-0.7c-0.1-0.1-0.1-0.2-0.2-0.2c0-0.1-0.1-0.2-0.1-0.3l0.9-0.1c0.6-0.1,1.4-0.2,2.3-0.5
				c0.9-0.3,1.8-0.6,2.7-1s1.7-1,2.3-1.6c0.2-0.2,0.3-0.3,0.5-0.5s0.2-0.3,0.3-0.5c0.2-0.4,0.3-0.8,0.4-1.1c0-0.2,0-0.4-0.1-0.5
				c0-0.1-0.1-0.2-0.1-0.2c0-0.1-0.1-0.2-0.1-0.3c-0.1-0.1-0.1-0.2-0.2-0.2c0-0.1-0.1-0.2-0.2-0.2c0,0-0.1-0.1-0.1-0.1
				c-0.1-0.1-0.1-0.1-0.1-0.2c0,0,0,0,0,0l-0.2-0.2h0l-0.2,0.2c-1.6,1.4-3,2.7-4.2,3.8c-1.3,1.1-2.3,2.1-3.1,2.8l-0.6,0.6
				c0,0,0-0.1,0-0.1c0-0.2,0-0.4,0.1-0.7c0.1-0.3,0.3-0.7,0.5-1c0.1-0.1,0.2-0.2,0.3-0.3c0.2-0.3,0.5-0.6,0.8-0.9
				c0.3-0.3,0.5-0.5,0.8-0.8c0.6-0.5,1.2-1,1.7-1.6c0.5-0.5,1-0.9,1.6-1.3c0.5-0.4,1.1-0.8,1.7-1.3l0.3-0.2h0l-0.2-0.3
				c0-0.1-0.1-0.1-0.1-0.2c-0.1-0.1-0.2-0.3-0.3-0.4c-0.1-0.1-0.1-0.2-0.2-0.3c-0.2-0.4-0.5-0.7-0.8-1.1c-0.1-0.2-0.2-0.4-0.4-0.6
				c-0.1-0.2-0.2-0.4-0.4-0.6c-0.2-0.4-0.4-0.7-0.6-1c-0.1-0.2-0.2-0.4-0.3-0.6c-0.2-0.6-0.4-1.1-0.4-1.6c0-0.5,0.1-1,0.3-1.5
				c0.1-0.2,0.1-0.3,0.2-0.5c0.3-0.6,0.7-1.2,1.2-1.7c0.5-0.5,1.1-1,1.8-1.4c0.7-0.4,1.4-0.7,2.1-0.9c0.7-0.2,1.4-0.3,2-0.3
				c0.6,0,1.1,0.1,1.5,0.3c0.2,0.1,0.4,0.2,0.5,0.5c0.1,0.1,0.2,0.2,0.3,0.3c0.1,0.1,0.1,0.1,0.1,0.2c0,0.1,0.1,0.2,0.1,0.2
				c0,0,0,0.1,0.1,0.1c0,0,0,0.1,0.1,0.2l0.1,0.3l0.1,0.2c0.1,0.2,0.1,0.3,0.2,0.5c0,0.1,0,0.2,0,0.2c0,0,0,0.1,0,0.1
				c0,0-0.1,0-0.1,0c-0.6,0-1.3,0.1-2.1,0.2c-0.8,0.2-1.6,0.4-2.4,0.6c-0.8,0.3-1.5,0.7-2.1,1.1c-0.3,0.2-0.6,0.5-0.9,0.8
				c-0.1,0.1-0.2,0.3-0.3,0.4c-0.1,0.2-0.2,0.3-0.3,0.5c-0.1,0.1-0.1,0.3-0.2,0.5c-0.1,0.2-0.1,0.5,0,0.9c0,0.1,0.1,0.2,0.1,0.3
				c0.1,0.2,0.2,0.4,0.3,0.7c0.1,0.1,0.1,0.3,0.2,0.4c0.3,0.6,0.8,1.3,1.4,2.2l0.2,0.3h0l0.3-0.2c0.5-0.3,1.1-0.8,1.9-1.3
				c0.8-0.5,1.5-1,2.2-1.4c0.7-0.5,1.3-0.9,1.9-1.3c0,0,0.1,0,0.1-0.1c0.1-0.1,0.2-0.1,0.2-0.2c0.1-0.1,0.2-0.1,0.2-0.2
				c0-0.1,0-0.2,0.1-0.3c0-0.1,0-0.2,0.1-0.2c0.1-0.3,0.2-0.5,0.3-0.8c1-2.7,2.2-5.3,3.5-7.8c0.1-0.2,0.3-0.6,0.6-1.1
				c0.3-0.5,0.6-1.1,1.1-1.8c0.4-0.7,0.8-1.3,1.3-2.1c0.5-0.7,0.9-1.3,1.4-2c0.4-0.5,0.9-1,1.2-1.4c0.5-0.5,0.7-0.5,0.8-0.5
				c0.1,0,0.2,0,0.5,0.2c0.2,0.2,0.5,0.4,0.7,0.6c0.2,0.2,0.5,0.5,0.7,0.7c0.2,0.2,0.3,0.4,0.4,0.7
				C329.2,106.7,329.2,106.8,329.3,106.9z"/>
		</g>
		<g>
			<path class="st1" d="M325.3,129.9c0,0.1,0,0.2,0,0.3C325.3,130.1,325.3,130,325.3,129.9c0-0.1,0-0.2,0.1-0.3
				C325.4,129.8,325.3,129.8,325.3,129.9z M328.6,117.2L328.6,117.2c0.1,0.1,0.2,0.3,0.4,0.4C328.8,117.5,328.7,117.3,328.6,117.2z
				 M329.3,118c-0.1-0.1-0.1-0.1-0.2-0.2C329.2,117.9,329.2,117.9,329.3,118c0,0.1,0.1,0.1,0.1,0.2C329.4,118.1,329.3,118,329.3,118
				z M329.1,130.6c-0.1,0.2-0.2,0.3-0.3,0.5C328.9,130.9,329,130.7,329.1,130.6c0.1-0.2,0.3-0.3,0.4-0.5
				C329.4,130.2,329.2,130.4,329.1,130.6z M329.9,118.9c-0.1,0.2-0.2,0.3-0.3,0.5C329.7,119.3,329.8,119.1,329.9,118.9
				C329.9,118.9,329.9,118.9,329.9,118.9z M334.7,108.6c-0.1-0.1-0.2-0.3-0.4-0.6c-0.2-0.2-0.4-0.5-0.7-0.8
				c-0.2-0.2-0.5-0.4-0.8-0.6c-0.3-0.2-0.4-0.2-0.5-0.2c0,0-0.1,0-0.3,0.2c-0.2,0.3-0.4,0.5-0.6,0.9c-0.2,0.4-0.4,0.7-0.5,1
				c-0.2,0.3-0.3,0.5-0.3,0.7c-0.2,0.6-0.4,1.2-0.6,1.7c-0.2,0.5-0.3,1.1-0.5,1.7c0,0,0,0.1,0.1,0.2c0.1,0.2,0.2,0.4,0.3,0.6
				c0,0.1,0.2,0.2,0.4,0.4c0.2,0.2,0.4,0.4,0.6,0.6c0.2,0.2,0.5,0.4,0.7,0.5c0.2,0.1,0.3,0.2,0.4,0.2c0.2-1,0.5-2.1,0.9-3.2
				c0.5-1.2,1.1-2.2,1.9-2.9C334.8,108.8,334.8,108.7,334.7,108.6z"/>
			<path class="st1" d="M325.3,129.9c0,0.1,0,0.2,0,0.3C325.3,130.1,325.3,130,325.3,129.9c0-0.1,0-0.2,0.1-0.3
				C325.4,129.8,325.3,129.8,325.3,129.9z M328.6,117.2L328.6,117.2c0.1,0.1,0.2,0.3,0.4,0.4C328.8,117.5,328.7,117.3,328.6,117.2z
				 M329.3,118c-0.1-0.1-0.1-0.1-0.2-0.2C329.2,117.9,329.2,117.9,329.3,118c0,0.1,0.1,0.1,0.1,0.2C329.4,118.1,329.3,118,329.3,118
				z M329.1,130.6c-0.1,0.2-0.2,0.3-0.3,0.5C328.9,130.9,329,130.7,329.1,130.6c0.1-0.2,0.3-0.3,0.4-0.5
				C329.4,130.2,329.2,130.4,329.1,130.6z M329.9,118.9c-0.1,0.2-0.2,0.3-0.3,0.5C329.7,119.3,329.8,119.1,329.9,118.9
				C329.9,118.9,329.9,118.9,329.9,118.9z"/>
		</g>
		<g>
			<path class="st1" d="M360.5,121.8c0,0.1,0,0.2,0,0.2c0,0.1-0.1,0.2-0.1,0.2c0,0.1-0.2,0.4-0.4,0.8c-0.2,0.5-0.6,1.1-1,1.9
				c-0.4,0.8-0.9,1.5-1.4,2.5c-0.5,0.9-1.1,1.8-1.6,2.5c-0.5,0.8-1.1,1.5-1.6,2.2c-0.5,0.6-0.9,1-1.3,1.2c-0.4,0.3-0.8,0.4-1.2,0.4
				c-0.4,0-0.8-0.1-1.1-0.4c-0.4-0.3-0.7-0.6-1-1c-0.3-0.4-0.5-0.8-0.6-1.1c-0.2-0.5-0.2-0.8-0.2-0.9c0-0.3,0-0.8,0.1-1.4
				c0.1-0.6,0.2-1.2,0.3-1.8c0.1-0.6,0.2-1.2,0.3-1.8c0.1-0.6,0.2-1,0.3-1.2c0.1-0.4,0.2-0.7,0.3-1c0.1-0.3,0.2-0.7,0.3-1l0.7-2
				l-1.3,1.7c-0.4,0.6-0.8,1.1-1.2,1.7c-0.4,0.6-0.7,1.1-1.1,1.7c-0.4,0.6-0.8,1.3-1.1,1.9c-0.4,0.6-0.8,1.2-1.1,1.9
				c-0.3,0.5-0.6,0.9-0.9,1.4c-0.3,0.4-0.6,0.9-0.9,1.3c-0.1,0.1-0.3,0.3-0.5,0.5c-0.1,0.1-0.3,0.2-0.5,0.2c-0.2,0-0.4-0.1-0.6-0.2
				c-0.3-0.2-0.5-0.4-0.8-0.6c-0.2-0.3-0.5-0.5-0.7-0.8c-0.2-0.2-0.3-0.5-0.4-0.6c-0.1-0.4-0.2-0.7-0.1-1.1c0.1-0.4,0.2-0.9,0.2-1.3
				c0.2-0.8,0.4-1.7,0.6-2.5l0.6-2.6l0.4-1.5l-1,1.2c-1.4,1.7-2.7,3.5-3.8,5.4c-1.2,1.8-2.4,3.7-3.4,5.5c-0.1,0.2-0.2,0.4-0.3,0.5
				c0,0.1-0.1,0.1-0.1,0.1c-0.4,0-0.8-0.1-1.1-0.3c-0.3-0.2-0.6-0.5-1-0.9c-0.4-0.4-0.7-0.8-0.9-1.2c-0.2-0.4-0.3-0.9-0.4-1.4v-0.4
				c0-0.1,0-0.2,0-0.3c0-0.1,0-0.2,0-0.4c-0.1,0.1-0.1,0.2-0.2,0.3c-0.1,0.1-0.1,0.2-0.2,0.3c-0.1,0.2-0.2,0.4-0.4,0.6
				c-0.1,0.2-0.2,0.4-0.4,0.5c-0.1,0.2-0.2,0.3-0.3,0.5c-0.1,0.2-0.2,0.3-0.3,0.5c-0.1,0.1-0.2,0.2-0.3,0.4
				c-0.1,0.2-0.2,0.3-0.4,0.4c-0.1,0.2-0.3,0.3-0.4,0.5c-0.6,0.6-1,0.8-1.2,0.8c-0.4,0-0.8-0.1-1.2-0.3c-0.4-0.2-0.7-0.4-1-0.8
				c-0.3-0.3-0.6-0.7-0.8-1c-0.2-0.4-0.3-0.8-0.4-1.2c-0.1-0.4-0.1-0.8-0.1-1.2c0-0.4,0-0.9,0.1-1.2c0.1-0.5,0.2-1,0.3-1.5
				c0.1-0.5,0.3-1,0.4-1.5c0.3-1,0.7-2.1,1.1-3.1c0.1-0.3,0.2-0.5,0.3-0.8c0.2-0.5,0.5-1,0.7-1.5c0.1-0.2,0.2-0.5,0.4-0.7
				c0.5-0.9,1-1.8,1.4-2.5c0.1,0,0.2,0.1,0.4,0.2c0.2,0.2,0.5,0.4,0.8,0.7c0.1,0.1,0.2,0.3,0.4,0.4c0.1,0.1,0.1,0.1,0.2,0.2
				s0.1,0.1,0.2,0.2c0,0.1,0.1,0.1,0.2,0.2c0.1,0.2,0.2,0.3,0.3,0.4c0,0.1,0.1,0.2,0.1,0.3c0,0,0,0,0,0.1c-0.1,0.2-0.2,0.3-0.3,0.5
				c-0.3,0.5-0.7,1.1-1.1,1.8c-0.5,0.9-1,1.9-1.4,2.9c-0.4,1-0.8,2-1.2,3c-0.2,0.8-0.5,1.5-0.6,2.2c0,0.1,0,0.2,0,0.3
				c0,0.1,0,0.2-0.1,0.3c0,0.1,0,0.2,0,0.3c0,0.4-0.1,0.7,0,0.9c0,0.1,0,0.1,0,0.2c0,0,0,0.1,0,0.1c0,0,0,0.1,0.1,0.1
				c0,0,0,0.1,0.1,0.1c0.1,0.1,0.3,0.2,0.5,0.2c0.1,0,0.1,0,0.2,0c0.2-0.1,0.5-0.3,0.9-0.6c0.1-0.1,0.1-0.1,0.2-0.2
				c0.1-0.1,0.1-0.1,0.2-0.2c0.2-0.2,0.4-0.4,0.5-0.7c0.2-0.3,0.5-0.7,0.8-1c0.1-0.2,0.3-0.4,0.4-0.6c0.3-0.4,0.5-0.8,0.8-1.2
				c0.1-0.2,0.3-0.4,0.4-0.6c0-0.1,0.1-0.1,0.1-0.2c0-0.1,0.1-0.1,0.1-0.2c0-0.1,0.1-0.1,0.1-0.2c0-0.1,0.1-0.1,0.1-0.2
				c0.1-0.2,0.2-0.3,0.3-0.5c0,0,0,0,0,0c0,0,0,0,0-0.1c0.1-0.2,0.1-0.4,0.2-0.6c0.1-0.2,0.1-0.5,0.2-0.7c0,0,0,0,0,0
				c0-0.2,0.1-0.3,0.1-0.5c0.1-0.2,0.2-0.7,0.5-1.3c0.3-0.7,0.6-1.4,0.9-2.1c0.3-0.7,0.7-1.4,1-1.9c0.4-0.7,0.6-0.7,0.6-0.7
				c0.2,0,0.4,0.1,0.6,0.2c0.2,0.2,0.5,0.4,0.7,0.6c0.3,0.2,0.5,0.5,0.7,0.7c0.2,0.2,0.3,0.4,0.4,0.6c0,0.1,0.1,0.2,0.1,0.3
				c0,0,0,0.1,0,0.1c-0.4,0.4-0.7,0.8-1,1.3c-0.2,0.4-0.5,0.9-0.7,1.3c0,0.1-0.1,0.3-0.2,0.6c-0.1,0.3-0.2,0.6-0.2,0.9
				c-0.1,0.3-0.2,0.6-0.3,0.9c-0.1,0.2-0.1,0.4-0.2,0.5l-1.3,3.1l1.9-2.8c0.2-0.2,0.4-0.6,0.7-1.2c0.3-0.5,0.7-1.1,1.2-1.8l1.3-2
				c0.5-0.7,0.9-1.4,1.3-2c0.4-0.6,0.7-1.1,1-1.5c0.3-0.4,0.5-0.6,0.5-0.6c0.3-0.2,0.6-0.3,1-0.3c0.3,0,0.6,0.1,0.9,0.2
				c0.3,0.2,0.6,0.4,0.9,0.7c0.3,0.2,0.5,0.6,0.7,0.9c0.2,0.4,0.3,0.6,0.4,0.9c0.1,0.2,0.1,0.6,0,1.1c0,0.1,0,0.4-0.1,0.8
				c-0.1,0.4-0.1,0.9-0.2,1.4c-0.1,0.5-0.1,0.9-0.2,1.4c-0.1,0.4-0.1,0.7-0.1,0.9l-0.3,2l1-1.8c0.1-0.2,0.3-0.6,0.6-1.1l1-1.7
				c0.4-0.6,0.8-1.3,1.1-2c0.4-0.7,0.8-1.3,1.2-1.9c0.4-0.6,0.7-1.1,1-1.5c0.4-0.5,0.6-0.6,0.7-0.7c0.4-0.2,0.7-0.3,1-0.3
				c0.3,0,0.6,0.1,0.9,0.2c0.3,0.2,0.7,0.4,1,0.7c0.3,0.3,0.5,0.6,0.8,0.9c0.2,0.3,0.3,0.6,0.4,0.9c0.1,0.4,0.1,0.8,0,1.3
				c-0.1,0.5-0.2,0.9-0.4,1.3c-0.4,1.4-0.8,2.8-1.3,4.2c-0.5,1.4-0.9,2.8-1.2,4.2c-0.2,0.7-0.2,1.2-0.2,1.5c0,0.7,0.4,0.8,0.6,0.8
				c0.3,0,0.7-0.3,1.2-0.9c0.4-0.5,0.8-1.2,1.3-2c0.5-0.8,1-1.6,1.6-2.5c0.5-0.9,1.1-1.7,1.5-2.5c0.5-0.8,0.8-1.4,1.2-1.9
				c0.2-0.4,0.4-0.5,0.4-0.6c0.5,0.1,0.7,0.1,0.8,0.2C360.4,121.6,360.5,121.7,360.5,121.8z"/>
			<path class="st1" d="M325.4,129.7c0,0.1,0,0.2,0,0.3c0,0.1,0,0.2,0,0.3c0-0.1,0-0.2,0-0.3C325.3,129.8,325.4,129.8,325.4,129.7z"
				/>
			<path class="st1" d="M328.9,117.6c-0.1-0.1-0.2-0.3-0.4-0.4h0C328.7,117.3,328.8,117.5,328.9,117.6z"/>
			<path class="st1" d="M329.4,118.2c0-0.1-0.1-0.1-0.2-0.2c-0.1-0.1-0.1-0.1-0.2-0.2c0.1,0.1,0.1,0.1,0.2,0.2
				C329.3,118,329.4,118.1,329.4,118.2z"/>
			<path class="st1" d="M329.5,130.1c-0.1,0.2-0.2,0.4-0.4,0.5c-0.1,0.2-0.2,0.3-0.4,0.5c0.1-0.1,0.2-0.3,0.3-0.5
				C329.2,130.4,329.4,130.2,329.5,130.1z"/>
			<path class="st1" d="M329.9,118.9c-0.1,0.2-0.2,0.3-0.3,0.5C329.7,119.3,329.8,119.1,329.9,118.9
				C329.9,118.9,329.9,118.9,329.9,118.9z"/>
		</g>
		<g>
			<g>
				<path class="st1" d="M242.8,103.8l0,0.2c-0.1,0.2-0.1,0.4-0.2,0.6c-0.3,1.4-0.8,2.8-1.5,4.1c-0.7,1.4-1.4,2.7-2.2,3.8
					c-0.1,0.2-0.3,0.4-0.4,0.6l-0.1,0.1c-0.2,0.3-0.4,0.5-0.6,0.7c-0.3,0.2-0.5,0.4-0.8,0.6c-0.2,0.1-0.5,0.2-0.8,0.2
					c-0.3,0-0.6-0.1-0.9-0.2c-0.3-0.2-0.6-0.4-0.9-0.6c-0.3-0.2-0.5-0.5-0.7-0.9c-0.2-0.3-0.4-0.6-0.5-0.9c0-0.1-0.1-0.3-0.1-0.4
					c0-0.1,0-0.2,0.1-0.3c0.1-0.1,0.2-0.1,0.3-0.1c0.3,0,0.6,0.1,0.8,0.2l0.1,0l0.1-0.1c0.5-0.4,1-1,1.5-1.7c0.5-0.7,1-1.5,1.4-2.3
					c0.4-0.8,0.8-1.7,1.1-2.4c0.3-0.8,0.6-1.5,0.8-2.1l0.1-0.2l-0.2,0.1c-0.9,0.2-2,0.5-3.3,1c-1.2,0.5-2.5,1-3.8,1.7
					c-1.3,0.7-2.6,1.4-3.8,2.2c-1.2,0.8-2.4,1.7-3.3,2.7c-1,0.9-1.8,1.9-2.4,3c-0.6,1-0.9,2.1-0.9,3.1v0.3c0,0.1,0,0.3,0,0.4
					c0,0.1,0,0.2,0,0.3c0,0,0,0.1,0,0.1v0.1l0,0v0l0,0l0,0c0,0,0,0.1,0,0.1c0,0,0,0,0,0v0.1l0,0c0.1,0.1,0.1,0.1,0.1,0.1v0.2h0.1
					c0,0,0,0,0,0c0,0,0,0.1,0.1,0.1c0.4,0.3,0.8,0.6,1.4,0.9c0.6,0.3,1.2,0.5,1.9,0.7c0.6,0.2,1.2,0.4,2,0.6
					c0.7,0.2,1.2,0.3,1.6,0.3c0.4,0.1,0.8,0.2,1.2,0.3l0.1,0c0.3,0.1,0.7,0.1,1,0.2c0.6,0.1,1.3,0.3,2,0.5c0.6,0.2,1.2,0.4,1.7,0.7
					c0.5,0.3,1,0.7,1.4,1.2c0.4,0.5,0.8,1.1,1,1.8c0.2,0.5,0.3,1,0.3,1.4s-0.1,1-0.2,1.5c-0.2,0.9-0.7,1.8-1.3,2.6
					c-0.6,0.8-1.4,1.5-2.2,2.2c-0.8,0.7-1.7,1.2-2.6,1.8c-0.8,0.5-1.7,0.9-2.6,1.3c-0.5,0.2-1.1,0.5-1.8,0.7
					c-0.7,0.3-1.5,0.6-2.4,0.9c-0.8,0.3-1.7,0.5-2.5,0.7c-0.8,0.2-1.4,0.3-1.8,0.3c-0.4,0-0.8-0.1-1.1-0.2c-0.4-0.1-0.7-0.3-1-0.5
					c-0.3-0.2-0.6-0.5-0.9-0.8c-0.3-0.3-0.5-0.7-0.6-1c-0.1-0.1-0.1-0.3-0.2-0.5c0-0.2-0.1-0.3-0.1-0.5c0-0.1,0-0.2,0.1-0.3
					c0.1-0.1,0.2-0.1,0.4-0.1c0.2,0,0.4,0.1,0.7,0.3c0.3,0.2,0.5,0.4,0.6,0.5l0.1,0l0.1,0c0.1,0,0.2,0,0.3,0c0.1,0,0.1,0,0.2,0
					c0.2,0,0.3-0.1,0.5-0.1c1-0.3,2-0.6,2.9-0.8c1-0.3,2-0.7,3.2-1.1c1-0.4,2.1-0.9,3.2-1.5c1-0.5,2-1.2,2.8-1.8
					c0.8-0.7,1.6-1.4,2.1-2.3c0.6-0.8,1-1.8,1.1-2.8V125l-0.1,0c-0.1,0-0.1,0-0.1,0c0,0,0,0-0.1,0l0,0h0c0,0,0,0,0,0h0l0,0h-0.1l0,0
					l0,0c0,0,0,0-0.1,0h0c-0.1,0-0.2,0-0.4-0.1l-0.1,0c-0.7-0.2-1.4-0.3-2.1-0.5c-0.7-0.1-1.5-0.3-2.1-0.5c-0.8-0.2-1.6-0.4-2.4-0.6
					c-0.8-0.2-1.6-0.5-2.4-0.8c-0.7-0.3-1.5-0.7-2.2-1.2c-0.7-0.5-1.3-1-1.8-1.6c-0.5-0.6-1-1.3-1.4-2c-0.3-0.7-0.6-1.5-0.6-2.3
					c-0.1-1,0.1-2,0.4-2.9c0.4-1,0.9-1.9,1.5-2.7c0.7-0.8,1.4-1.6,2.2-2.3c0.8-0.8,1.9-1.6,3.3-2.5c1.3-0.9,2.7-1.7,4.2-2.5
					c1.5-0.7,3-1.4,4.4-1.8c1.5-0.5,2.7-0.7,3.8-0.7c0.4,0,0.9,0.1,1.4,0.2c0.5,0.2,0.9,0.4,1.3,0.7c0.4,0.3,0.8,0.7,1,1.1
					c0.3,0.4,0.4,0.9,0.4,1.3C242.9,103.2,242.9,103.5,242.8,103.8z"/>
			</g>
		</g>
	</g>
	<g>
		<g>
			<path class="st2" d="M236.5,68h-3.3v16.3c0,1.2,0.5,2,1.5,2.5c1,0.5,2.7,0.9,5.2,1.2c0.7,0.1,1.1,0.6,1.1,1.6
				c0,0.4-0.1,0.9-0.2,1.4c-1.5-0.1-3.4-0.2-5.6-0.3c-2.3-0.1-4.7-0.1-7.4-0.1c-1.9,0-3.7,0-5.4,0.1c-1.7,0.1-3.4,0.2-4.9,0.3
				c-0.1-0.2-0.2-0.4-0.2-0.7c0-0.3,0-0.5,0-0.6c0-0.9,0.3-1.4,0.9-1.5c1.1-0.2,2-0.4,2.6-0.6c0.7-0.2,1.2-0.4,1.6-0.6
				c0.4-0.2,0.6-0.5,0.7-0.9c0.1-0.3,0.2-0.8,0.2-1.3v-39c0-1-0.4-1.8-1.1-2.3c-0.8-0.5-2.2-0.8-4.3-1.1c-0.3-0.1-0.5-0.3-0.6-0.5
				c-0.2-0.2-0.2-0.6-0.2-1.1c0-0.2,0-0.4,0-0.7c0-0.3,0.1-0.5,0.2-0.6c1.5,0.1,3.1,0.2,5,0.3c1.9,0.1,3.6,0.1,5.1,0.1h11.8
				c2.8,0,5.2,0.3,7.4,1c2.2,0.7,4,1.6,5.6,2.9c1.5,1.2,2.7,2.7,3.5,4.4c0.8,1.7,1.2,3.6,1.2,5.7c0,2.8-0.8,5.3-2.5,7.5
				c-1.7,2.3-4,4-7,5.1l12.2,17.8c0.9,1.4,2,2.3,3.2,2.8c1.2,0.5,2.3,0.9,3.4,1.2c0.3,0.1,0.5,0.2,0.6,0.4c0.2,0.2,0.2,0.5,0.2,1
				c0,0.2,0,0.4,0,0.7c0,0.3-0.1,0.5-0.2,0.8c-0.6-0.1-1.4-0.1-2.4-0.1c-1,0-2.1-0.1-3.2-0.1c-1.1-0.1-2.2-0.1-3.3-0.1
				c-1.1,0-2,0-2.8,0c-1.1,0-2.2-0.5-3.3-1.4c-1.1-0.9-2.2-2.1-3.2-3.6L236.5,68z M235.5,64.1c1.6,0,3.1-0.2,4.4-0.5
				c1.3-0.3,2.4-0.8,3.3-1.6c0.9-0.8,1.6-1.8,2.1-3c0.5-1.2,0.7-2.8,0.7-4.8c0-3.2-0.8-5.8-2.3-7.6c-1.6-1.9-4.3-2.8-8.3-2.8h-2.3
				v20.3H235.5z"/>
			<path class="st2" d="M320.5,71.3c0,3-0.3,5.7-0.9,8.1c-0.6,2.5-1.7,4.6-3.2,6.4c-1.5,1.8-3.6,3.2-6.2,4.2c-2.6,1-5.8,1.5-9.7,1.5
				c-4.6,0-8.3-0.5-11.2-1.6c-2.8-1-5-2.5-6.5-4.2c-1.5-1.8-2.6-3.9-3.1-6.3c-0.5-2.4-0.8-5-0.8-7.8V45.8c0-1.1-0.3-1.9-1-2.3
				c-0.7-0.4-2.1-0.8-4.1-1.1c-0.6-0.1-0.9-0.6-0.9-1.5c0-0.2,0-0.4,0-0.6c0-0.3,0.1-0.5,0.2-0.8c1.5,0.1,3.1,0.2,4.8,0.3
				c1.7,0.1,3.7,0.1,6,0.1c1.8,0,3.7,0,5.7-0.1c2-0.1,3.7-0.2,5.3-0.3c0.1,0.3,0.1,0.5,0.1,0.8c0,0.3,0,0.5,0,0.6
				c0,0.9-0.3,1.4-0.9,1.5c-2.1,0.3-3.6,0.6-4.3,1.1c-0.8,0.5-1.1,1.2-1.1,2.3v24.1c0,5.4,1,9.5,3,12.3c2,2.8,5.4,4.2,10.3,4.2
				c5,0,8.5-1.3,10.6-3.9c2.1-2.6,3.2-6.9,3.2-12.8V45.8c0-1-0.4-1.8-1.1-2.3c-0.7-0.5-2.1-0.8-4.1-1.1c-0.6-0.2-0.9-0.6-0.9-1.5
				c0-0.2,0-0.4,0-0.6c0-0.3,0.1-0.5,0.1-0.8c1.5,0.2,2.9,0.3,4.2,0.3c1.3,0.1,2.6,0.1,4.1,0.1c1.7,0,3.1,0,4.4-0.1
				c1.3-0.1,2.6-0.2,3.8-0.3c0.1,0.3,0.1,0.5,0.1,0.8c0,0.3,0,0.5,0,0.6c0,0.8-0.3,1.3-0.9,1.5c-1.9,0.2-3.2,0.6-4,1.1
				c-0.7,0.5-1.1,1.3-1.1,2.3V71.3z"/>
			<path class="st2" d="M356.1,69.3v15c0,1.2,0.5,2,1.5,2.5c1,0.5,2.7,0.9,5.2,1.2c0.7,0.1,1.1,0.6,1.1,1.6c0,0.4-0.1,0.9-0.2,1.4
				c-1.5-0.1-3.4-0.2-5.6-0.3c-2.3-0.1-4.7-0.1-7.4-0.1c-1.9,0-3.7,0-5.4,0.1c-1.7,0.1-3.4,0.2-4.9,0.3c-0.1-0.2-0.2-0.4-0.2-0.7
				c0-0.3,0-0.5,0-0.6c0-0.9,0.3-1.4,0.9-1.5c1.1-0.2,2-0.4,2.6-0.6c0.7-0.2,1.2-0.4,1.6-0.6c0.4-0.2,0.6-0.5,0.7-0.9
				c0.1-0.3,0.2-0.8,0.2-1.3v-39c0-1-0.4-1.8-1.1-2.3c-0.8-0.5-2.2-0.8-4.3-1.1c-0.3-0.1-0.5-0.3-0.6-0.5c-0.2-0.2-0.2-0.6-0.2-1.1
				c0-0.2,0-0.4,0-0.7c0-0.3,0.1-0.5,0.2-0.6c1.5,0.1,3.1,0.2,5,0.3c1.9,0.1,3.6,0.1,5.1,0.1H362c5.6,0,9.9,1.2,13,3.7
				c3.1,2.5,4.7,6,4.7,10.4c0,2-0.4,4-1.2,5.8c-0.8,1.8-1.9,3.5-3.5,4.8c-1.5,1.4-3.4,2.5-5.6,3.3c-2.2,0.8-4.7,1.2-7.5,1.2H356.1z
				 M358.4,65.4c3.2,0,5.7-0.8,7.7-2.4c1.9-1.6,2.9-4.3,2.9-8.2c0-3.5-0.8-6.2-2.3-8.1c-1.5-1.9-4.3-2.9-8.3-2.9h-2.3v21.6H358.4z"
				/>
			<path class="st2" d="M392.9,65.2c0-3.6,0.7-7,2.1-10.2c1.4-3.2,3.3-5.9,5.6-8.3c2.4-2.4,5.2-4.3,8.4-5.6
				c3.2-1.4,6.6-2.1,10.2-2.1c3.7,0,7.2,0.7,10.4,1.9c3.2,1.3,6,3.1,8.4,5.5c2.4,2.3,4.2,5.1,5.6,8.3c1.3,3.2,2,6.7,2,10.5
				c0,3.6-0.7,7-2.1,10.2c-1.4,3.2-3.3,6-5.6,8.3c-2.4,2.4-5.2,4.2-8.4,5.6c-3.2,1.4-6.6,2.1-10.3,2.1c-3.7,0-7.2-0.6-10.4-1.9
				c-3.2-1.3-6-3.1-8.3-5.5s-4.2-5.1-5.5-8.3C393.6,72.6,392.9,69.1,392.9,65.2z M420.4,87.4c2.2,0,4.2-0.5,5.9-1.4
				c1.8-1,3.3-2.3,4.6-3.9c1.3-1.7,2.3-3.6,3-5.8c0.7-2.2,1.1-4.6,1.1-7.2c0-3.7-0.4-7.1-1.1-10.3c-0.7-3.2-1.8-5.9-3.2-8.2
				c-1.4-2.3-3.2-4.1-5.4-5.5c-2.2-1.3-4.7-2-7.5-2c-1.8,0-3.6,0.4-5.3,1.2c-1.7,0.8-3.2,2-4.5,3.5c-1.3,1.5-2.3,3.4-3.1,5.6
				c-0.8,2.2-1.2,4.6-1.2,7.4c0,3.8,0.4,7.4,1.1,10.7c0.8,3.3,1.8,6.1,3.3,8.5c1.4,2.4,3.2,4.2,5.3,5.5
				C415.4,86.8,417.8,87.4,420.4,87.4z"/>
			<path class="st2" d="M492,52.5c-0.5,0.2-1,0.2-1.5,0.2c-0.7,0-1.2-0.1-1.6-0.4c-0.3-0.3-0.5-0.6-0.6-0.9c-1.2-3-2.7-5.1-4.6-6.4
				c-1.9-1.3-4.4-1.9-7.6-1.9c-2.5,0-4.6,0.6-6.3,1.8c-1.7,1.2-2.6,3.1-2.6,5.6c0,1.9,0.7,3.5,2,4.6s3,2.2,5,3.1
				c2,0.9,4.2,1.7,6.5,2.6c2.3,0.8,4.5,1.9,6.5,3.1c2,1.2,3.7,2.8,5,4.8c1.3,1.9,2,4.4,2,7.4c0,2-0.3,3.9-1,5.8
				c-0.7,1.9-1.7,3.5-3.2,4.9c-1.5,1.4-3.3,2.6-5.5,3.4c-2.2,0.9-4.9,1.3-8,1.3c-3.4,0-6.5-0.4-9.2-1.1c-2.7-0.7-4.9-1.5-6.7-2.4
				c-0.2-2.2-0.4-4.4-0.7-6.6c-0.3-2.2-0.7-4.2-1.1-6.3c0.5-0.2,1.1-0.3,1.8-0.3c0.6,0,1.1,0.1,1.4,0.4s0.6,0.6,0.8,1.2
				c0.7,2,1.4,3.7,2.3,5.1c0.8,1.4,1.8,2.6,2.9,3.5c1.1,0.9,2.3,1.6,3.8,2c1.4,0.4,3.1,0.6,4.9,0.6c1.6,0,3-0.2,4.1-0.7
				c1.1-0.4,2.1-1,2.8-1.8c0.7-0.7,1.3-1.6,1.6-2.6c0.4-1,0.5-2,0.5-3c0-2.2-0.6-4-1.9-5.3s-2.9-2.3-4.8-3.2s-3.9-1.7-6.2-2.4
				c-2.2-0.8-4.3-1.7-6.2-2.9c-1.9-1.2-3.5-2.7-4.8-4.5c-1.3-1.8-1.9-4.3-1.9-7.5c0-2.1,0.4-4,1.1-5.8c0.8-1.8,1.9-3.4,3.3-4.7
				c1.5-1.3,3.2-2.4,5.3-3.2c2.1-0.8,4.4-1.2,7-1.2c2.2,0,4.4,0.2,6.6,0.7c2.2,0.5,4.7,1.2,7.5,2.3c0.1,1.6,0.3,3.3,0.5,5.3
				C491.4,49.2,491.7,51,492,52.5z"/>
			<path class="st2" d="M524.2,43.8v18.8h11c1,0,1.7-0.4,2-1.2c0.4-0.8,0.7-2.1,0.9-3.9c0.1-0.4,0.2-0.7,0.5-0.8
				c0.3-0.1,0.6-0.2,1-0.2c0.2,0,0.4,0,0.7,0c0.3,0,0.6,0.1,0.7,0.1c-0.1,1.2-0.2,2.6-0.3,4.2c-0.1,1.6-0.1,2.9-0.1,4
				c0,0.9,0,2,0.1,3.3c0.1,1.3,0.2,2.7,0.3,4.3c-0.2,0.1-0.4,0.2-0.7,0.2c-0.3,0-0.6,0-0.7,0c-0.9,0-1.4-0.4-1.5-1.1
				c-0.3-2-0.7-3.3-1.1-4s-1-1.1-1.9-1.1h-11v17.4c0,1.1,0.7,1.8,2,2.2c1.4,0.4,3.6,0.5,6.9,0.5h3.3c1.6,0,2.9-0.2,3.9-0.6
				c1.1-0.4,2-1,2.8-1.8c0.8-0.8,1.6-1.6,2.2-2.6s1.2-2.1,1.9-3.4c0.2-0.4,0.5-0.5,1.1-0.5c0.3,0,0.6,0.1,0.9,0.2
				c0.4,0.2,0.7,0.3,1.1,0.5c-0.1,0.4-0.2,0.8-0.4,1.2c-0.1,0.4-0.2,0.7-0.4,1.1c-0.3,0.6-0.5,1.2-0.6,1.9c-0.2,0.7-0.3,1.2-0.5,1.6
				c-0.1,0.5-0.2,1.1-0.4,1.8c-0.1,0.6-0.3,1.3-0.4,1.9c-0.1,0.6-0.3,1.1-0.4,1.6c-0.1,0.5-0.2,0.8-0.3,0.9
				c-0.2,0.4-0.6,0.6-1.2,0.6c-0.4,0-1,0-1.8-0.1c-0.8-0.1-1.6-0.1-2.5-0.1c-0.9,0-1.8-0.1-2.8-0.1c-0.9-0.1-1.7-0.1-2.4-0.1h-17.7
				c-1.5,0-3.2,0-5.2,0.1c-1.9,0.1-3.7,0.2-5.3,0.3c-0.1-0.2-0.2-0.5-0.2-0.8c0-0.3,0-0.6,0-0.7c0-0.8,0.3-1.2,0.8-1.2
				c2-0.4,3.4-0.8,4.2-1.2c0.9-0.4,1.3-1.1,1.3-2.2v-39c0-0.5-0.1-0.9-0.2-1.3c-0.2-0.3-0.5-0.6-0.9-0.9c-0.4-0.2-1-0.4-1.7-0.6
				c-0.7-0.2-1.6-0.4-2.7-0.6c-0.5-0.2-0.8-0.6-0.8-1.4c0-0.3,0-0.5,0-0.7c0-0.2,0.1-0.5,0.2-0.7c2.2,0.2,4.2,0.3,5.9,0.3
				c1.7,0.1,3.2,0.1,4.4,0.1h16c2.3,0,4.3-0.1,6-0.2s2.8-0.2,3.5-0.2c0.6,0,1,0.2,1.2,0.7c0.2,0.4,0.3,1.2,0.4,2.3
				c0.1,1.1,0.3,2.3,0.5,3.5c0.2,0.9,0.3,1.7,0.5,2.6c0.2,0.8,0.5,1.8,0.9,3c-0.3,0.1-0.5,0.2-0.9,0.3c-0.3,0.1-0.6,0.2-0.9,0.2
				c-0.6,0-1-0.2-1.2-0.7c-0.6-1.4-1.2-2.5-1.8-3.5c-0.6-1-1.3-1.7-2-2.3c-0.8-0.6-1.6-1-2.6-1.3c-1-0.3-2.2-0.4-3.6-0.4H524.2z"/>
		</g>
	</g>
</g>
</svg>
