<svg xmlns="http://www.w3.org/2000/svg" id="Line" height="512" viewBox="0 0 64 64" width="512"><path d="m15 42v-2a1 1 0 0 0 -2 0v1h-3a5.0059 5.0059 0 0 1 -5-5v-4a5.0059 5.0059 0 0 1 5-5h3v7a1 1 0 0 0 2 0v-8a1 1 0 0 0 -1-1h-4a7.0085 7.0085 0 0 0 -7 7v4a7.0085 7.0085 0 0 0 7 7h4a1 1 0 0 0 1-1z"></path><path d="m54.9766 25.0763a23 23 0 0 0 -45.11-5.3488 1 1 0 0 0 1.9238.545 20.9879 20.9879 0 0 1 41.1589 4.7275h-2.9493a1 1 0 0 0 -1 1v2a1 1 0 0 0 2 0v-1h3a5.0059 5.0059 0 0 1 5 5v4a5.0059 5.0059 0 0 1 -5 5h-3l-.001-7a1 1 0 0 0 -2 0l.001 8a1 1 0 0 0 1 1h4a7.0085 7.0085 0 0 0 7-7v-4a7.0055 7.0055 0 0 0 -6.0234-6.9237z"></path><path d="m53.3594 46.4629a.9975.9975 0 0 0 -1.292.5732 14.0894 14.0894 0 0 1 -13.0674 8.9639h-.142a3.9955 3.9955 0 0 0 -3.858-3h-6a4 4 0 0 0 0 8h6a3.9955 3.9955 0 0 0 3.858-3h.142a16.1 16.1 0 0 0 14.9326-10.2451.9984.9984 0 0 0 -.5732-1.292zm-18.3594 12.5371h-6a2 2 0 0 1 0-4h6a2 2 0 0 1 0 4z"></path></svg>