<svg xmlns="http://www.w3.org/2000/svg" id="Layer_1" viewBox="0 0 100 100"><g><g><path d="m83.1149902 97.5h-66.2299804c-4.1357422 0-7.5-3.3642578-7.5-7.5v-4.3447266c0-16.5644531 13.4765625-30.0400391 30.0410156-30.0400391h21.1479492c16.5644531 0 30.0410156 13.4755859 30.0410156 30.0400391v4.3447266c0 4.1357422-3.3642578 7.5-7.5 7.5zm-43.6889648-36.8847656c-13.8076172 0-25.0410156 11.2333984-25.0410156 25.0400391v4.3447265c0 1.3789062 1.121582 2.5 2.5 2.5h66.2299805c1.3789062 0 2.5-1.1210938 2.5-2.5v-4.3447266c0-13.8066406-11.2333984-25.0400391-25.0410156-25.0400391h-21.1479493z" fill="rgb(0,0,0)"></path></g><g><path d="m49.9997559 52.2539062c-13.7172852 0-24.8769531-11.159668-24.8769531-24.8769531s11.1596679-24.8769531 24.8769531-24.8769531c13.7167969 0 24.8769531 11.159668 24.8769531 24.8769531s-11.1601563 24.8769531-24.8769531 24.8769531zm0-44.7539062c-10.9599609 0-19.8769531 8.9169922-19.8769531 19.8769531s8.9169922 19.8769531 19.8769531 19.8769531 19.8769531-8.9169921 19.8769531-19.8769531-8.9169922-19.8769531-19.8769531-19.8769531z" fill="rgb(0,0,0)"></path></g></g></svg>